SplineFontDB: 3.0
FontName: TriodPostnaja
FullName: Triod Postnaja
FamilyName: TriodPostnaja
Weight: Medium
Copyright: Copyright (c) 2010, 2011 by Daniel Johnson. Licensed under the terms of the SIL Open Font License.
UComments: "2010-2-19: Created." 
Version: 20110805
ItalicAngle: 0
UnderlinePosition: -102
UnderlineWidth: 51
Ascent: 819
Descent: 205
LayerCount: 2
Layer: 0 1 "Back"  1
Layer: 1 1 "Fore"  0
NeedsXUIDChange: 1
XUID: [1021 1003 1579404955 5003184]
FSType: 0
OS2Version: 0
OS2_WeightWidthSlopeOnly: 0
OS2_UseTypoMetrics: 1
CreationTime: 1266594232
ModificationTime: 1312577337
PfmFamily: 17
TTFWeight: 500
TTFWidth: 5
LineGap: 92
VLineGap: 92
OS2TypoAscent: 0
OS2TypoAOffset: 1
OS2TypoDescent: 0
OS2TypoDOffset: 1
OS2TypoLinegap: 92
OS2WinAscent: 0
OS2WinAOffset: 1
OS2WinDescent: 0
OS2WinDOffset: 1
HheadAscent: 0
HheadAOffset: 1
HheadDescent: 0
HheadDOffset: 1
OS2Vendor: 'PfEd'
Lookup: 4 0 0 "'ccmp' Glyph Composition/Decomposition lookup 0"  {"'ccmp' Glyph Composition/Decomposition lookup 0-1"  } ['ccmp' ('DFLT' <'dflt' > 'cyrl' <'dflt' > 'latn' <'dflt' > ) ]
Lookup: 260 0 0 "'mark' Mark Positioning lookup 0"  {"'mark' Mark Positioning lookup 0-1"  } ['mark' ('DFLT' <'dflt' > 'cyrl' <'dflt' > 'latn' <'dflt' > ) ]
MarkAttachClasses: 1
DEI: 91125
TtTable: prep
PUSHW_1
 511
SCANCTRL
PUSHB_1
 1
SCANTYPE
SVTCA[y-axis]
MPPEM
PUSHB_1
 8
LT
IF
PUSHB_2
 1
 1
INSTCTRL
EIF
PUSHB_2
 70
 6
CALL
IF
POP
PUSHB_1
 16
EIF
MPPEM
PUSHB_1
 20
GT
IF
POP
PUSHB_1
 128
EIF
SCVTCI
PUSHB_1
 6
CALL
NOT
IF
EIF
PUSHB_1
 20
CALL
EndTTInstrs
TtTable: fpgm
PUSHB_1
 0
FDEF
PUSHB_1
 0
SZP0
MPPEM
PUSHB_1
 42
LT
IF
PUSHB_1
 74
SROUND
EIF
PUSHB_1
 0
SWAP
MIAP[rnd]
RTG
PUSHB_1
 6
CALL
IF
RTDG
EIF
MPPEM
PUSHB_1
 42
LT
IF
RDTG
EIF
DUP
MDRP[rp0,rnd,grey]
PUSHB_1
 1
SZP0
MDAP[no-rnd]
RTG
ENDF
PUSHB_1
 1
FDEF
DUP
MDRP[rp0,min,white]
PUSHB_1
 12
CALL
ENDF
PUSHB_1
 2
FDEF
MPPEM
GT
IF
RCVT
SWAP
EIF
POP
ENDF
PUSHB_1
 3
FDEF
ROUND[Black]
RTG
DUP
PUSHB_1
 64
LT
IF
POP
PUSHB_1
 64
EIF
ENDF
PUSHB_1
 4
FDEF

StartChar: afii10017
Encoding: 1040 1040 0
Width: 661
VWidth: 0
Flags: W
HStem: 0 24<61 117.358 240.299 297 337 396.647 540.353 600> 262 62<227.578 311.848> 693 24<337 389.072 540.353 600>
VStem: 87 118<346.062 449.411> 143 71<41.5378 121.642> 408 121<34.3208 377 395.191 632>
AnchorPoint: "top" 473 748 basechar 0
LayerCount: 2
Fore
SplineSet
529 88 m 2,0,1
 529 44 529 44 540 34 c 128,-1,2
 551 24 551 24 600 24 c 1,3,-1
 600 0 l 1,4,-1
 337 0 l 1,5,-1
 337 24 l 1,6,7
 386 24 386 24 397 34 c 128,-1,8
 408 44 408 44 408 88 c 2,9,-1
 408 377 l 1,10,11
 329 262 329 262 227 262 c 1,12,13
 266 236 266 236 266 189 c 0,14,15
 266 133 266 133 214 110 c 1,16,-1
 214 102 l 2,17,18
 214 58 214 58 233 41 c 128,-1,19
 252 24 252 24 297 24 c 1,20,-1
 297 0 l 1,21,-1
 61 0 l 1,22,-1
 61 24 l 1,23,24
 106 24 106 24 124.5 41 c 128,-1,25
 143 58 143 58 143 102 c 2,26,-1
 143 109 l 1,27,28
 119 119 119 119 104 140.5 c 128,-1,29
 89 162 89 162 89 189 c 0,30,31
 89 218 89 218 107 241.5 c 128,-1,32
 125 265 125 265 152 273 c 1,33,34
 87 296 87 296 87 370 c 0,35,36
 87 421 87 421 122.5 470.5 c 128,-1,37
 158 520 158 520 215 558.5 c 128,-1,38
 272 597 272 597 316.5 620.5 c 128,-1,39
 361 644 361 644 406 663 c 1,40,41
 403 683 403 683 389.5 688 c 128,-1,42
 376 693 376 693 337 693 c 1,43,-1
 337 717 l 1,44,-1
 600 717 l 1,45,-1
 600 693 l 1,46,47
 551 693 551 693 540 682.5 c 128,-1,48
 529 672 529 672 529 628 c 2,49,-1
 529 88 l 2,0,1
408 424 m 1,50,-1
 408 628 l 1,51,-1
 408 632 l 1,52,53
 377 620 377 620 348 603.5 c 128,-1,54
 319 587 319 587 283.5 560.5 c 128,-1,55
 248 534 248 534 226.5 497 c 128,-1,56
 205 460 205 460 205 418 c 0,57,58
 205 324 205 324 285 324 c 0,59,60
 337 324 337 324 408 424 c 1,50,-1
EndSplineSet
Validated: 19457
EndChar

StartChar: afii10055
Encoding: 1030 1030 1
Width: 386
VWidth: 0
Flags: W
HStem: 0 24<61 120.647 265.353 325> 693 24<61 120.647 265.353 325>
VStem: 132 122<34.3208 682.164>
AnchorPoint: "top" 195 748 basechar 0
LayerCount: 2
Fore
SplineSet
254 88 m 6,0,1
 254 44 254 44 265 34 c 128,-1,2
 276 24 276 24 325 24 c 1,3,-1
 325 0 l 1,4,-1
 61 0 l 1,5,-1
 61 24 l 1,6,7
 110 24 110 24 121 34 c 128,-1,8
 132 44 132 44 132 88 c 2,9,-1
 132 628 l 2,10,11
 132 672 132 672 121 682.5 c 128,-1,12
 110 693 110 693 61 693 c 1,13,-1
 61 717 l 1,14,-1
 325 717 l 1,15,-1
 325 693 l 1,16,17
 276 693 276 693 265 682.5 c 128,-1,18
 254 672 254 672 254 628 c 2,19,-1
 254 88 l 6,0,1
EndSplineSet
Validated: 19457
EndChar

StartChar: afii10018
Encoding: 1041 1041 2
Width: 675
VWidth: 0
Flags: W
HStem: 0 24<61 120.647 265.353 418.647 563.353 623> 692 25<61 120.647 265.353 372.503>
VStem: 132 122<34.3208 424 452.175 681.164> 430 122<34.3208 356.003> 446 25<535 599.061>
AnchorPoint: "top" 338 748 basechar 0
LayerCount: 2
Fore
SplineSet
524 717 m 1,0,-1
 524 692 l 1,1,2
 518 684 518 684 509 670 c 128,-1,3
 500 656 500 656 485.5 614.5 c 128,-1,4
 471 573 471 573 471 535 c 1,5,-1
 446 535 l 1,6,7
 446 589 446 589 412.5 640.5 c 128,-1,8
 379 692 379 692 325 692 c 0,9,10
 276 692 276 692 265 681.5 c 128,-1,11
 254 671 254 671 254 627 c 2,12,-1
 254 475 l 1,13,14
 301 419 301 419 371 398 c 128,-1,15
 441 377 441 377 552 377 c 1,16,-1
 552 88 l 2,17,18
 552 44 552 44 563 34 c 128,-1,19
 574 24 574 24 623 24 c 1,20,-1
 623 0 l 1,21,-1
 61 0 l 1,22,-1
 61 24 l 1,23,24
 110 24 110 24 121 34 c 128,-1,25
 132 44 132 44 132 88 c 2,26,-1
 132 627 l 2,27,28
 132 671 132 671 121 681.5 c 128,-1,29
 110 692 110 692 61 692 c 1,30,-1
 61 717 l 1,31,-1
 524 717 l 1,0,-1
430 353 m 1,32,33
 318 367 318 367 254 424 c 1,34,-1
 254 88 l 2,35,36
 254 44 254 44 265 34 c 128,-1,37
 276 24 276 24 325 24 c 2,38,-1
 359 24 l 2,39,40
 408 24 408 24 419 34 c 128,-1,41
 430 44 430 44 430 88 c 2,42,-1
 430 353 l 1,32,33
EndSplineSet
Validated: 19457
EndChar

StartChar: afii10019
Encoding: 1042 1042 3
Width: 683
VWidth: 0
Flags: W
HStem: 0 24<61 120.647 265.353 418.647 563.353 623> 693 24<61 120.647 265.353 418.647 563.353 623>
VStem: 132 122<34.3208 310 338.121 388.879 417 682.679> 430 122<34.3208 243.815 483.185 682.679>
AnchorPoint: "top" 344 748 basechar 0
LayerCount: 2
Fore
SplineSet
132 88 m 2,0,-1
 132 629 l 2,1,2
 132 673 132 673 121 683 c 128,-1,3
 110 693 110 693 61 693 c 1,4,-1
 61 717 l 1,5,-1
 623 717 l 1,6,-1
 623 693 l 1,7,8
 574 693 574 693 563 683 c 128,-1,9
 552 673 552 673 552 629 c 2,10,-1
 552 462 l 1,11,12
 440 462 440 462 372 442.5 c 128,-1,13
 304 423 304 423 254 368 c 1,14,-1
 254 359 l 1,15,16
 304 304 304 304 372 284.5 c 128,-1,17
 440 265 440 265 552 265 c 1,18,-1
 552 88 l 2,19,20
 552 44 552 44 563 34 c 128,-1,21
 574 24 574 24 623 24 c 1,22,-1
 623 0 l 1,23,-1
 61 0 l 1,24,-1
 61 24 l 1,25,26
 110 24 110 24 121 34 c 128,-1,27
 132 44 132 44 132 88 c 2,0,-1
430 241 m 1,28,29
 321 254 321 254 254 310 c 1,30,-1
 254 88 l 2,31,32
 254 44 254 44 265 34 c 128,-1,33
 276 24 276 24 325 24 c 2,34,-1
 359 24 l 2,35,36
 408 24 408 24 419 34 c 128,-1,37
 430 44 430 44 430 88 c 2,38,-1
 430 241 l 1,28,29
254 417 m 1,39,40
 321 473 321 473 430 486 c 1,41,-1
 430 629 l 2,42,43
 430 673 430 673 419 683 c 128,-1,44
 408 693 408 693 359 693 c 2,45,-1
 325 693 l 2,46,47
 276 693 276 693 265 683 c 128,-1,48
 254 673 254 673 254 629 c 2,49,-1
 254 417 l 1,39,40
EndSplineSet
Validated: 19457
EndChar

StartChar: afii10020
Encoding: 1043 1043 4
Width: 584
VWidth: 0
Flags: W
HStem: 0 24<61 120.647 265.353 325> 692 25<61 120.647 265.353 372.503>
VStem: 132 122<34.3208 681.164> 446 25<535 599.061>
AnchorPoint: "top" 336 748 basechar 0
LayerCount: 2
Fore
SplineSet
325 0 m 25,0,-1
 61 0 l 1,1,-1
 61 24 l 1,2,3
 110 24 110 24 121 34 c 128,-1,4
 132 44 132 44 132 88 c 2,5,-1
 132 627 l 2,6,7
 132 671 132 671 121 681.5 c 128,-1,8
 110 692 110 692 61 692 c 1,9,-1
 61 717 l 1,10,-1
 524 717 l 1,11,-1
 524 692 l 1,12,13
 518 684 518 684 509 670 c 128,-1,14
 500 656 500 656 485.5 614.5 c 128,-1,15
 471 573 471 573 471 535 c 1,16,-1
 446 535 l 1,17,18
 446 589 446 589 412.5 640.5 c 128,-1,19
 379 692 379 692 325 692 c 0,20,21
 276 692 276 692 265 681.5 c 128,-1,22
 254 671 254 671 254 627 c 2,23,-1
 254 88 l 2,24,25
 254 44 254 44 265 34 c 128,-1,26
 276 24 276 24 325 24 c 1,27,-1
 325 0 l 25,0,-1
EndSplineSet
Validated: 19457
EndChar

StartChar: afii10021
Encoding: 1044 1044 5
Width: 711
VWidth: 0
Flags: W
HStem: 0 25<164.704 446> 693 24<219 281.463 421.062 482>
VStem: 75 24<-158 -95.8438> 289 128<585.203 688.023> 603 25<-158 -94.4711>
AnchorPoint: "top" 354 748 basechar 0
LayerCount: 2
Fore
SplineSet
219 693 m 1,0,-1
 219 717 l 1,1,-1
 482 717 l 1,2,-1
 482 693 l 1,3,4
 417 693 417 693 417 672 c 0,5,6
 417 660 417 660 419 654 c 2,7,-1
 572 25 l 1,8,-1
 681 25 l 1,9,-1
 681 0 l 1,10,11
 675 -8 675 -8 666 -22.5 c 128,-1,12
 657 -37 657 -37 642.5 -78.5 c 128,-1,13
 628 -120 628 -120 628 -158 c 1,14,-1
 603 -158 l 1,15,16
 603 -119 603 -119 582.5 -73.5 c 128,-1,17
 562 -28 562 -28 528 0 c 1,18,-1
 174 0 l 1,19,20
 140 -28 140 -28 119.5 -73.5 c 128,-1,21
 99 -119 99 -119 99 -158 c 1,22,-1
 75 -158 l 1,23,24
 75 -120 75 -120 62 -80 c 0,25,26
 48 -40 48 -40 35 -20 c 2,27,-1
 22 0 l 1,28,-1
 22 25 l 1,29,-1
 135 25 l 1,30,-1
 286 641 l 2,31,32
 289 652 289 652 289 667 c 0,33,34
 289 693 289 693 219 693 c 1,0,-1
164 25 m 1,35,-1
 446 25 l 1,36,-1
 304 611 l 1,37,-1
 164 25 l 1,35,-1
EndSplineSet
Validated: 19457
EndChar

StartChar: afii10022
Encoding: 1045 1045 7
Width: 720
VWidth: 0
Flags: W
HStem: -10 24<289.575 403.94> 173 24<391 456.007 603.759 654> 287 23<376 443.712 593.865 639> 443 27<264.802 408.119> 521 24<391 456.007 604.524 654> 703 25<287.219 405.282>
VStem: 66 128<191.357 401.853 422 525.992>
AnchorPoint: "top" 343 748 basechar 0
LayerCount: 2
Fore
SplineSet
574 128 m 1,0,1
 558 98 558 98 550 84 c 128,-1,2
 542 70 542 70 522.5 48 c 128,-1,3
 503 26 503 26 481.5 16 c 128,-1,4
 460 6 460 6 423.5 -2 c 128,-1,5
 387 -10 387 -10 339 -10 c 0,6,7
 204 -10 204 -10 135 90.5 c 128,-1,8
 66 191 66 191 66 359 c 0,9,10
 66 526 66 526 135 627 c 128,-1,11
 204 728 204 728 339 728 c 0,12,13
 387 728 387 728 423.5 720 c 128,-1,14
 460 712 460 712 482 701.5 c 128,-1,15
 504 691 504 691 523 670 c 128,-1,16
 542 649 542 649 551 633.5 c 128,-1,17
 560 618 560 618 575 589 c 0,18,19
 597 545 597 545 654 545 c 1,20,-1
 654 521 l 1,21,-1
 391 521 l 1,22,-1
 391 545 l 1,23,24
 441 545 441 545 456.5 556 c 128,-1,25
 472 567 472 567 472 589 c 0,26,27
 472 631 472 631 438.5 667 c 128,-1,28
 405 703 405 703 341 703 c 0,29,30
 267 703 267 703 233.5 631 c 128,-1,31
 200 559 200 559 195 422 c 1,32,33
 254 470 254 470 332 470 c 0,34,35
 437 470 437 470 483 450.5 c 128,-1,36
 529 431 529 431 555 377 c 0,37,38
 562 361 562 361 565.5 355.5 c 128,-1,39
 569 350 569 350 579 336 c 128,-1,40
 589 322 589 322 604 316 c 128,-1,41
 619 310 619 310 639 310 c 1,42,-1
 639 287 l 1,43,-1
 376 287 l 1,44,-1
 376 310 l 1,45,46
 414 310 414 310 433.5 317 c 128,-1,47
 453 324 453 324 457 332.5 c 128,-1,48
 461 341 461 341 461 357 c 0,49,50
 461 385 461 385 432 414 c 128,-1,51
 403 443 403 443 334 443 c 0,52,53
 256 443 256 443 194 383 c 1,54,-1
 194 358 l 2,55,56
 194 188 194 188 226.5 101 c 128,-1,57
 259 14 259 14 341 14 c 0,58,59
 405 14 405 14 438.5 50 c 128,-1,60
 472 86 472 86 472 128 c 0,61,62
 472 151 472 151 456.5 162 c 128,-1,63
 441 173 441 173 391 173 c 1,64,-1
 391 197 l 1,65,-1
 654 197 l 1,66,-1
 654 173 l 1,67,68
 596 173 596 173 574 128 c 1,0,1
EndSplineSet
Validated: 19457
EndChar

StartChar: afii10035
Encoding: 1057 1057 8
Width: 701
VWidth: 0
Flags: W
HStem: -10 24<267.525 379.344> 259 25<380 439.647 585.967 643> 434 24<380 439.647 586.322 643> 703 25<265.644 380.39>
VStem: 54 128<184.434 532.972>
AnchorPoint: "top" 324 748 basechar 0
LayerCount: 2
Fore
SplineSet
182 358 m 0,0,1
 182 272 182 272 187.5 214.5 c 128,-1,2
 193 157 193 157 207 108.5 c 128,-1,3
 221 60 221 60 249 37 c 128,-1,4
 277 14 277 14 319 14 c 0,5,6
 389 14 389 14 420 59.5 c 128,-1,7
 451 105 451 105 451 195 c 0,8,9
 451 239 451 239 440 249.5 c 128,-1,10
 429 260 429 260 380 260 c 1,11,-1
 380 284 l 1,12,-1
 643 284 l 1,13,-1
 643 260 l 1,14,15
 633 260 633 260 625.5 259.5 c 128,-1,16
 618 259 618 259 611.5 259 c 128,-1,17
 605 259 605 259 601 257 c 128,-1,18
 597 255 597 255 593.5 254 c 128,-1,19
 590 253 590 253 587.5 249 c 128,-1,20
 585 245 585 245 583.5 243 c 128,-1,21
 582 241 582 241 580.5 234.5 c 128,-1,22
 579 228 579 228 578 224.5 c 128,-1,23
 577 221 577 221 575 211 c 128,-1,24
 573 201 573 201 572 195 c 0,25,26
 549 87 549 87 493 38.5 c 128,-1,27
 437 -10 437 -10 317 -10 c 0,28,29
 183 -10 183 -10 118.5 89.5 c 128,-1,30
 54 189 54 189 54 359 c 0,31,32
 54 528 54 528 118.5 628 c 128,-1,33
 183 728 183 728 317 728 c 0,34,35
 438 728 438 728 494.5 679 c 128,-1,36
 551 630 551 630 572 523 c 0,37,38
 581 477 581 477 586 470 c 0,39,40
 596 458 596 458 643 458 c 1,41,-1
 643 434 l 1,42,-1
 380 434 l 1,43,-1
 380 458 l 1,44,45
 429 458 429 458 440 468.5 c 128,-1,46
 451 479 451 479 451 523 c 0,47,48
 451 613 451 613 420 658 c 128,-1,49
 389 703 389 703 319 703 c 0,50,51
 277 703 277 703 249 679.5 c 128,-1,52
 221 656 221 656 207 607.5 c 128,-1,53
 193 559 193 559 187.5 501 c 128,-1,54
 182 443 182 443 182 358 c 0,0,1
EndSplineSet
Validated: 19457
EndChar

StartChar: afii10024
Encoding: 1046 1046 9
Width: 1022
VWidth: 0
Flags: W
HStem: 0 24<50 105.96 254.353 313 375 434.162 578.353 638 699 758.647 906.322 963> 346 25<377.403 445 567 637.048> 693 24<50 106.678 254.353 313 375 433.647 578.353 638 699 758.647 907.04 963>
VStem: 445 122<34.3208 346 371 682.164>
CounterMasks: 1 e0
AnchorPoint: "top" 510 748 basechar 0
LayerCount: 2
Fore
SplineSet
567 346 m 1,0,-1
 567 88 l 2,1,2
 567 44 567 44 578 34 c 128,-1,3
 589 24 589 24 638 24 c 1,4,-1
 638 0 l 1,5,-1
 375 0 l 1,6,-1
 375 24 l 1,7,8
 424 24 424 24 434.5 34 c 128,-1,9
 445 44 445 44 445 88 c 2,10,-1
 445 346 l 1,11,12
 399 346 399 346 362 327 c 128,-1,13
 325 308 325 308 303.5 280 c 128,-1,14
 282 252 282 252 267.5 215.5 c 128,-1,15
 253 179 253 179 248 148 c 128,-1,16
 243 117 243 117 243 89 c 0,17,18
 243 44 243 44 254 34 c 128,-1,19
 265 24 265 24 313 24 c 1,20,-1
 313 0 l 1,21,-1
 50 0 l 1,22,-1
 50 24 l 1,23,24
 60 24 60 24 67.5 24.5 c 128,-1,25
 75 25 75 25 81.5 25 c 128,-1,26
 88 25 88 25 92 27.5 c 128,-1,27
 96 30 96 30 99.5 30 c 128,-1,28
 103 30 103 30 105.5 35 c 128,-1,29
 108 40 108 40 109.5 41 c 128,-1,30
 111 42 111 42 113 49.5 c 128,-1,31
 115 57 115 57 115.5 59.5 c 128,-1,32
 116 62 116 62 118 73 c 128,-1,33
 120 84 120 84 121 89 c 0,34,35
 130 137 130 137 143.5 175 c 128,-1,36
 157 213 157 213 180.5 251 c 128,-1,37
 204 289 204 289 243 316.5 c 128,-1,38
 282 344 282 344 334 358 c 1,39,40
 282 372 282 372 243 399.5 c 128,-1,41
 204 427 204 427 180.5 465.5 c 128,-1,42
 157 504 157 504 143.5 542 c 128,-1,43
 130 580 130 580 121 628 c 0,44,45
 112 674 112 674 107 681 c 0,46,47
 97 693 97 693 50 693 c 1,48,-1
 50 717 l 1,49,-1
 313 717 l 1,50,-1
 313 693 l 1,51,52
 265 693 265 693 254 683 c 128,-1,53
 243 673 243 673 243 628 c 0,54,55
 243 600 243 600 248 569 c 128,-1,56
 253 538 253 538 267.5 501.5 c 128,-1,57
 282 465 282 465 303.5 437 c 128,-1,58
 325 409 325 409 362 390 c 128,-1,59
 399 371 399 371 445 371 c 1,60,-1
 445 628 l 2,61,62
 445 673 445 673 434 683 c 128,-1,63
 423 693 423 693 375 693 c 1,64,-1
 375 717 l 1,65,-1
 638 717 l 1,66,-1
 638 693 l 1,67,68
 589 693 589 693 578 682.5 c 128,-1,69
 567 672 567 672 567 628 c 2,70,-1
 567 371 l 1,71,72
 624 371 624 371 666.5 398.5 c 128,-1,73
 709 426 709 426 730 469 c 128,-1,74
 751 512 751 512 760.5 552 c 128,-1,75
 770 592 770 592 770 628 c 0,76,77
 770 672 770 672 759 682.5 c 128,-1,78
 748 693 748 693 699 693 c 1,79,-1
 699 717 l 1,80,-1
 963 717 l 1,81,-1
 963 693 l 1,82,83
 953 693 953 693 945.5 692.5 c 128,-1,84
 938 692 938 692 931.5 692 c 128,-1,85
 925 692 925 692 921 689.5 c 128,-1,86
 917 687 917 687 913.5 687 c 128,-1,87
 910 687 910 687 907.5 682 c 128,-1,88
 905 677 905 677 903.5 676 c 128,-1,89
 902 675 902 675 900 667.5 c 128,-1,90
 898 660 898 660 897.5 657.5 c 128,-1,91
 897 655 897 655 895 644 c 128,-1,92
 893 633 893 633 892 628 c 0,93,94
 883 580 883 580 869.5 542 c 128,-1,95
 856 504 856 504 832.5 465.5 c 128,-1,96
 809 427 809 427 770 399.5 c 128,-1,97
 731 372 731 372 679 358 c 1,98,99
 731 344 731 344 770 316.5 c 128,-1,100
 809 289 809 289 832.5 251 c 128,-1,101
 856 213 856 213 869.5 175 c 128,-1,102
 883 137 883 137 892 89 c 0,103,104
 901 43 901 43 906 36 c 0,105,106
 916 24 916 24 963 24 c 1,107,-1
 963 0 l 1,108,-1
 699 0 l 1,109,-1
 699 24 l 1,110,111
 748 24 748 24 759 34.5 c 128,-1,112
 770 45 770 45 770 89 c 0,113,114
 770 125 770 125 760.5 165 c 128,-1,115
 751 205 751 205 730 248 c 128,-1,116
 709 291 709 291 666.5 318.5 c 128,-1,117
 624 346 624 346 567 346 c 1,0,-1
EndSplineSet
Validated: 19457
EndChar

StartChar: afii10028
Encoding: 1050 1050 10
Width: 709
VWidth: 0
Flags: W
HStem: 0 24<61 120.647 265.353 325 386 445.647 592.891 649> 346 25<254 327.143> 693 24<61 120.647 265.353 325 386 445.647 592.891 649>
VStem: 132 122<34.3208 346 371 682.164>
CounterMasks: 1 e0
AnchorPoint: "top" 354 748 basechar 0
LayerCount: 2
Fore
SplineSet
132 628 m 2,0,1
 132 672 132 672 121 682.5 c 128,-1,2
 110 693 110 693 61 693 c 1,3,-1
 61 717 l 1,4,-1
 325 717 l 1,5,-1
 325 693 l 1,6,7
 276 693 276 693 265 682.5 c 128,-1,8
 254 672 254 672 254 628 c 2,9,-1
 254 371 l 1,10,-1
 262 371 l 2,11,12
 353 371 353 371 405 451 c 128,-1,13
 457 531 457 531 457 628 c 0,14,15
 457 672 457 672 446 682.5 c 128,-1,16
 435 693 435 693 386 693 c 1,17,-1
 386 717 l 1,18,-1
 649 717 l 1,19,-1
 649 693 l 1,20,21
 639 693 639 693 631.5 692.5 c 128,-1,22
 624 692 624 692 617.5 692 c 128,-1,23
 611 692 611 692 607 690 c 128,-1,24
 603 688 603 688 599.5 687 c 128,-1,25
 596 686 596 686 593.5 682 c 128,-1,26
 591 678 591 678 589.5 676 c 128,-1,27
 588 674 588 674 586.5 667.5 c 128,-1,28
 585 661 585 661 584.5 657.5 c 128,-1,29
 584 654 584 654 582 644 c 128,-1,30
 580 634 580 634 579 628 c 0,31,32
 570 580 570 580 556.5 542 c 128,-1,33
 543 504 543 504 519.5 465.5 c 128,-1,34
 496 427 496 427 457 399.5 c 128,-1,35
 418 372 418 372 366 358 c 1,36,37
 418 344 418 344 457 316.5 c 128,-1,38
 496 289 496 289 519.5 251 c 128,-1,39
 543 213 543 213 556.5 175 c 128,-1,40
 570 137 570 137 579 89 c 0,41,42
 580 83 580 83 582 73 c 128,-1,43
 584 63 584 63 584.5 59.5 c 128,-1,44
 585 56 585 56 586.5 49.5 c 128,-1,45
 588 43 588 43 589.5 41 c 128,-1,46
 591 39 591 39 593.5 35 c 128,-1,47
 596 31 596 31 599.5 30 c 128,-1,48
 603 29 603 29 607 27 c 128,-1,49
 611 25 611 25 617.5 25 c 128,-1,50
 624 25 624 25 631.5 24.5 c 128,-1,51
 639 24 639 24 649 24 c 1,52,-1
 649 0 l 1,53,-1
 386 0 l 1,54,-1
 386 24 l 1,55,56
 435 24 435 24 446 34.5 c 128,-1,57
 457 45 457 45 457 89 c 0,58,59
 457 186 457 186 405 266 c 128,-1,60
 353 346 353 346 262 346 c 2,61,-1
 254 346 l 1,62,-1
 254 88 l 2,63,64
 254 44 254 44 265 34 c 128,-1,65
 276 24 276 24 325 24 c 1,66,-1
 325 0 l 1,67,-1
 61 0 l 1,68,-1
 61 24 l 1,69,70
 110 24 110 24 121 34 c 128,-1,71
 132 44 132 44 132 88 c 2,72,-1
 132 628 l 2,0,1
EndSplineSet
Validated: 19457
EndChar

StartChar: afii10025
Encoding: 1047 1047 11
Width: 655
VWidth: 0
Flags: W
HStem: -10 32<302.475 420.327> 33 90<129 241.5> 352 78<167.526 274.673> 378 28<238.051 365.523> 702 25<273.022 371.83>
VStem: 92 122<500.311 612.689> 431 121<465.899 640.564> 471 122<84.7854 288.169>
AnchorPoint: "top" 328 748 basechar 0
LayerCount: 2
Fore
SplineSet
323 378 m 0,0,1
 273 378 273 378 240 365 c 128,-1,2
 207 352 207 352 200 352 c 0,3,4
 192 352 192 352 173 369 c 128,-1,5
 154 386 154 386 154 393 c 0,6,7
 154 401 154 401 172.5 415.5 c 128,-1,8
 191 430 191 430 203 430 c 0,9,10
 206 430 206 430 216.5 424 c 128,-1,11
 227 418 227 418 250 412 c 128,-1,12
 273 406 273 406 308 406 c 0,13,14
 369 406 369 406 400 451 c 128,-1,15
 431 496 431 496 431 559 c 0,16,17
 431 626 431 626 401.5 664 c 128,-1,18
 372 702 372 702 324 702 c 0,19,20
 267 702 267 702 240.5 656.5 c 128,-1,21
 214 611 214 611 214 512 c 0,22,23
 214 498 214 498 153 498 c 128,-1,24
 92 498 92 498 92 512 c 0,25,26
 92 552 92 552 104.5 589 c 128,-1,27
 117 626 117 626 143 657.5 c 128,-1,28
 169 689 169 689 215.5 708 c 128,-1,29
 262 727 262 727 324 727 c 0,30,31
 439 727 439 727 495.5 682 c 128,-1,32
 552 637 552 637 552 539 c 0,33,34
 552 428 552 428 443 392 c 1,35,36
 521 368 521 368 557 312.5 c 128,-1,37
 593 257 593 257 593 190 c 0,38,39
 593 90 593 90 536.5 40 c 128,-1,40
 480 -10 480 -10 373 -10 c 0,41,42
 326 -10 326 -10 292 11.5 c 128,-1,43
 258 33 258 33 225 33 c 0,44,45
 213 33 213 33 182.5 4 c 128,-1,46
 152 -25 152 -25 137 -25 c 0,47,48
 112 -25 112 -25 84.5 -0.5 c 128,-1,49
 57 24 57 24 57 53 c 0,50,51
 57 65 57 65 87 94 c 128,-1,52
 117 123 117 123 141 123 c 128,-1,53
 165 123 165 123 192.5 107 c 128,-1,54
 220 91 220 91 242.5 72.5 c 128,-1,55
 265 54 265 54 302 38 c 128,-1,56
 339 22 339 22 381 22 c 0,57,58
 418 22 418 22 444.5 69.5 c 128,-1,59
 471 117 471 117 471 193 c 0,60,61
 471 271 471 271 436 324.5 c 128,-1,62
 401 378 401 378 323 378 c 0,0,1
EndSplineSet
Validated: 19457
EndChar

StartChar: afii10046
Encoding: 1068 1068 12
Width: 669
VWidth: 0
Flags: W
HStem: 0 24<61 120.647 265.353 418.647 563.353 623> 693 24<61 120.647 265.353 325>
VStem: 132 122<34.3208 424 452.175 682.164> 430 122<34.3208 356.003>
AnchorPoint: "top" 195 748 basechar 0
LayerCount: 2
Fore
SplineSet
254 475 m 1,0,1
 301 419 301 419 371 398 c 128,-1,2
 441 377 441 377 552 377 c 1,3,-1
 552 88 l 2,4,5
 552 44 552 44 563 34 c 128,-1,6
 574 24 574 24 623 24 c 1,7,-1
 623 0 l 1,8,-1
 61 0 l 1,9,-1
 61 24 l 1,10,11
 110 24 110 24 121 34 c 128,-1,12
 132 44 132 44 132 88 c 2,13,-1
 132 628 l 2,14,15
 132 672 132 672 121 682.5 c 128,-1,16
 110 693 110 693 61 693 c 1,17,-1
 61 717 l 1,18,-1
 325 717 l 1,19,-1
 325 693 l 1,20,21
 276 693 276 693 265 682.5 c 128,-1,22
 254 672 254 672 254 628 c 2,23,-1
 254 475 l 1,0,1
430 353 m 1,24,25
 318 367 318 367 254 424 c 1,26,-1
 254 88 l 2,27,28
 254 44 254 44 265 34 c 128,-1,29
 276 24 276 24 325 24 c 2,30,-1
 359 24 l 2,31,32
 408 24 408 24 419 34 c 128,-1,33
 430 44 430 44 430 88 c 2,34,-1
 430 353 l 1,24,25
EndSplineSet
Validated: 19457
EndChar

StartChar: afii10026
Encoding: 1048 1048 13
Width: 710
VWidth: 0
Flags: W
HStem: 0 24<61 120.647 265.353 325 386 445.647 589.838 649> 693 24<61 120.647 265.353 325 386 445.647 590.353 649>
VStem: 132 122<34.3208 213 264 682.164> 457 122<34.3208 456 505 682.164>
AnchorPoint: "top" 356 748 basechar 0
LayerCount: 2
Fore
SplineSet
579 88 m 2,0,1
 579 44 579 44 589.5 34 c 128,-1,2
 600 24 600 24 649 24 c 1,3,-1
 649 0 l 1,4,-1
 386 0 l 1,5,-1
 386 24 l 1,6,7
 435 24 435 24 446 34 c 128,-1,8
 457 44 457 44 457 88 c 2,9,-1
 457 456 l 1,10,-1
 254 213 l 1,11,-1
 254 88 l 2,12,13
 254 44 254 44 265 34 c 128,-1,14
 276 24 276 24 325 24 c 1,15,-1
 325 0 l 1,16,-1
 61 0 l 1,17,-1
 61 24 l 1,18,19
 110 24 110 24 121 34 c 128,-1,20
 132 44 132 44 132 88 c 2,21,-1
 132 628 l 2,22,23
 132 672 132 672 121 682.5 c 128,-1,24
 110 693 110 693 61 693 c 1,25,-1
 61 717 l 1,26,-1
 325 717 l 1,27,-1
 325 693 l 1,28,29
 276 693 276 693 265 682.5 c 128,-1,30
 254 672 254 672 254 628 c 2,31,-1
 254 264 l 1,32,-1
 457 505 l 1,33,-1
 457 628 l 2,34,35
 457 672 457 672 446 682.5 c 128,-1,36
 435 693 435 693 386 693 c 1,37,-1
 386 717 l 1,38,-1
 649 717 l 1,39,-1
 649 693 l 1,40,41
 601 693 601 693 590 683 c 128,-1,42
 579 673 579 673 579 628 c 2,43,-1
 579 88 l 2,0,1
EndSplineSet
Validated: 19457
EndChar

StartChar: afii10031
Encoding: 1053 1053 14
Width: 710
VWidth: 0
Flags: W
HStem: 0 24<61 120.647 265.353 325 386 445.647 589.838 649> 693 24<61 120.647 265.353 325 386 445.647 590.353 649>
VStem: 132 122<34.3208 461 510 682.164> 457 122<34.3208 218 269 682.164>
AnchorPoint: "top" 354 748 basechar 0
LayerCount: 2
Fore
SplineSet
579 88 m 2,0,1
 579 44 579 44 589.5 34 c 128,-1,2
 600 24 600 24 649 24 c 1,3,-1
 649 0 l 1,4,-1
 386 0 l 1,5,-1
 386 24 l 1,6,7
 435 24 435 24 446 34 c 128,-1,8
 457 44 457 44 457 88 c 2,9,-1
 457 218 l 1,10,-1
 254 461 l 1,11,-1
 254 88 l 2,12,13
 254 44 254 44 265 34 c 128,-1,14
 276 24 276 24 325 24 c 1,15,-1
 325 0 l 1,16,-1
 61 0 l 1,17,-1
 61 24 l 1,18,19
 110 24 110 24 121 34 c 128,-1,20
 132 44 132 44 132 88 c 2,21,-1
 132 628 l 2,22,23
 132 672 132 672 121 682.5 c 128,-1,24
 110 693 110 693 61 693 c 1,25,-1
 61 717 l 1,26,-1
 325 717 l 1,27,-1
 325 693 l 1,28,29
 276 693 276 693 265 682.5 c 128,-1,30
 254 672 254 672 254 628 c 2,31,-1
 254 510 l 1,32,-1
 457 269 l 1,33,-1
 457 628 l 2,34,35
 457 672 457 672 446 682.5 c 128,-1,36
 435 693 435 693 386 693 c 1,37,-1
 386 717 l 1,38,-1
 649 717 l 1,39,-1
 649 693 l 1,40,41
 601 693 601 693 590 683 c 128,-1,42
 579 673 579 673 579 628 c 2,43,-1
 579 88 l 2,0,1
EndSplineSet
Validated: 19457
EndChar

StartChar: afii10033
Encoding: 1055 1055 15
Width: 710
VWidth: 0
Flags: W
HStem: 0 24<61 120.647 265.353 325 386 445.647 589.838 649> 693 24<61 120.647 265.353 445.647 590.353 649>
VStem: 132 122<34.3208 682.164> 457 122<34.3208 682.164>
AnchorPoint: "top" 356 748 basechar 0
LayerCount: 2
Fore
SplineSet
325 693 m 2,0,1
 276 693 276 693 265 682.5 c 128,-1,2
 254 672 254 672 254 628 c 2,3,-1
 254 88 l 2,4,5
 254 44 254 44 265 34 c 128,-1,6
 276 24 276 24 325 24 c 1,7,-1
 325 0 l 1,8,-1
 61 0 l 1,9,-1
 61 24 l 1,10,11
 110 24 110 24 121 34 c 128,-1,12
 132 44 132 44 132 88 c 2,13,-1
 132 628 l 2,14,15
 132 672 132 672 121 682.5 c 128,-1,16
 110 693 110 693 61 693 c 1,17,-1
 61 717 l 1,18,-1
 649 717 l 1,19,-1
 649 693 l 1,20,21
 601 693 601 693 590 683 c 128,-1,22
 579 673 579 673 579 628 c 2,23,-1
 579 88 l 2,24,25
 579 44 579 44 589.5 34 c 128,-1,26
 600 24 600 24 649 24 c 1,27,-1
 649 0 l 1,28,-1
 386 0 l 1,29,-1
 386 24 l 1,30,31
 435 24 435 24 446 34 c 128,-1,32
 457 44 457 44 457 88 c 2,33,-1
 457 628 l 2,34,35
 457 672 457 672 446 682.5 c 128,-1,36
 435 693 435 693 386 693 c 2,37,-1
 325 693 l 2,0,1
EndSplineSet
Validated: 19457
EndChar

StartChar: afii10040
Encoding: 1062 1062 16
Width: 779
VWidth: 0
Flags: W
HStem: 0 24<65 123.647 268.353 448.647> 693 24<65 124.162 268.353 328 389 448.647 592.838 652>
VStem: 135 122<34.8363 682.679> 460 122<34.8363 682.679> 663 24<-158 -95.8438>
AnchorPoint: "top" 359 748 basechar 0
LayerCount: 2
Fore
SplineSet
740 25 m 1,0,-1
 740 0 l 1,1,2
 734 -8 734 -8 725 -22.5 c 128,-1,3
 716 -37 716 -37 701.5 -78.5 c 128,-1,4
 687 -120 687 -120 687 -158 c 1,5,-1
 663 -158 l 1,6,7
 663 -119 663 -119 642.5 -73.5 c 128,-1,8
 622 -28 622 -28 588 0 c 1,9,-1
 65 0 l 1,10,-1
 65 24 l 1,11,12
 113 24 113 24 124 34 c 128,-1,13
 135 44 135 44 135 89 c 2,14,-1
 135 629 l 2,15,16
 135 673 135 673 124.5 683 c 128,-1,17
 114 693 114 693 65 693 c 1,18,-1
 65 717 l 1,19,-1
 328 717 l 1,20,-1
 328 693 l 1,21,22
 279 693 279 693 268 683 c 128,-1,23
 257 673 257 673 257 629 c 2,24,-1
 257 89 l 2,25,26
 257 45 257 45 268 34.5 c 128,-1,27
 279 24 279 24 328 24 c 2,28,-1
 389 24 l 2,29,30
 438 24 438 24 449 34.5 c 128,-1,31
 460 45 460 45 460 89 c 2,32,-1
 460 629 l 2,33,34
 460 673 460 673 449 683 c 128,-1,35
 438 693 438 693 389 693 c 1,36,-1
 389 717 l 1,37,-1
 652 717 l 1,38,-1
 652 693 l 1,39,40
 603 693 603 693 592.5 683 c 128,-1,41
 582 673 582 673 582 629 c 2,42,-1
 582 89 l 2,43,44
 582 44 582 44 593 34 c 128,-1,45
 604 24 604 24 652 24 c 2,46,-1
 740 25 l 1,0,-1
EndSplineSet
Validated: 19457
EndChar

StartChar: afii10042
Encoding: 1064 1064 17
Width: 1035
VWidth: 0
Flags: W
HStem: 0 24<61 120.647 265.353 445.647 590.353 769.647 914.353 974> 693 24<61 120.647 265.353 325 386 445.647 589.838 649 711 770.162 914.353 974>
VStem: 132 122<34.8363 682.679> 457 122<34.8363 682.679> 781 122<34.8363 682.679>
AnchorPoint: "top" 520 748 basechar 0
LayerCount: 2
Fore
SplineSet
711 24 m 2,0,1
 759 24 759 24 770 34 c 128,-1,2
 781 44 781 44 781 89 c 2,3,-1
 781 629 l 2,4,5
 781 673 781 673 770.5 683 c 128,-1,6
 760 693 760 693 711 693 c 1,7,-1
 711 717 l 1,8,-1
 974 717 l 1,9,-1
 974 693 l 1,10,11
 925 693 925 693 914 683 c 128,-1,12
 903 673 903 673 903 629 c 2,13,-1
 903 89 l 2,14,15
 903 45 903 45 914 34.5 c 128,-1,16
 925 24 925 24 974 24 c 1,17,-1
 974 0 l 1,18,-1
 61 0 l 1,19,-1
 61 24 l 1,20,21
 110 24 110 24 121 34.5 c 128,-1,22
 132 45 132 45 132 89 c 2,23,-1
 132 629 l 2,24,25
 132 673 132 673 121 683 c 128,-1,26
 110 693 110 693 61 693 c 1,27,-1
 61 717 l 1,28,-1
 325 717 l 1,29,-1
 325 693 l 1,30,31
 276 693 276 693 265 683 c 128,-1,32
 254 673 254 673 254 629 c 2,33,-1
 254 89 l 2,34,35
 254 45 254 45 265 34.5 c 128,-1,36
 276 24 276 24 325 24 c 2,37,-1
 386 24 l 2,38,39
 435 24 435 24 446 34.5 c 128,-1,40
 457 45 457 45 457 89 c 2,41,-1
 457 629 l 2,42,43
 457 673 457 673 446 683 c 128,-1,44
 435 693 435 693 386 693 c 1,45,-1
 386 717 l 1,46,-1
 649 717 l 1,47,-1
 649 693 l 1,48,49
 600 693 600 693 589.5 683 c 128,-1,50
 579 673 579 673 579 629 c 2,51,-1
 579 89 l 2,52,53
 579 44 579 44 590 34 c 128,-1,54
 601 24 601 24 649 24 c 2,55,-1
 711 24 l 2,0,1
EndSplineSet
Validated: 19457
EndChar

StartChar: afii10043
Encoding: 1065 1065 18
Width: 1041
VWidth: 0
Flags: W
HStem: 0 24<65 123.647 268.353 448.647 593.353 772.647 917.353 977> 693 24<65 124.162 268.353 328 389 448.647 592.838 652 714 773.162 917.353 977>
VStem: 135 122<34.8363 682.679> 460 122<34.8363 682.679> 784 122<34.8363 682.679>
AnchorPoint: "top" 524 748 basechar 0
LayerCount: 2
Fore
SplineSet
714 24 m 2,0,1
 762 24 762 24 773 34 c 128,-1,2
 784 44 784 44 784 89 c 2,3,-1
 784 629 l 2,4,5
 784 673 784 673 773.5 683 c 128,-1,6
 763 693 763 693 714 693 c 1,7,-1
 714 717 l 1,8,-1
 977 717 l 1,9,-1
 977 693 l 1,10,11
 928 693 928 693 917 683 c 128,-1,12
 906 673 906 673 906 629 c 2,13,-1
 906 89 l 2,14,15
 906 45 906 45 917 34.5 c 128,-1,16
 928 24 928 24 977 24 c 1,17,-1
 977 0 l 1,18,-1
 530 0 l 1,19,-1
 607 -77 l 1,20,-1
 521 -164 l 1,21,-1
 434 -77 l 1,22,-1
 512 0 l 1,23,-1
 65 0 l 1,24,-1
 65 24 l 1,25,26
 113 24 113 24 124 34 c 128,-1,27
 135 44 135 44 135 89 c 2,28,-1
 135 629 l 2,29,30
 135 673 135 673 124.5 683 c 128,-1,31
 114 693 114 693 65 693 c 1,32,-1
 65 717 l 1,33,-1
 328 717 l 1,34,-1
 328 693 l 1,35,36
 279 693 279 693 268 683 c 128,-1,37
 257 673 257 673 257 629 c 2,38,-1
 257 89 l 2,39,40
 257 45 257 45 268 34.5 c 128,-1,41
 279 24 279 24 328 24 c 2,42,-1
 389 24 l 2,43,44
 438 24 438 24 449 34.5 c 128,-1,45
 460 45 460 45 460 89 c 2,46,-1
 460 629 l 2,47,48
 460 673 460 673 449 683 c 128,-1,49
 438 693 438 693 389 693 c 1,50,-1
 389 717 l 1,51,-1
 652 717 l 1,52,-1
 652 693 l 1,53,54
 603 693 603 693 592.5 683 c 128,-1,55
 582 673 582 673 582 629 c 2,56,-1
 582 89 l 2,57,58
 582 44 582 44 593 34 c 128,-1,59
 604 24 604 24 652 24 c 2,60,-1
 714 24 l 2,0,1
EndSplineSet
Validated: 19457
EndChar

StartChar: afii10029
Encoding: 1051 1051 20
Width: 709
VWidth: 0
Flags: W
HStem: 0 24<61 120.647 265.353 325 390 445.071 595.322 653> 693 24<311 369.163 519.383 574>
VStem: 132 122<34.3208 285.526>
AnchorPoint: "top" 436 748 basechar 0
LayerCount: 2
Fore
SplineSet
579 88 m 2,0,1
 585 43 585 43 595 33.5 c 128,-1,2
 605 24 605 24 653 24 c 1,3,-1
 653 0 l 1,4,-1
 390 0 l 1,5,-1
 390 24 l 1,6,7
 432 24 432 24 445.5 30 c 128,-1,8
 459 36 459 36 459 60 c 0,9,10
 459 77 459 77 457 88 c 2,11,-1
 395 555 l 1,12,13
 374 533 374 533 353.5 500.5 c 128,-1,14
 333 468 333 468 308.5 412.5 c 128,-1,15
 284 357 284 357 269 272.5 c 128,-1,16
 254 188 254 188 254 88 c 0,17,18
 254 44 254 44 265 34 c 128,-1,19
 276 24 276 24 325 24 c 1,20,-1
 325 0 l 1,21,-1
 61 0 l 1,22,-1
 61 24 l 1,23,24
 110 24 110 24 121 34 c 128,-1,25
 132 44 132 44 132 88 c 0,26,27
 132 175 132 175 138 223 c 128,-1,28
 144 271 144 271 172.5 330 c 128,-1,29
 201 389 201 389 249 445 c 128,-1,30
 297 501 297 501 390 595 c 1,31,-1
 386 628 l 2,32,33
 380 673 380 673 369.5 683 c 128,-1,34
 359 693 359 693 311 693 c 1,35,-1
 311 717 l 1,36,-1
 574 717 l 1,37,-1
 574 693 l 1,38,39
 531 693 531 693 519 686 c 128,-1,40
 507 679 507 679 507 651 c 0,41,42
 507 637 507 637 508 628 c 2,43,-1
 579 88 l 2,0,1
EndSplineSet
Validated: 19457
EndChar

StartChar: afii10030
Encoding: 1052 1052 21
Width: 999
VWidth: 0
Flags: W
HStem: 0 24<35 94.1625 238.353 298 364 418.071 568.837 627 692 747.071 897.322 955> 693 24<285 342.163 492.898 548 613 671.163 821.898 877>
VStem: 105 122<34.3208 284.263>
AnchorPoint: "top" 578 748 basechar 0
LayerCount: 2
Fore
SplineSet
552 88 m 2,0,1
 558 43 558 43 568.5 33.5 c 128,-1,2
 579 24 579 24 627 24 c 1,3,-1
 627 0 l 1,4,-1
 364 0 l 1,5,-1
 364 24 l 1,6,7
 405 24 405 24 418.5 30 c 128,-1,8
 432 36 432 36 432 60 c 0,9,10
 432 77 432 77 430 88 c 2,11,-1
 369 555 l 1,12,13
 348 533 348 533 327.5 500.5 c 128,-1,14
 307 468 307 468 282 412.5 c 128,-1,15
 257 357 257 357 242 272.5 c 128,-1,16
 227 188 227 188 227 88 c 0,17,18
 227 44 227 44 238 34 c 128,-1,19
 249 24 249 24 298 24 c 1,20,-1
 298 0 l 1,21,-1
 35 0 l 1,22,-1
 35 24 l 1,23,24
 84 24 84 24 94.5 34 c 128,-1,25
 105 44 105 44 105 88 c 0,26,27
 105 202 105 202 121 264.5 c 128,-1,28
 137 327 137 327 189 399 c 128,-1,29
 241 471 241 471 364 595 c 1,30,-1
 359 628 l 2,31,32
 353 674 353 674 342.5 683.5 c 128,-1,33
 332 693 332 693 285 693 c 1,34,-1
 285 717 l 1,35,-1
 548 717 l 1,36,-1
 548 693 l 1,37,38
 505 693 505 693 492.5 686 c 128,-1,39
 480 679 480 679 480 651 c 0,40,41
 480 637 480 637 481 628 c 2,42,-1
 515 369 l 1,43,44
 571 485 571 485 694 583 c 1,45,-1
 688 628 l 2,46,47
 682 673 682 673 671.5 683 c 128,-1,48
 661 693 661 693 613 693 c 1,49,-1
 613 717 l 1,50,-1
 877 717 l 1,51,-1
 877 693 l 1,52,53
 834 693 834 693 821.5 686 c 128,-1,54
 809 679 809 679 809 651 c 0,55,56
 809 637 809 637 810 628 c 2,57,-1
 881 88 l 2,58,59
 887 43 887 43 897 33.5 c 128,-1,60
 907 24 907 24 955 24 c 1,61,-1
 955 0 l 1,62,-1
 692 0 l 1,63,-1
 692 24 l 1,64,65
 734 24 734 24 747.5 30 c 128,-1,66
 761 36 761 36 761 60 c 0,67,68
 761 77 761 77 759 88 c 2,69,-1
 699 542 l 1,70,71
 574 432 574 432 530 251 c 1,72,-1
 552 88 l 2,0,1
EndSplineSet
Validated: 19457
EndChar

StartChar: afii10032
Encoding: 1054 1054 22
Width: 633
VWidth: 0
Flags: W
HStem: -10 24<265.289 368.886> 703 25<264.152 369.885>
VStem: 51 128<186.656 531.344> 455 128<185.84 530.803>
AnchorPoint: "top" 322 748 basechar 0
LayerCount: 2
Fore
SplineSet
317 703 m 0,0,1
 274 703 274 703 246 679.5 c 128,-1,2
 218 656 218 656 204 607.5 c 128,-1,3
 190 559 190 559 184.5 501 c 128,-1,4
 179 443 179 443 179 358 c 0,5,6
 179 290 179 290 182 241 c 128,-1,7
 185 192 185 192 194 147 c 128,-1,8
 203 102 203 102 218 74 c 128,-1,9
 233 46 233 46 258 30 c 128,-1,10
 283 14 283 14 317 14 c 0,11,12
 359 14 359 14 387 37.5 c 128,-1,13
 415 61 415 61 429.5 109.5 c 128,-1,14
 444 158 444 158 449.5 216 c 128,-1,15
 455 274 455 274 455 359 c 128,-1,16
 455 444 455 444 449.5 502.5 c 128,-1,17
 444 561 444 561 429.5 609 c 128,-1,18
 415 657 415 657 387 680 c 128,-1,19
 359 703 359 703 317 703 c 0,0,1
317 728 m 128,-1,21
 451 728 451 728 517 627.5 c 128,-1,22
 583 527 583 527 583 358 c 128,-1,23
 583 189 583 189 517 89.5 c 128,-1,24
 451 -10 451 -10 317 -10 c 128,-1,25
 183 -10 183 -10 117 90 c 128,-1,26
 51 190 51 190 51 359 c 128,-1,27
 51 528 51 528 117 628 c 128,-1,20
 183 728 183 728 317 728 c 128,-1,21
EndSplineSet
Validated: 19457
EndChar

StartChar: afii10034
Encoding: 1056 1056 23
Width: 591
VWidth: 0
Flags: W
HStem: 0 24<61 120.647 265.353 325> 323 24<300.113 380.891> 702 25<303.954 385.06>
VStem: 132 122<34.3208 336 385.155 597.02> 429 122<415.186 644.507>
AnchorPoint: "top" 346 748 basechar 0
LayerCount: 2
Fore
SplineSet
254 336 m 1,0,-1
 254 88 l 2,1,2
 254 44 254 44 265 34 c 128,-1,3
 276 24 276 24 325 24 c 1,4,-1
 325 0 l 1,5,-1
 61 0 l 1,6,-1
 61 24 l 1,7,8
 110 24 110 24 121 34 c 128,-1,9
 132 44 132 44 132 88 c 2,10,-1
 132 452 l 2,11,12
 132 727 132 727 344 727 c 0,13,14
 457 727 457 727 504 679.5 c 128,-1,15
 551 632 551 632 551 532 c 0,16,17
 551 430 551 430 503.5 376.5 c 128,-1,18
 456 323 456 323 344 323 c 0,19,20
 293 323 293 323 254 336 c 1,0,-1
254 525 m 0,21,22
 254 431 254 431 274.5 389 c 128,-1,23
 295 347 295 347 344 347 c 0,24,25
 429 347 429 347 429 532 c 0,26,27
 429 623 429 623 408.5 662.5 c 128,-1,28
 388 702 388 702 344 702 c 0,29,30
 301 702 301 702 277.5 664 c 128,-1,31
 254 626 254 626 254 525 c 0,21,22
EndSplineSet
Validated: 19457
EndChar

StartChar: afii10036
Encoding: 1058 1058 24
Width: 658
VWidth: 0
Flags: W
HStem: 0 24<198 257.162 401.353 461> 692 25<171.691 256.647 401.353 487.309>
VStem: 94 25<535 606.337> 268 122<34.3208 681.164> 540 24<535 604.18>
AnchorPoint: "top" 331 748 basechar 0
LayerCount: 2
Fore
SplineSet
461 0 m 1,0,-1
 198 0 l 1,1,-1
 198 24 l 1,2,3
 247 24 247 24 257.5 34 c 128,-1,4
 268 44 268 44 268 88 c 2,5,-1
 268 627 l 2,6,7
 268 672 268 672 257 682 c 128,-1,8
 246 692 246 692 198 692 c 0,9,10
 169 692 169 692 144 638 c 128,-1,11
 119 584 119 584 119 535 c 1,12,-1
 94 535 l 1,13,14
 94 573 94 573 81 612.5 c 128,-1,15
 68 652 68 652 54 672 c 2,16,-1
 41 692 l 1,17,-1
 41 717 l 1,18,-1
 617 717 l 1,19,-1
 617 692 l 1,20,21
 611 684 611 684 602 670 c 128,-1,22
 593 656 593 656 578.5 614.5 c 128,-1,23
 564 573 564 573 564 535 c 1,24,-1
 540 535 l 1,25,26
 540 584 540 584 515 638 c 128,-1,27
 490 692 490 692 461 692 c 0,28,29
 412 692 412 692 401 681.5 c 128,-1,30
 390 671 390 671 390 627 c 2,31,-1
 390 88 l 2,32,33
 390 44 390 44 401 34 c 128,-1,34
 412 24 412 24 461 24 c 1,35,-1
 461 0 l 1,0,-1
EndSplineSet
Validated: 19457
EndChar

StartChar: afii10041
Encoding: 1063 1063 25
Width: 641
VWidth: 0
Flags: W
HStem: 0 24<316 375.647 520.353 580> 360 25<267.085 387> 693 24<7 66.647 211.353 270 316 375.647 520.353 580>
VStem: 78 122<439.851 682.164> 387 122<34.3208 360 385 682.164>
AnchorPoint: "top" 293 748 basechar 0
LayerCount: 2
Fore
SplineSet
509 88 m 2,0,1
 509 44 509 44 520 34 c 128,-1,2
 531 24 531 24 580 24 c 1,3,-1
 580 0 l 1,4,-1
 316 0 l 1,5,-1
 316 24 l 1,6,7
 365 24 365 24 376 34 c 128,-1,8
 387 44 387 44 387 88 c 2,9,-1
 387 360 l 1,10,11
 310 360 310 360 265.5 362.5 c 128,-1,12
 221 365 221 365 182 376 c 128,-1,13
 143 387 143 387 126 401.5 c 128,-1,14
 109 416 109 416 96 450 c 128,-1,15
 83 484 83 484 80.5 522.5 c 128,-1,16
 78 561 78 561 78 628 c 0,17,18
 78 672 78 672 67 682.5 c 128,-1,19
 56 693 56 693 7 693 c 1,20,-1
 7 717 l 1,21,-1
 270 717 l 1,22,-1
 270 693 l 1,23,24
 222 693 222 693 211 683 c 128,-1,25
 200 673 200 673 200 628 c 0,26,27
 200 567 200 567 201.5 533 c 128,-1,28
 203 499 203 499 210.5 468 c 128,-1,29
 218 437 218 437 228.5 423.5 c 128,-1,30
 239 410 239 410 262 399.5 c 128,-1,31
 285 389 285 389 312.5 387 c 128,-1,32
 340 385 340 385 387 385 c 1,33,-1
 387 628 l 2,34,35
 387 672 387 672 376 682.5 c 128,-1,36
 365 693 365 693 316 693 c 1,37,-1
 316 717 l 1,38,-1
 580 717 l 1,39,-1
 580 693 l 1,40,41
 531 693 531 693 520 682.5 c 128,-1,42
 509 672 509 672 509 628 c 2,43,-1
 509 88 l 2,0,1
EndSplineSet
Validated: 19457
EndChar

StartChar: afii10037
Encoding: 1059 1059 26
Width: 620
VWidth: 0
Flags: W
HStem: -12 122<130.967 243.658> 595 122<434.833 550.033> 693 24<-10 55.9147 203.488 253>
AnchorPoint: "top" 334 748 basechar 0
LayerCount: 2
Fore
SplineSet
279 39 m 2,0,1
 271 8 271 8 244.5 -2 c 128,-1,2
 218 -12 218 -12 135 -12 c 0,3,4
 121 -12 121 -12 121 0 c 0,5,6
 121 20 121 20 127 65 c 128,-1,7
 133 110 133 110 141 110 c 2,8,-1
 226 110 l 2,9,10
 258 110 258 110 268 114.5 c 128,-1,11
 278 119 278 119 282 137 c 2,12,-1
 298 200 l 1,13,-1
 95 628 l 2,14,15
 75 669 75 669 56.5 681 c 128,-1,16
 38 693 38 693 -10 693 c 1,17,-1
 -10 717 l 1,18,-1
 253 717 l 1,19,-1
 253 693 l 1,20,21
 201 693 201 693 201 674 c 0,22,23
 201 663 201 663 217 628 c 2,24,-1
 341 367 l 1,25,-1
 425 694 l 2,26,27
 427 703 427 703 432.5 707 c 128,-1,28
 438 711 438 711 465 714 c 128,-1,29
 492 717 492 717 546 717 c 0,30,31
 560 717 560 717 560 705 c 0,32,33
 560 685 560 685 554 640 c 128,-1,34
 548 595 548 595 540 595 c 2,35,-1
 475 595 l 2,36,37
 445 595 445 595 434.5 589 c 128,-1,38
 424 583 424 583 420 567 c 2,39,-1
 279 39 l 2,0,1
EndSplineSet
Validated: 19457
EndChar

StartChar: afii10038
Encoding: 1060 1060 27
Width: 744
VWidth: 0
Flags: W
HStem: 0 24<239 298.162 442.353 502> 134 28<261.849 309 431 475.461> 556 28<261.849 309 431 478.638> 693 24<239 297.647 442.353 502>
VStem: 53 128<257.381 460.839> 309 122<34.3208 134 162 556 584 682.164> 559 128<254.985 460.206>
CounterMasks: 1 0e
AnchorPoint: "top" 372 748 basechar 0
LayerCount: 2
Fore
SplineSet
431 88 m 2,0,1
 431 44 431 44 442 34 c 128,-1,2
 453 24 453 24 502 24 c 1,3,-1
 502 0 l 1,4,-1
 239 0 l 1,5,-1
 239 24 l 1,6,7
 288 24 288 24 298.5 34 c 128,-1,8
 309 44 309 44 309 88 c 2,9,-1
 309 134 l 1,10,11
 186 140 186 140 119.5 199.5 c 128,-1,12
 53 259 53 259 53 359 c 128,-1,13
 53 459 53 459 119.5 518.5 c 128,-1,14
 186 578 186 578 309 584 c 1,15,-1
 309 628 l 2,16,17
 309 673 309 673 298 683 c 128,-1,18
 287 693 287 693 239 693 c 1,19,-1
 239 717 l 1,20,-1
 502 717 l 1,21,-1
 502 693 l 1,22,23
 453 693 453 693 442 682.5 c 128,-1,24
 431 672 431 672 431 628 c 2,25,-1
 431 584 l 1,26,27
 554 578 554 578 620.5 518.5 c 128,-1,28
 687 459 687 459 687 358 c 128,-1,29
 687 257 687 257 621 198.5 c 128,-1,30
 555 140 555 140 431 134 c 1,31,-1
 431 88 l 2,0,1
431 557 m 1,32,-1
 431 162 l 1,33,34
 493 171 493 171 526 214 c 128,-1,35
 559 257 559 257 559 359 c 128,-1,36
 559 461 559 461 526 504.5 c 128,-1,37
 493 548 493 548 431 557 c 1,32,-1
309 162 m 1,38,-1
 309 556 l 1,39,40
 247 547 247 547 214 503.5 c 128,-1,41
 181 460 181 460 181 358 c 128,-1,42
 181 256 181 256 214 213.5 c 128,-1,43
 247 171 247 171 309 162 c 1,38,-1
EndSplineSet
Validated: 19457
EndChar

StartChar: afii10039
Encoding: 1061 1061 28
Width: 673
VWidth: 0
Flags: W
HStem: 0 24<38 129.688 218.506 273 371 424.051 567.539 634> 595 122<494.191 594.033> 693 24<46 112.399 259.488 309>
AnchorPoint: "top" 377 748 basechar 0
LayerCount: 2
Fore
SplineSet
529 88 m 2,0,1
 550 44 550 44 567 34 c 128,-1,2
 584 24 584 24 634 24 c 1,3,-1
 634 0 l 1,4,-1
 371 0 l 1,5,-1
 371 24 l 1,6,7
 401 24 401 24 413 27.5 c 128,-1,8
 425 31 425 31 425 41 c 0,9,10
 425 49 425 49 408 88 c 1,11,-1
 314 284 l 1,12,-1
 217 93 l 2,13,14
 202 65 202 65 202 49 c 0,15,16
 202 34 202 34 218 29 c 128,-1,17
 234 24 234 24 273 24 c 1,18,-1
 273 0 l 1,19,-1
 38 0 l 1,20,-1
 38 24 l 1,21,22
 88 24 88 24 111 29.5 c 128,-1,23
 134 35 134 35 146.5 47.5 c 128,-1,24
 159 60 159 60 176 93 c 2,25,-1
 295 326 l 1,26,-1
 152 628 l 2,27,28
 132 669 132 669 113 681 c 128,-1,29
 94 693 94 693 46 693 c 1,30,-1
 46 717 l 1,31,-1
 309 717 l 1,32,-1
 309 693 l 1,33,34
 257 693 257 693 257 674 c 0,35,36
 257 663 257 663 273 628 c 2,37,-1
 358 450 l 1,38,-1
 483 694 l 2,39,40
 488 704 488 704 494 708 c 128,-1,41
 500 712 500 712 522 714.5 c 128,-1,42
 544 717 544 717 590 717 c 0,43,44
 604 717 604 717 604 705 c 0,45,46
 604 685 604 685 598 640 c 128,-1,47
 592 595 592 595 584 595 c 2,48,-1
 542 595 l 2,49,50
 474 595 474 595 462 572 c 2,51,-1
 378 408 l 1,52,-1
 529 88 l 2,0,1
EndSplineSet
Validated: 19457
EndChar

StartChar: afii10044
Encoding: 1066 1066 29
Width: 789
VWidth: 0
Flags: W
HStem: 0 24<181 240.647 384.838 538.647 682.838 742> 692 25<148.019 240.647 385.353 444>
VStem: 55 25<535 596.515> 252 122<34.3208 424 452.175 681.164> 550 122<34.3208 356.003>
AnchorPoint: "top" 315 748 basechar 0
LayerCount: 2
Fore
SplineSet
444 717 m 1,0,-1
 444 692 l 1,1,2
 396 692 396 692 385 682 c 128,-1,3
 374 672 374 672 374 627 c 2,4,-1
 374 475 l 1,5,6
 421 419 421 419 491 398 c 128,-1,7
 561 377 561 377 672 377 c 1,8,-1
 672 88 l 2,9,10
 672 44 672 44 682.5 34 c 128,-1,11
 693 24 693 24 742 24 c 1,12,-1
 742 0 l 1,13,-1
 181 0 l 1,14,-1
 181 24 l 1,15,16
 230 24 230 24 241 34 c 128,-1,17
 252 44 252 44 252 88 c 2,18,-1
 252 627 l 2,19,20
 252 671 252 671 241 681.5 c 128,-1,21
 230 692 230 692 181 692 c 0,22,23
 145 692 145 692 112.5 638 c 128,-1,24
 80 584 80 584 80 535 c 1,25,-1
 55 535 l 1,26,27
 55 573 55 573 41.5 612.5 c 128,-1,28
 28 652 28 652 15 672 c 2,29,-1
 2 692 l 1,30,-1
 2 717 l 1,31,-1
 444 717 l 1,0,-1
444 24 m 2,32,-1
 479 24 l 2,33,34
 528 24 528 24 539 34 c 128,-1,35
 550 44 550 44 550 88 c 2,36,-1
 550 353 l 1,37,38
 438 367 438 367 374 424 c 1,39,-1
 374 88 l 2,40,41
 374 44 374 44 384.5 34 c 128,-1,42
 395 24 395 24 444 24 c 2,32,-1
EndSplineSet
Validated: 19457
EndChar

StartChar: afii10048
Encoding: 1070 1070 30
Width: 960
VWidth: 0
Flags: W
HStem: -10 24<592.654 695.876> 0 24<61 120.647 265.353 325> 346 25<254 378> 693 24<61 120.647 265.353 325> 703 25<589.672 696.874>
VStem: 132 122<34.3208 346 371 682.164> 378 128<184.223 346 371 532.874> 781 128<184.975 531.789>
AnchorPoint: "top" 422 748 basechar 0
LayerCount: 2
Fore
SplineSet
254 88 m 2,0,1
 254 44 254 44 265 34 c 128,-1,2
 276 24 276 24 325 24 c 1,3,-1
 325 0 l 1,4,-1
 61 0 l 1,5,-1
 61 24 l 1,6,7
 110 24 110 24 121 34 c 128,-1,8
 132 44 132 44 132 88 c 2,9,-1
 132 628 l 2,10,11
 132 672 132 672 121 682.5 c 128,-1,12
 110 693 110 693 61 693 c 1,13,-1
 61 717 l 1,14,-1
 325 717 l 1,15,-1
 325 693 l 1,16,17
 276 693 276 693 265 682.5 c 128,-1,18
 254 672 254 672 254 628 c 2,19,-1
 254 371 l 1,20,-1
 378 371 l 1,21,22
 380 535 380 535 446 631.5 c 128,-1,23
 512 728 512 728 644 728 c 0,24,25
 778 728 778 728 843.5 628 c 128,-1,26
 909 528 909 528 909 358 c 0,27,28
 909 189 909 189 843.5 89.5 c 128,-1,29
 778 -10 778 -10 644 -10 c 0,30,31
 512 -10 512 -10 446 86.5 c 128,-1,32
 380 183 380 183 378 346 c 1,33,-1
 254 346 l 1,34,-1
 254 88 l 2,0,1
644 703 m 0,35,36
 601 703 601 703 573 679.5 c 128,-1,37
 545 656 545 656 531 607.5 c 128,-1,38
 517 559 517 559 511.5 501 c 128,-1,39
 506 443 506 443 506 358 c 0,40,41
 506 290 506 290 509 241 c 128,-1,42
 512 192 512 192 521 147 c 128,-1,43
 530 102 530 102 545 74 c 128,-1,44
 560 46 560 46 585 30 c 128,-1,45
 610 14 610 14 644 14 c 0,46,47
 686 14 686 14 714 37.5 c 128,-1,48
 742 61 742 61 756 109.5 c 128,-1,49
 770 158 770 158 775.5 216 c 128,-1,50
 781 274 781 274 781 359 c 0,51,52
 781 445 781 445 775.5 502.5 c 128,-1,53
 770 560 770 560 756 608.5 c 128,-1,54
 742 657 742 657 714 680 c 128,-1,55
 686 703 686 703 644 703 c 0,35,36
EndSplineSet
Validated: 19457
EndChar

StartChar: afii10049
Encoding: 1071 1071 31
Width: 698
VWidth: 0
Flags: W
HStem: 0 24<47 102.96 251.353 310 374 433.162 577.353 637> 346 25<380.847 441> 693 24<76 135.162 279.353 433.162 577.353 637>
VStem: 146 122<483.185 682.679> 444 122<34.3208 346 417 682.679>
CounterMasks: 1 e0
AnchorPoint: "top" 358 748 basechar 0
LayerCount: 2
Fore
SplineSet
374 0 m 1,0,-1
 374 24 l 1,1,2
 423 24 423 24 433.5 34 c 128,-1,3
 444 44 444 44 444 88 c 2,4,-1
 444 346 l 1,5,6
 353 345 353 345 296.5 264 c 128,-1,7
 240 183 240 183 240 89 c 0,8,9
 240 44 240 44 251 34 c 128,-1,10
 262 24 262 24 310 24 c 1,11,-1
 310 0 l 1,12,-1
 47 0 l 1,13,-1
 47 24 l 1,14,15
 57 24 57 24 64.5 24.5 c 128,-1,16
 72 25 72 25 78.5 25 c 128,-1,17
 85 25 85 25 89 27.5 c 128,-1,18
 93 30 93 30 96.5 30 c 128,-1,19
 100 30 100 30 102.5 35 c 128,-1,20
 105 40 105 40 106.5 41 c 128,-1,21
 108 42 108 42 110 49.5 c 128,-1,22
 112 57 112 57 112.5 59.5 c 128,-1,23
 113 62 113 62 115 73 c 128,-1,24
 117 84 117 84 118 89 c 0,25,26
 129 146 129 146 148.5 191 c 128,-1,27
 168 236 168 236 203.5 279 c 128,-1,28
 239 322 239 322 299.5 346 c 128,-1,29
 360 370 360 370 441 371 c 1,30,31
 391 424 391 424 323.5 443 c 128,-1,32
 256 462 256 462 146 462 c 1,33,-1
 146 629 l 2,34,35
 146 673 146 673 135.5 683 c 128,-1,36
 125 693 125 693 76 693 c 1,37,-1
 76 717 l 1,38,-1
 637 717 l 1,39,-1
 637 693 l 1,40,41
 588 693 588 693 577 683 c 128,-1,42
 566 673 566 673 566 629 c 2,43,-1
 566 88 l 2,44,45
 566 44 566 44 577 34 c 128,-1,46
 588 24 588 24 637 24 c 1,47,-1
 637 0 l 1,48,-1
 374 0 l 1,0,-1
444 417 m 1,49,-1
 444 629 l 2,50,51
 444 673 444 673 433.5 683 c 128,-1,52
 423 693 423 693 374 693 c 2,53,-1
 339 693 l 2,54,55
 290 693 290 693 279 683 c 128,-1,56
 268 673 268 673 268 629 c 2,57,-1
 268 486 l 1,58,59
 377 473 377 473 444 417 c 1,49,-1
EndSplineSet
Validated: 19457
EndChar

StartChar: afii10054
Encoding: 1029 1029 32
Width: 646
VWidth: 0
Flags: W
HStem: -10 32<294.475 418.327> 33 90<121 233.5> 339 28<271.012 378.856> 702 25<277.048 368.978>
VStem: 90 121<418.064 621.525> 428 122<500.311 612.689> 463 122<84.6828 269.43>
AnchorPoint: "top" 318 748 basechar 0
LayerCount: 2
Fore
SplineSet
217 33 m 0,0,1
 205 33 205 33 174.5 4 c 128,-1,2
 144 -25 144 -25 129 -25 c 0,3,4
 104 -25 104 -25 76.5 -0.5 c 128,-1,5
 49 24 49 24 49 53 c 0,6,7
 49 65 49 65 79 94 c 128,-1,8
 109 123 109 123 133 123 c 128,-1,9
 157 123 157 123 184.5 107 c 128,-1,10
 212 91 212 91 234.5 72.5 c 128,-1,11
 257 54 257 54 294 38 c 128,-1,12
 331 22 331 22 373 22 c 0,13,14
 412 22 412 22 437.5 57.5 c 128,-1,15
 463 93 463 93 463 166 c 0,16,17
 463 339 463 339 303 339 c 0,18,19
 239 339 239 339 195 352.5 c 128,-1,20
 151 366 151 366 129 392 c 128,-1,21
 107 418 107 418 98.5 447 c 128,-1,22
 90 476 90 476 90 515 c 0,23,24
 90 616 90 616 148.5 671.5 c 128,-1,25
 207 727 207 727 318 727 c 0,26,27
 380 727 380 727 426.5 708 c 128,-1,28
 473 689 473 689 499 657.5 c 128,-1,29
 525 626 525 626 537.5 589 c 128,-1,30
 550 552 550 552 550 512 c 0,31,32
 550 498 550 498 489 498 c 128,-1,33
 428 498 428 498 428 512 c 0,34,35
 428 611 428 611 401.5 656.5 c 128,-1,36
 375 702 375 702 318 702 c 0,37,38
 272 702 272 702 241.5 654 c 128,-1,39
 211 606 211 606 211 536 c 0,40,41
 211 502 211 502 215 476.5 c 128,-1,42
 219 451 219 451 230.5 424 c 128,-1,43
 242 397 242 397 268.5 382 c 128,-1,44
 295 367 295 367 334 367 c 0,45,46
 585 367 585 367 585 190 c 0,47,48
 585 90 585 90 528.5 40 c 128,-1,49
 472 -10 472 -10 365 -10 c 0,50,51
 318 -10 318 -10 284 11.5 c 128,-1,52
 250 33 250 33 217 33 c 0,0,1
EndSplineSet
Validated: 19457
EndChar

StartChar: uni0460
Encoding: 1120 1120 33
Width: 1005
VWidth: 0
Flags: W
HStem: -14 21G<318.5 332 643 665> 693 24<27 85.6472 230.353 290 349 408.647 553.353 612 732 787.961 889.369 945>
VStem: 97 122<305.532 682.164> 420 122<304.464 682.164> 815 48<349.123 674.947>
AnchorPoint: "top" 481 748 basechar 0
LayerCount: 2
Fore
SplineSet
420 628 m 2,0,1
 420 672 420 672 409 682.5 c 128,-1,2
 398 693 398 693 349 693 c 1,3,-1
 349 717 l 1,4,-1
 612 717 l 1,5,-1
 612 693 l 1,6,7
 564 693 564 693 553 683 c 128,-1,8
 542 673 542 673 542 628 c 2,9,-1
 542 479 l 2,10,11
 542 334 542 334 587 228 c 128,-1,12
 632 122 632 122 681 72 c 1,13,14
 732 139 732 139 773.5 239.5 c 128,-1,15
 815 340 815 340 815 463 c 2,16,-1
 815 614 l 2,17,18
 815 658 815 658 796 675.5 c 128,-1,19
 777 693 777 693 732 693 c 1,20,-1
 732 717 l 1,21,-1
 945 717 l 1,22,-1
 945 693 l 1,23,24
 900 693 900 693 881.5 675.5 c 128,-1,25
 863 658 863 658 863 614 c 2,26,-1
 863 535 l 2,27,28
 863 438 863 438 840.5 346 c 128,-1,29
 818 254 818 254 786 191.5 c 128,-1,30
 754 129 754 129 722 80.5 c 128,-1,31
 690 32 690 32 668 9 c 2,32,-1
 645 -14 l 1,33,34
 641 -11 641 -11 633.5 -5.5 c 128,-1,35
 626 0 626 0 604.5 21 c 128,-1,36
 583 42 583 42 563 65.5 c 128,-1,37
 543 89 543 89 518 128 c 128,-1,38
 493 167 493 167 474 210 c 1,39,40
 456 167 456 167 433.5 128 c 128,-1,41
 411 89 411 89 392.5 64 c 128,-1,42
 374 39 374 39 357.5 20.5 c 128,-1,43
 341 2 341 2 332 -6 c 2,44,-1
 323 -14 l 1,45,46
 314 -8 314 -8 298.5 5 c 128,-1,47
 283 18 283 18 244 63 c 128,-1,48
 205 108 205 108 175.5 160 c 128,-1,49
 146 212 146 212 121.5 297.5 c 128,-1,50
 97 383 97 383 97 476 c 2,51,-1
 97 628 l 2,52,53
 97 673 97 673 86 683 c 128,-1,54
 75 693 75 693 27 693 c 1,55,-1
 27 717 l 1,56,-1
 290 717 l 1,57,-1
 290 693 l 1,58,59
 241 693 241 693 230 682.5 c 128,-1,60
 219 672 219 672 219 628 c 2,61,-1
 219 479 l 2,62,63
 219 334 219 334 264 228 c 128,-1,64
 309 122 309 122 358 72 c 1,65,66
 421 155 421 155 457 255 c 1,67,68
 420 359 420 359 420 476 c 2,69,-1
 420 628 l 2,0,1
EndSplineSet
Validated: 19457
EndChar

StartChar: uni047A
Encoding: 1146 1146 34
Width: 716
VWidth: 0
Flags: W
HStem: -74 148<320.44 392.561> 643 148<320.44 396.045>
VStem: 51 128<188.201 530.566> 538 128<186.913 530.372>
AnchorPoint: "top" 358 823 basechar 0
LayerCount: 2
Fore
SplineSet
304 -7 m 1,0,1
 51 25 51 25 51 359 c 128,-1,2
 51 693 51 693 304 725 c 1,3,4
 306 754 306 754 320 772.5 c 128,-1,5
 334 791 334 791 358 791 c 128,-1,6
 382 791 382 791 396.5 772.5 c 128,-1,7
 411 754 411 754 413 725 c 1,8,9
 666 693 666 693 666 358 c 0,10,11
 666 25 666 25 413 -7 c 1,12,13
 411 -36 411 -36 396.5 -55 c 128,-1,14
 382 -74 382 -74 358 -74 c 128,-1,15
 334 -74 334 -74 320 -55.5 c 128,-1,16
 306 -37 306 -37 304 -7 c 1,0,1
411 22 m 1,17,18
 485 43 485 43 511.5 125.5 c 128,-1,19
 538 208 538 208 538 359 c 0,20,21
 538 509 538 509 511 592.5 c 128,-1,22
 484 676 484 676 411 697 c 1,23,24
 407 673 407 673 393 658 c 128,-1,25
 379 643 379 643 358 643 c 0,26,27
 315 643 315 643 306 697 c 1,28,29
 232 676 232 676 205.5 592.5 c 128,-1,30
 179 509 179 509 179 358 c 128,-1,31
 179 207 179 207 205.5 124 c 128,-1,32
 232 41 232 41 306 20 c 1,33,34
 315 74 315 74 358 74 c 0,35,36
 379 74 379 74 393 60 c 128,-1,37
 407 46 407 46 411 22 c 1,17,18
EndSplineSet
Validated: 19457
EndChar

StartChar: afii10146
Encoding: 1122 1122 35
Width: 809
VWidth: 0
Flags: W
HStem: 0 24<187 246.647 391.353 544.647 689.353 749> 580 24<160.801 258 380 477.199> 693 24<187 246.647 391.353 451>
VStem: 84 25<422 494.29> 258 122<34.3208 373 401.175 580 604 682.164> 529 25<422 494.29> 556 122<34.3208 305.003>
AnchorPoint: "top" 324 748 basechar 0
LayerCount: 2
Fore
SplineSet
187 580 m 2,0,1
 158 580 158 580 133.5 526 c 128,-1,2
 109 472 109 472 109 422 c 1,3,-1
 84 422 l 1,4,5
 84 460 84 460 71 500 c 128,-1,6
 58 540 58 540 44 560 c 2,7,-1
 31 580 l 1,8,-1
 31 604 l 1,9,-1
 258 604 l 1,10,-1
 258 628 l 2,11,12
 258 672 258 672 247 682.5 c 128,-1,13
 236 693 236 693 187 693 c 1,14,-1
 187 717 l 1,15,-1
 451 717 l 1,16,-1
 451 693 l 1,17,18
 402 693 402 693 391 682.5 c 128,-1,19
 380 672 380 672 380 628 c 2,20,-1
 380 604 l 1,21,-1
 607 604 l 1,22,-1
 607 580 l 1,23,24
 601 572 601 572 592 557.5 c 128,-1,25
 583 543 583 543 568.5 501.5 c 128,-1,26
 554 460 554 460 554 422 c 1,27,-1
 529 422 l 1,28,29
 529 472 529 472 504.5 526 c 128,-1,30
 480 580 480 580 451 580 c 2,31,-1
 380 580 l 1,32,-1
 380 424 l 1,33,34
 427 368 427 368 497 347 c 128,-1,35
 567 326 567 326 678 326 c 1,36,-1
 678 88 l 2,37,38
 678 44 678 44 689 34 c 128,-1,39
 700 24 700 24 749 24 c 1,40,-1
 749 0 l 1,41,-1
 187 0 l 1,42,-1
 187 24 l 1,43,44
 236 24 236 24 247 34 c 128,-1,45
 258 44 258 44 258 88 c 2,46,-1
 258 580 l 1,47,-1
 187 580 l 2,0,1
556 302 m 1,48,49
 444 316 444 316 380 373 c 1,50,-1
 380 88 l 2,51,52
 380 44 380 44 391 34 c 128,-1,53
 402 24 402 24 451 24 c 2,54,-1
 485 24 l 2,55,56
 534 24 534 24 545 34 c 128,-1,57
 556 44 556 44 556 88 c 2,58,-1
 556 302 l 1,48,49
EndSplineSet
Validated: 19457
EndChar

StartChar: uni0464
Encoding: 1124 1124 37
Width: 1017
VWidth: 0
Flags: W
HStem: -11 24<600.205 715.94> 0 24<61 120.647 265.353 325> 172 24<703 768.007 917.258 967> 286 23<688 755.712 905.865 951> 346 25<254 378> 442 27<576.802 720.119> 520 24<703 768.007 917.524 967> 693 24<61 120.647 265.353 325> 702 25<599.756 717.282>
VStem: 132 122<34.3208 346 371 682.164> 378 128<188.178 346 371 400.853 421 528.434>
AnchorPoint: "top" 418 748 basechar 0
LayerCount: 2
Fore
SplineSet
887 127 m 0,0,1
 871 97 871 97 862.5 83 c 128,-1,2
 854 69 854 69 834.5 47 c 128,-1,3
 815 25 815 25 793.5 15 c 128,-1,4
 772 5 772 5 735.5 -3 c 128,-1,5
 699 -11 699 -11 651 -11 c 0,6,7
 519 -11 519 -11 449.5 86 c 128,-1,8
 380 183 380 183 378 346 c 1,9,-1
 254 346 l 1,10,-1
 254 88 l 2,11,12
 254 44 254 44 265 34 c 128,-1,13
 276 24 276 24 325 24 c 1,14,-1
 325 0 l 1,15,-1
 61 0 l 1,16,-1
 61 24 l 1,17,18
 110 24 110 24 121 34 c 128,-1,19
 132 44 132 44 132 88 c 2,20,-1
 132 628 l 2,21,22
 132 672 132 672 121 682.5 c 128,-1,23
 110 693 110 693 61 693 c 1,24,-1
 61 717 l 1,25,-1
 325 717 l 1,26,-1
 325 693 l 1,27,28
 276 693 276 693 265 682.5 c 128,-1,29
 254 672 254 672 254 628 c 2,30,-1
 254 371 l 1,31,-1
 378 371 l 1,32,33
 380 533 380 533 449.5 630 c 128,-1,34
 519 727 519 727 651 727 c 0,35,36
 699 727 699 727 735.5 719 c 128,-1,37
 772 711 772 711 794.5 700.5 c 128,-1,38
 817 690 817 690 836 669 c 128,-1,39
 855 648 855 648 864.5 632.5 c 128,-1,40
 874 617 874 617 888 588 c 0,41,42
 910 544 910 544 967 544 c 1,43,-1
 967 520 l 1,44,-1
 703 520 l 1,45,-1
 703 544 l 1,46,47
 753 544 753 544 768.5 555 c 128,-1,48
 784 566 784 566 784 588 c 0,49,50
 784 630 784 630 750.5 666 c 128,-1,51
 717 702 717 702 653 702 c 0,52,53
 579 702 579 702 545.5 630 c 128,-1,54
 512 558 512 558 507 421 c 1,55,56
 566 469 566 469 644 469 c 0,57,58
 749 469 749 469 795 449.5 c 128,-1,59
 841 430 841 430 867 376 c 0,60,61
 874 360 874 360 877.5 354.5 c 128,-1,62
 881 349 881 349 891 335 c 128,-1,63
 901 321 901 321 916 315 c 128,-1,64
 931 309 931 309 951 309 c 1,65,-1
 951 286 l 1,66,-1
 688 286 l 1,67,-1
 688 309 l 1,68,69
 726 309 726 309 745.5 316 c 128,-1,70
 765 323 765 323 769 331.5 c 128,-1,71
 773 340 773 340 773 356 c 0,72,73
 773 384 773 384 744 413 c 128,-1,74
 715 442 715 442 646 442 c 0,75,76
 568 442 568 442 506 382 c 1,77,-1
 506 357 l 2,78,79
 506 187 506 187 538.5 100 c 128,-1,80
 571 13 571 13 653 13 c 0,81,82
 717 13 717 13 750.5 49 c 128,-1,83
 784 85 784 85 784 127 c 0,84,85
 784 150 784 150 768.5 161 c 128,-1,86
 753 172 753 172 703 172 c 1,87,-1
 703 196 l 1,88,-1
 967 196 l 1,89,-1
 967 172 l 1,90,91
 910 172 910 172 887 127 c 0,0,1
EndSplineSet
Validated: 19457
EndChar

StartChar: uni0466
Encoding: 1126 1126 38
Width: 927
VWidth: 0
Flags: W
HStem: 0 24<28 87.1625 231.353 291 330 389.162 533.353 593 632 689.463 850.656 895> 346 25<259 400 522 621> 692 25<346 410 556 589>
VStem: 98 122<34.3208 212.545> 400 122<34.3208 346>
AnchorPoint: "top" 465 748 basechar 0
LayerCount: 2
Fore
SplineSet
433 665 m 1,0,1
 303 498 303 498 259 371 c 1,2,-1
 621 371 l 1,3,4
 556 508 556 508 433 665 c 1,0,1
707 72 m 128,-1,6
 707 99 707 99 686 183 c 128,-1,7
 665 267 665 267 631 346 c 1,8,-1
 522 346 l 1,9,-1
 522 88 l 2,10,11
 522 44 522 44 533 34 c 128,-1,12
 544 24 544 24 593 24 c 1,13,-1
 593 0 l 1,14,-1
 330 0 l 1,15,-1
 330 24 l 1,16,17
 379 24 379 24 389.5 34 c 128,-1,18
 400 44 400 44 400 88 c 2,19,-1
 400 346 l 1,20,-1
 251 346 l 1,21,22
 220 243 220 243 220 88 c 0,23,24
 220 44 220 44 231 34 c 128,-1,25
 242 24 242 24 291 24 c 1,26,-1
 291 0 l 1,27,-1
 28 0 l 1,28,-1
 28 24 l 1,29,30
 77 24 77 24 87.5 34 c 128,-1,31
 98 44 98 44 98 88 c 0,32,33
 98 203 98 203 189 374 c 128,-1,34
 280 545 280 545 410 692 c 1,35,-1
 346 692 l 1,36,-1
 346 717 l 1,37,-1
 589 717 l 1,38,-1
 589 692 l 1,39,-1
 556 692 l 1,40,41
 653 583 653 583 725.5 421 c 128,-1,42
 798 259 798 259 823 119 c 0,43,44
 824 113 824 113 826.5 96 c 128,-1,45
 829 79 829 79 830.5 74.5 c 128,-1,46
 832 70 832 70 835 58 c 128,-1,47
 838 46 838 46 842.5 42.5 c 128,-1,48
 847 39 847 39 854 33 c 128,-1,49
 861 27 861 27 871 25.5 c 128,-1,50
 881 24 881 24 895 24 c 1,51,-1
 895 0 l 1,52,-1
 632 0 l 1,53,-1
 632 24 l 1,54,55
 673 24 673 24 690 34.5 c 128,-1,5
 707 45 707 45 707 72 c 128,-1,6
EndSplineSet
Validated: 19457
EndChar

StartChar: uni0468
Encoding: 1128 1128 39
Width: 1259
VWidth: 0
Flags: W
HStem: 0 24<61 120.647 265.353 325 359 418.647 563.353 623 662 721.162 865.353 925 964 1020.98 1182.66 1227> 346 25<254 507 591 732 854 952> 692 25<61 120.647 265.353 325 678 741 888 921>
VStem: 132 122<34.3208 346 371 682.164> 430 122<34.3208 209.526> 732 122<34.3208 346>
AnchorPoint: "top" 500 748 basechar 0
LayerCount: 2
Fore
SplineSet
1038 72 m 0,0,1
 1038 100 1038 100 1017.5 183.5 c 128,-1,2
 997 267 997 267 963 346 c 1,3,-1
 854 346 l 1,4,-1
 854 88 l 2,5,6
 854 44 854 44 865 34 c 128,-1,7
 876 24 876 24 925 24 c 1,8,-1
 925 0 l 1,9,-1
 662 0 l 1,10,-1
 662 24 l 1,11,12
 711 24 711 24 721.5 34 c 128,-1,13
 732 44 732 44 732 88 c 2,14,-1
 732 346 l 1,15,-1
 583 346 l 1,16,17
 552 243 552 243 552 88 c 0,18,19
 552 44 552 44 563 34 c 128,-1,20
 574 24 574 24 623 24 c 1,21,-1
 623 0 l 1,22,-1
 359 0 l 1,23,-1
 359 24 l 1,24,25
 408 24 408 24 419 34 c 128,-1,26
 430 44 430 44 430 88 c 0,27,28
 430 189 430 189 507 346 c 1,29,-1
 254 346 l 1,30,-1
 254 88 l 2,31,32
 254 44 254 44 265 34 c 128,-1,33
 276 24 276 24 325 24 c 1,34,-1
 325 0 l 1,35,-1
 61 0 l 1,36,-1
 61 24 l 1,37,38
 110 24 110 24 121 34 c 128,-1,39
 132 44 132 44 132 88 c 2,40,-1
 132 628 l 2,41,42
 132 672 132 672 121 682.5 c 128,-1,43
 110 693 110 693 61 693 c 1,44,-1
 61 717 l 1,45,-1
 325 717 l 1,46,-1
 325 693 l 1,47,48
 276 693 276 693 265 682.5 c 128,-1,49
 254 672 254 672 254 628 c 2,50,-1
 254 371 l 1,51,-1
 519 371 l 1,52,53
 605 538 605 538 741 692 c 1,54,-1
 678 692 l 1,55,-1
 678 717 l 1,56,-1
 921 717 l 1,57,-1
 921 692 l 1,58,-1
 888 692 l 1,59,60
 985 583 985 583 1057.5 421 c 128,-1,61
 1130 259 1130 259 1155 119 c 0,62,63
 1156 113 1156 113 1158.5 96 c 128,-1,64
 1161 79 1161 79 1162.5 74.5 c 128,-1,65
 1164 70 1164 70 1167 58 c 128,-1,66
 1170 46 1170 46 1174.5 42.5 c 128,-1,67
 1179 39 1179 39 1186 33 c 128,-1,68
 1193 27 1193 27 1203 25.5 c 128,-1,69
 1213 24 1213 24 1227 24 c 1,70,-1
 1227 0 l 1,71,-1
 964 0 l 1,72,-1
 964 24 l 1,73,74
 1005 24 1005 24 1021.5 34.5 c 128,-1,75
 1038 45 1038 45 1038 72 c 0,0,1
765 665 m 1,76,77
 635 498 635 498 591 371 c 1,78,-1
 952 371 l 1,79,80
 886 512 886 512 765 665 c 1,76,77
EndSplineSet
Validated: 19457
EndChar

StartChar: uni046A
Encoding: 1130 1130 40
Width: 1035
VWidth: 0
Flags: W
HStem: 0 24<61 116.96 265.353 325 386 445.647 589.838 649 711 769.647 917.322 974> 346 25<388.347 449 584 646.387> 692 25<371 779>
VStem: 457 122<34.3208 346>
AnchorPoint: "top" 551 748 basechar 0
LayerCount: 2
Fore
SplineSet
457 346 m 1,0,1
 400 346 400 346 357.5 318.5 c 128,-1,2
 315 291 315 291 294 248 c 128,-1,3
 273 205 273 205 263.5 165 c 128,-1,4
 254 125 254 125 254 89 c 0,5,6
 254 45 254 45 265 34.5 c 128,-1,7
 276 24 276 24 325 24 c 1,8,-1
 325 0 l 1,9,-1
 61 0 l 1,10,-1
 61 24 l 1,11,12
 71 24 71 24 78.5 24.5 c 128,-1,13
 86 25 86 25 92.5 25 c 128,-1,14
 99 25 99 25 103 27.5 c 128,-1,15
 107 30 107 30 110.5 30 c 128,-1,16
 114 30 114 30 116.5 35 c 128,-1,17
 119 40 119 40 120.5 41 c 128,-1,18
 122 42 122 42 124 49.5 c 128,-1,19
 126 57 126 57 126.5 59.5 c 128,-1,20
 127 62 127 62 129 73 c 128,-1,21
 131 84 131 84 132 89 c 0,22,23
 141 135 141 135 153 171.5 c 128,-1,24
 165 208 165 208 189 247 c 128,-1,25
 213 286 213 286 246 311.5 c 128,-1,26
 279 337 279 337 331 354 c 128,-1,27
 383 371 383 371 449 371 c 1,28,-1
 206 717 l 1,29,-1
 826 717 l 1,30,-1
 584 371 l 1,31,-1
 585 371 l 2,32,33
 652 371 652 371 704 354 c 128,-1,34
 756 337 756 337 789 311.5 c 128,-1,35
 822 286 822 286 846 247 c 128,-1,36
 870 208 870 208 882 171.5 c 128,-1,37
 894 135 894 135 903 89 c 128,-1,38
 912 43 912 43 917 36 c 0,39,40
 927 24 927 24 974 24 c 1,41,-1
 974 0 l 1,42,-1
 711 0 l 1,43,-1
 711 24 l 1,44,45
 759 24 759 24 770 34 c 128,-1,46
 781 44 781 44 781 89 c 0,47,48
 781 117 781 117 776 148 c 128,-1,49
 771 179 771 179 756.5 215.5 c 128,-1,50
 742 252 742 252 720.5 280 c 128,-1,51
 699 308 699 308 662 327 c 128,-1,52
 625 346 625 346 579 346 c 1,53,-1
 579 88 l 2,54,55
 579 44 579 44 589.5 34 c 128,-1,56
 600 24 600 24 649 24 c 1,57,-1
 649 0 l 1,58,-1
 386 0 l 1,59,-1
 386 24 l 1,60,61
 435 24 435 24 446 34 c 128,-1,62
 457 44 457 44 457 88 c 2,63,-1
 457 346 l 1,0,1
574 400 m 1,64,-1
 779 692 l 1,65,-1
 371 692 l 1,66,-1
 574 400 l 1,64,-1
EndSplineSet
Validated: 19457
EndChar

StartChar: uni046C
Encoding: 1132 1132 41
Width: 1339
VWidth: 0
Flags: W
HStem: 0 24<61 120.647 265.353 325 366 422.109 569.353 629 690 749.647 893.838 953 1015 1073.65 1221.32 1278> 346 25<254 611 690.952 753 888 950.387> 692 25<61 120.647 265.353 325 675 1083>
VStem: 132 122<34.3208 346 371 682.164> 761 122<34.3208 346>
AnchorPoint: "top" 430 748 basechar 0
LayerCount: 2
Fore
SplineSet
879 400 m 1,0,-1
 1083 692 l 1,1,-1
 675 692 l 1,2,-1
 879 400 l 1,0,-1
753 371 m 1,3,-1
 510 717 l 1,4,-1
 1130 717 l 1,5,-1
 888 371 l 1,6,-1
 889 371 l 2,7,8
 956 371 956 371 1008 354 c 128,-1,9
 1060 337 1060 337 1093 311.5 c 128,-1,10
 1126 286 1126 286 1150 247 c 128,-1,11
 1174 208 1174 208 1186 171.5 c 128,-1,12
 1198 135 1198 135 1207 89 c 128,-1,13
 1216 43 1216 43 1221 36 c 0,14,15
 1231 24 1231 24 1278 24 c 1,16,-1
 1278 0 l 1,17,-1
 1015 0 l 1,18,-1
 1015 24 l 1,19,20
 1063 24 1063 24 1074 34 c 128,-1,21
 1085 44 1085 44 1085 89 c 0,22,23
 1085 117 1085 117 1080 148 c 128,-1,24
 1075 179 1075 179 1060.5 215.5 c 128,-1,25
 1046 252 1046 252 1024.5 280 c 128,-1,26
 1003 308 1003 308 966 327 c 128,-1,27
 929 346 929 346 883 346 c 1,28,-1
 883 88 l 2,29,30
 883 44 883 44 893.5 34 c 128,-1,31
 904 24 904 24 953 24 c 1,32,-1
 953 0 l 1,33,-1
 690 0 l 1,34,-1
 690 24 l 1,35,36
 739 24 739 24 750 34 c 128,-1,37
 761 44 761 44 761 88 c 2,38,-1
 761 346 l 1,39,40
 704 346 704 346 661.5 318.5 c 128,-1,41
 619 291 619 291 598 248 c 128,-1,42
 577 205 577 205 567.5 165 c 128,-1,43
 558 125 558 125 558 89 c 0,44,45
 558 45 558 45 569 34.5 c 128,-1,46
 580 24 580 24 629 24 c 1,47,-1
 629 0 l 1,48,-1
 366 0 l 1,49,-1
 366 24 l 1,50,51
 376 24 376 24 383.5 24.5 c 128,-1,52
 391 25 391 25 397.5 25 c 128,-1,53
 404 25 404 25 408 27 c 128,-1,54
 412 29 412 29 415.5 30 c 128,-1,55
 419 31 419 31 421.5 35 c 128,-1,56
 424 39 424 39 425.5 41 c 128,-1,57
 427 43 427 43 428.5 49.5 c 128,-1,58
 430 56 430 56 430.5 59.5 c 128,-1,59
 431 63 431 63 433 73 c 128,-1,60
 435 83 435 83 436 89 c 0,61,62
 454 181 454 181 493 247.5 c 128,-1,63
 532 314 532 314 611 346 c 1,64,-1
 254 346 l 1,65,-1
 254 88 l 2,66,67
 254 44 254 44 265 34 c 128,-1,68
 276 24 276 24 325 24 c 1,69,-1
 325 0 l 1,70,-1
 61 0 l 1,71,-1
 61 24 l 1,72,73
 110 24 110 24 121 34 c 128,-1,74
 132 44 132 44 132 88 c 2,75,-1
 132 628 l 2,76,77
 132 672 132 672 121 682.5 c 128,-1,78
 110 693 110 693 61 693 c 1,79,-1
 61 717 l 1,80,-1
 325 717 l 1,81,-1
 325 693 l 1,82,83
 276 693 276 693 265 682.5 c 128,-1,84
 254 672 254 672 254 628 c 2,85,-1
 254 371 l 1,86,-1
 753 371 l 1,3,-1
EndSplineSet
Validated: 19457
EndChar

StartChar: afii10148
Encoding: 1140 1140 42
Width: 705
VWidth: 0
Flags: W
HStem: 0 21G<251.554 388.621> 595 122<516.593 635.033> 693 24<-19 53.3362 193.536 244>
AnchorPoint: "top" 350 748 basechar 0
LayerCount: 2
Fore
SplineSet
86 628 m 2,0,1
 75 670 75 670 54 681.5 c 128,-1,2
 33 693 33 693 -19 693 c 1,3,-1
 -19 717 l 1,4,-1
 244 717 l 1,5,-1
 244 693 l 1,6,7
 191 693 191 693 191 674 c 0,8,9
 191 672 191 672 195 656 c 2,10,-1
 359 47 l 1,11,-1
 504 694 l 2,12,13
 506 702 506 702 514.5 706.5 c 128,-1,14
 523 711 523 711 551 714 c 128,-1,15
 579 717 579 717 631 717 c 0,16,17
 645 717 645 717 645 705 c 0,18,19
 645 685 645 685 639 640 c 128,-1,20
 633 595 633 595 625 595 c 2,21,-1
 583 595 l 2,22,23
 542 595 542 595 530.5 591 c 128,-1,24
 519 587 519 587 515 567 c 2,25,-1
 384 0 l 1,26,-1
 257 0 l 1,27,-1
 86 628 l 2,0,1
EndSplineSet
Validated: 19457
EndChar

StartChar: afii10196
Encoding: 1141 1141 43
Width: 559
VWidth: 0
Flags: W
HStem: 0 39<274 291> 391 122<422.481 508.033>
AnchorPoint: "top" 271 579 basechar 0
LayerCount: 2
Fore
SplineSet
274 39 m 1,0,-1
 291 39 l 1,1,-1
 412 490 l 2,2,3
 416 503 416 503 422 506 c 0,4,5
 437 513 437 513 504 513 c 0,6,7
 518 513 518 513 518 501 c 0,8,9
 518 481 518 481 512 436 c 128,-1,10
 506 391 506 391 498 391 c 2,11,-1
 456 391 l 2,12,13
 426 391 426 391 421 387.5 c 128,-1,14
 416 384 416 384 411 364 c 2,15,-1
 313 0 l 1,16,-1
 195 0 l 1,17,-1
 45 487 l 2,18,19
 41 499 41 499 41 502 c 0,20,21
 41 513 41 513 58 513 c 2,22,-1
 100 513 l 2,23,24
 118 513 118 513 125 508 c 128,-1,25
 132 503 132 503 137 489 c 2,26,-1
 274 39 l 1,0,-1
EndSplineSet
Validated: 19457
EndChar

StartChar: afii10047
Encoding: 1069 1069 44
Width: 739
VWidth: 0
Flags: W
HStem: -10 24<323.676 438.161> 173 24<73 122.476 270.993 336> 347 25<201 534> 521 24<73 122.742 270.993 336> 703 25<321.718 440.071>
VStem: 534 128<192.046 347 372 525.801>
AnchorPoint: "top" 385 748 basechar 0
LayerCount: 2
Fore
SplineSet
153 590 m 0,0,1
 169 620 169 620 177 634 c 128,-1,2
 185 648 185 648 204.5 670 c 128,-1,3
 224 692 224 692 245.5 702 c 128,-1,4
 267 712 267 712 303.5 720 c 128,-1,5
 340 728 340 728 388 728 c 0,6,7
 523 728 523 728 592.5 627 c 128,-1,8
 662 526 662 526 662 358 c 0,9,10
 662 191 662 191 592.5 90.5 c 128,-1,11
 523 -10 523 -10 388 -10 c 0,12,13
 340 -10 340 -10 303.5 -2 c 128,-1,14
 267 6 267 6 245 16.5 c 128,-1,15
 223 27 223 27 204 48 c 128,-1,16
 185 69 185 69 176 84.5 c 128,-1,17
 167 100 167 100 152 129 c 0,18,19
 130 173 130 173 73 173 c 1,20,-1
 73 197 l 1,21,-1
 336 197 l 1,22,-1
 336 173 l 1,23,24
 286 173 286 173 270.5 162 c 128,-1,25
 255 151 255 151 255 129 c 0,26,27
 255 87 255 87 288.5 50.5 c 128,-1,28
 322 14 322 14 386 14 c 0,29,30
 467 14 467 14 500 99 c 128,-1,31
 533 184 533 184 534 347 c 1,32,-1
 201 347 l 1,33,-1
 201 372 l 1,34,-1
 534 372 l 1,35,36
 533 535 533 535 500 619 c 128,-1,37
 467 703 467 703 386 703 c 0,38,39
 322 703 322 703 288.5 667.5 c 128,-1,40
 255 632 255 632 255 590 c 0,41,42
 255 567 255 567 270.5 556 c 128,-1,43
 286 545 286 545 336 545 c 1,44,-1
 336 521 l 1,45,-1
 73 521 l 1,46,-1
 73 545 l 1,47,48
 130 545 130 545 153 590 c 0,0,1
EndSplineSet
Validated: 19457
EndChar

StartChar: afii10066
Encoding: 1073 1073 45
Width: 481
VWidth: 0
Flags: W
HStem: 0 25<164 328> 264 27<164 224.421> 487 25<164 304.719>
VStem: 61 103<25 264 291 487> 328 102<25 169.69> 338 24<358 444.966>
AnchorPoint: "top" 237 579 basechar 0
LayerCount: 2
Fore
SplineSet
430 0 m 1,0,-1
 61 0 l 1,1,-1
 61 512 l 1,2,-1
 395 512 l 1,3,-1
 395 487 l 1,4,5
 362 444 362 444 362 358 c 1,6,-1
 338 358 l 1,7,8
 338 441 338 441 318.5 464 c 128,-1,9
 299 487 299 487 231 487 c 2,10,-1
 164 487 l 1,11,-1
 164 291 l 1,12,13
 274 288 274 288 328.5 264 c 128,-1,14
 383 240 383 240 406.5 179.5 c 128,-1,15
 430 119 430 119 430 0 c 1,0,-1
164 25 m 1,16,-1
 328 25 l 1,17,18
 326 145 326 145 291 200 c 128,-1,19
 256 255 256 255 164 264 c 1,20,-1
 164 25 l 1,16,-1
EndSplineSet
Validated: 19457
EndChar

StartChar: afii10067
Encoding: 1074 1074 46
Width: 506
VWidth: 0
Flags: W
HStem: 0 25<181 345> 487 25<181 318>
VStem: 79 102<25 264 293 487> 318 103<405 487> 345 102<25 169.178>
AnchorPoint: "top" 249 579 basechar 0
LayerCount: 2
Fore
SplineSet
447 0 m 1,0,-1
 79 0 l 1,1,-1
 79 512 l 1,2,-1
 421 512 l 1,3,4
 421 427 421 427 378 369.5 c 128,-1,5
 335 312 335 312 261 286 c 1,6,7
 370 273 370 273 408.5 213 c 128,-1,8
 447 153 447 153 447 0 c 1,0,-1
181 25 m 1,9,-1
 345 25 l 1,10,11
 343 145 343 145 308 200 c 128,-1,12
 273 255 273 255 181 264 c 1,13,-1
 181 25 l 1,9,-1
181 487 m 1,14,-1
 181 293 l 1,15,16
 253 301 253 301 284 347 c 128,-1,17
 315 393 315 393 318 487 c 1,18,-1
 181 487 l 1,14,-1
EndSplineSet
Validated: 19457
EndChar

StartChar: afii10065
Encoding: 1072 1072 47
Width: 473
VWidth: 0
Flags: W
HStem: -10 77<127.5 251.122> 0 21G<320.129 428> 492 20G<233 327.5>
VStem: 50 96<100.027 192.514>
AnchorPoint: "top" 282 579 basechar 0
LayerCount: 2
Fore
SplineSet
341 495 m 2,0,-1
 428 0 l 1,1,-1
 324 0 l 1,2,-1
 312 62 l 1,3,4
 252 -10 252 -10 156 -10 c 0,5,6
 99 -10 99 -10 74.5 25 c 128,-1,7
 50 60 50 60 50 104 c 0,8,9
 50 233 50 233 253 403 c 1,10,-1
 233 512 l 1,11,-1
 317 512 l 2,12,13
 338 512 338 512 341 495 c 2,0,-1
305 106 m 1,14,-1
 257 376 l 1,15,16
 146 283 146 283 146 179 c 0,17,18
 146 140 146 140 166 103.5 c 128,-1,19
 186 67 186 67 227 67 c 0,20,21
 277 67 277 67 305 106 c 1,14,-1
EndSplineSet
Validated: 19457
EndChar

StartChar: afii10068
Encoding: 1075 1075 48
Width: 436
VWidth: 0
Flags: W
HStem: 0 21G<61 164> 487 25<164 304.719>
VStem: 61 103<0 487> 338 24<358 444.966>
AnchorPoint: "top" 234 579 basechar 0
LayerCount: 2
Fore
SplineSet
164 487 m 1,0,-1
 164 0 l 1,1,-1
 61 0 l 1,2,-1
 61 512 l 1,3,-1
 395 512 l 1,4,-1
 395 487 l 1,5,6
 362 444 362 444 362 358 c 1,7,-1
 338 358 l 1,8,9
 338 441 338 441 318.5 464 c 128,-1,10
 299 487 299 487 231 487 c 2,11,-1
 164 487 l 1,0,-1
EndSplineSet
Validated: 19457
EndChar

StartChar: afii10069
Encoding: 1076 1076 49
Width: 665
VWidth: 0
Flags: W
HStem: 0 25<180.745 416> 492 20G<281.62 396.38>
VStem: 94 25<-158 -94.4711> 547 24<-158 -95.8438>
AnchorPoint: "top" 335 579 basechar 0
LayerCount: 2
Fore
SplineSet
472 0 m 1,0,-1
 194 0 l 1,1,2
 160 -28 160 -28 139.5 -73.5 c 128,-1,3
 119 -119 119 -119 119 -158 c 1,4,-1
 94 -158 l 1,5,6
 94 -120 94 -120 81 -80 c 128,-1,7
 68 -40 68 -40 54 -20 c 2,8,-1
 41 0 l 1,9,-1
 41 25 l 1,10,-1
 156 25 l 1,11,-1
 287 512 l 1,12,-1
 391 512 l 1,13,-1
 522 25 l 1,14,-1
 625 25 l 1,15,-1
 625 0 l 1,16,17
 619 -8 619 -8 610 -22.5 c 128,-1,18
 601 -37 601 -37 586 -78.5 c 128,-1,19
 571 -120 571 -120 571 -158 c 1,20,-1
 547 -158 l 1,21,22
 547 -119 547 -119 526.5 -73.5 c 128,-1,23
 506 -28 506 -28 472 0 c 1,0,-1
180 25 m 1,24,-1
 416 25 l 1,25,-1
 298 464 l 1,26,-1
 180 25 l 1,24,-1
EndSplineSet
Validated: 19457
EndChar

StartChar: afii10103
Encoding: 1110 1110 50
Width: 225
VWidth: 0
Flags: W
HStem: 0 21G<61 164> 492 20G<61 164>
VStem: 61 103<0 512>
AnchorPoint: "top" 116 579 basechar 0
LayerCount: 2
Fore
SplineSet
61 512 m 5,0,-1
 164 512 l 1,1,-1
 164 0 l 1,2,-1
 61 0 l 1,3,-1
 61 512 l 5,0,-1
EndSplineSet
Validated: 19457
EndChar

StartChar: afii10053
Encoding: 1028 1028 51
Width: 715
VWidth: 0
Flags: W
HStem: -10 24<286.975 403.94> 173 24<391 456.007 603.759 654> 346 25<194 526> 521 24<391 456.007 604.524 654> 703 25<286.975 405.282>
VStem: 66 128<191.357 346 371 525.992>
AnchorPoint: "top" 338 748 basechar 0
LayerCount: 2
Fore
SplineSet
574 128 m 1,0,1
 558 98 558 98 550 84 c 128,-1,2
 542 70 542 70 522.5 48 c 128,-1,3
 503 26 503 26 481.5 16 c 128,-1,4
 460 6 460 6 423.5 -2 c 128,-1,5
 387 -10 387 -10 339 -10 c 0,6,7
 204 -10 204 -10 135 90.5 c 128,-1,8
 66 191 66 191 66 359 c 0,9,10
 66 526 66 526 135 627 c 128,-1,11
 204 728 204 728 339 728 c 0,12,13
 387 728 387 728 423.5 720 c 128,-1,14
 460 712 460 712 482 701.5 c 128,-1,15
 504 691 504 691 523 670 c 128,-1,16
 542 649 542 649 551 633.5 c 128,-1,17
 560 618 560 618 575 589 c 0,18,19
 597 545 597 545 654 545 c 1,20,-1
 654 521 l 1,21,-1
 391 521 l 1,22,-1
 391 545 l 1,23,24
 441 545 441 545 456.5 556 c 128,-1,25
 472 567 472 567 472 589 c 0,26,27
 472 631 472 631 438.5 667 c 128,-1,28
 405 703 405 703 341 703 c 0,29,30
 260 703 260 703 227.5 619 c 128,-1,31
 195 535 195 535 194 371 c 1,32,-1
 526 371 l 1,33,-1
 526 346 l 1,34,-1
 194 346 l 1,35,36
 195 182 195 182 227.5 98 c 128,-1,37
 260 14 260 14 341 14 c 0,38,39
 405 14 405 14 438.5 50 c 128,-1,40
 472 86 472 86 472 128 c 0,41,42
 472 151 472 151 456.5 162 c 128,-1,43
 441 173 441 173 391 173 c 1,44,-1
 391 197 l 1,45,-1
 654 197 l 1,46,-1
 654 173 l 1,47,48
 596 173 596 173 574 128 c 1,0,1
EndSplineSet
Validated: 19457
EndChar

StartChar: uniA640
Encoding: 42560 42560 52
Width: 565
VWidth: 0
Flags: W
HStem: -168 22<336 374.564> 0 25<212 376.059> 692 25<213.38 389 523 524>
VStem: 115 24<535 597.74> 409 117<-125.112 -21.676>
AnchorPoint: "top" 297 748 basechar 0
LayerCount: 2
Fore
SplineSet
524 717 m 1,0,-1
 524 692 l 1,1,-1
 523 692 l 1,2,-1
 212 25 l 1,3,-1
 406 25 l 2,4,5
 461 25 461 25 493.5 -4.5 c 128,-1,6
 526 -34 526 -34 526 -75 c 0,7,8
 526 -117 526 -117 489 -145 c 128,-1,9
 452 -173 452 -173 377 -173 c 1,10,-1
 332 -168 l 1,11,-1
 336 -146 l 1,12,13
 368 -146 368 -146 388.5 -123 c 128,-1,14
 409 -100 409 -100 409 -74 c 0,15,16
 409 -47 409 -47 388.5 -23.5 c 128,-1,17
 368 0 368 0 336 0 c 2,18,-1
 67 0 l 1,19,-1
 389 692 l 1,20,-1
 261 692 l 2,21,22
 207 692 207 692 173 640.5 c 128,-1,23
 139 589 139 589 139 535 c 1,24,-1
 115 535 l 1,25,26
 115 573 115 573 101.5 612.5 c 128,-1,27
 88 652 88 652 74 672 c 2,28,-1
 61 692 l 1,29,-1
 61 717 l 1,30,-1
 524 717 l 1,0,-1
EndSplineSet
Validated: 19457
EndChar

StartChar: afii10070
Encoding: 1077 1077 53
Width: 435
VWidth: 0
Flags: W
HStem: -15 75<176.847 249.172>
VStem: 74 102<60.4746 214 293 408>
AnchorPoint: "top" 213 579 basechar 0
LayerCount: 2
Fore
SplineSet
346 487 m 1,0,-1
 176 408 l 1,1,-1
 176 293 l 1,2,-1
 284 343 l 1,3,-1
 325 284 l 1,4,-1
 176 214 l 1,5,-1
 176 92 l 2,6,7
 176 60 176 60 198 60 c 0,8,9
 205 60 205 60 208 62 c 2,10,-1
 309 111 l 1,11,-1
 374 61 l 1,12,-1
 234 -4 l 2,13,14
 210 -15 210 -15 184 -15 c 0,15,16
 139 -15 139 -15 106.5 15 c 128,-1,17
 74 45 74 45 74 99 c 2,18,-1
 74 395 l 2,19,20
 74 440 74 440 112 456 c 1,21,-1
 258 524 l 1,22,-1
 346 487 l 1,0,-1
EndSplineSet
Validated: 19457
EndChar

StartChar: afii10072
Encoding: 1078 1078 54
Width: 739
VWidth: 0
Flags: W
HStem: 0 21G<68 170 319 422 571 674> 492 20G<70 172 319 422 569 672>
VStem: 70 102<0 145.377 400.47 512> 319 103<0 265 300 512> 569 103<0 145.377 400.47 512>
AnchorPoint: "top" 374 579 basechar 0
LayerCount: 2
Fore
SplineSet
319 512 m 1,0,-1
 422 512 l 1,1,-1
 422 300 l 1,2,3
 496 325 496 325 532.5 375 c 128,-1,4
 569 425 569 425 569 512 c 1,5,-1
 672 512 l 1,6,-1
 672 487 l 2,7,8
 672 408 672 408 618.5 363 c 128,-1,9
 565 318 565 318 461 285 c 1,10,11
 563 265 563 265 618.5 199 c 128,-1,12
 674 133 674 133 674 0 c 1,13,-1
 571 0 l 1,14,15
 571 125 571 125 527.5 188.5 c 128,-1,16
 484 252 484 252 422 265 c 1,17,-1
 422 0 l 1,18,-1
 319 0 l 1,19,-1
 319 265 l 1,20,21
 257 252 257 252 213.5 188.5 c 128,-1,22
 170 125 170 125 170 0 c 1,23,-1
 68 0 l 1,24,25
 68 133 68 133 123.5 199 c 128,-1,26
 179 265 179 265 281 285 c 1,27,28
 177 318 177 318 123.5 363 c 128,-1,29
 70 408 70 408 70 487 c 2,30,-1
 70 512 l 1,31,-1
 172 512 l 1,32,33
 172 425 172 425 208.5 375 c 128,-1,34
 245 325 245 325 319 300 c 1,35,-1
 319 512 l 1,0,-1
EndSplineSet
Validated: 19457
EndChar

StartChar: afii10076
Encoding: 1082 1082 55
Width: 498
VWidth: 0
Flags: W
HStem: 0 21G<79 181 331 433> 492 20G<79 181 329 431>
VStem: 79 102<0 265 300 512> 329 102<0 145.377 400.47 512>
AnchorPoint: "top" 257 579 basechar 0
LayerCount: 2
Fore
SplineSet
79 512 m 1,0,-1
 181 512 l 1,1,-1
 181 300 l 1,2,3
 255 325 255 325 292 375 c 128,-1,4
 329 425 329 425 329 512 c 1,5,-1
 431 512 l 1,6,-1
 431 487 l 2,7,8
 431 408 431 408 377.5 363 c 128,-1,9
 324 318 324 318 220 285 c 1,10,11
 322 265 322 265 377.5 199 c 128,-1,12
 433 133 433 133 433 0 c 1,13,-1
 331 0 l 1,14,15
 331 125 331 125 287 188.5 c 128,-1,16
 243 252 243 252 181 265 c 1,17,-1
 181 0 l 1,18,-1
 79 0 l 1,19,-1
 79 512 l 1,0,-1
EndSplineSet
Validated: 19457
EndChar

StartChar: afii10073
Encoding: 1079 1079 56
Width: 569
VWidth: 0
Flags: W
HStem: -10 25<272.138 365.304> 31 59<110 208.952> 233 59<156.588 273.127> 248 30<190.095 326.51> 500 24<240.255 331.276>
VStem: 98 103<353.55 445.104> 371 102<315.785 463.659> 403 103<49.3542 200.853>
AnchorPoint: "top" 289 579 basechar 0
LayerCount: 2
Fore
SplineSet
287 248 m 0,0,1
 247 248 247 248 220.5 240.5 c 128,-1,2
 194 233 194 233 188 233 c 128,-1,3
 182 233 182 233 167 245.5 c 128,-1,4
 152 258 152 258 152 264 c 128,-1,5
 152 270 152 270 166.5 281 c 128,-1,6
 181 292 181 292 190 292 c 0,7,8
 193 292 193 292 201 288.5 c 128,-1,9
 209 285 209 285 227.5 281.5 c 128,-1,10
 246 278 246 278 274 278 c 0,11,12
 323 278 323 278 347 313.5 c 128,-1,13
 371 349 371 349 371 398 c 0,14,15
 371 449 371 449 348.5 474.5 c 128,-1,16
 326 500 326 500 287 500 c 0,17,18
 241 500 241 500 221 469 c 128,-1,19
 201 438 201 438 201 364 c 0,20,21
 201 352 201 352 151 352 c 0,22,23
 98 352 98 352 98 364 c 0,24,25
 98 429 98 429 145 476.5 c 128,-1,26
 192 524 192 524 287 524 c 0,27,28
 473 524 473 524 473 383 c 0,29,30
 473 343 473 343 449.5 309.5 c 128,-1,31
 426 276 426 276 383 263 c 1,32,33
 506 227 506 227 506 130 c 0,34,35
 506 -10 506 -10 327 -10 c 0,36,37
 282 -10 282 -10 244.5 10.5 c 128,-1,38
 207 31 207 31 188 31 c 0,39,40
 179 31 179 31 154 5.5 c 128,-1,41
 129 -20 129 -20 117 -20 c 0,42,43
 97 -20 97 -20 74.5 -2 c 128,-1,44
 52 16 52 16 52 38 c 0,45,46
 52 51 52 51 76 70.5 c 128,-1,47
 100 90 100 90 120 90 c 0,48,49
 157 90 157 90 186 78.5 c 128,-1,50
 215 67 215 67 231 52.5 c 128,-1,51
 247 38 247 38 273.5 26.5 c 128,-1,52
 300 15 300 15 333 15 c 0,53,54
 363 15 363 15 383 45.5 c 128,-1,55
 403 76 403 76 403 132 c 0,56,57
 403 187 403 187 377 217.5 c 128,-1,58
 351 248 351 248 287 248 c 0,0,1
EndSplineSet
Validated: 19457
EndChar

StartChar: uniA641
Encoding: 42561 42561 57
Width: 468
VWidth: 0
Flags: W
HStem: -168 22<214 264.227> 0 25<186 271.469> 487 25<158.551 290>
VStem: 101 25<358 445.056> 304 100<-123.189 -21.3291>
AnchorPoint: "top" 232 579 basechar 0
LayerCount: 2
Fore
SplineSet
210 -168 m 5,0,-1
 214 -146 l 1,1,2
 258 -146 258 -146 281 -124 c 128,-1,3
 304 -102 304 -102 304 -74 c 0,4,5
 304 -44 304 -44 283.5 -22 c 128,-1,6
 263 0 263 0 214 0 c 2,7,-1
 63 0 l 1,8,-1
 290 487 l 1,9,-1
 232 487 l 2,10,11
 164 487 164 487 145 464 c 128,-1,12
 126 441 126 441 126 358 c 1,13,-1
 101 358 l 1,14,15
 101 396 101 396 93 428.5 c 128,-1,16
 85 461 85 461 77 474 c 2,17,-1
 69 487 l 1,18,-1
 69 512 l 1,19,-1
 415 512 l 1,20,-1
 186 25 l 1,21,-1
 284 25 l 2,22,23
 339 25 339 25 371.5 -4.5 c 128,-1,24
 404 -34 404 -34 404 -75 c 0,25,26
 404 -117 404 -117 367 -145 c 128,-1,27
 330 -173 330 -173 255 -173 c 1,28,-1
 210 -168 l 5,0,-1
EndSplineSet
Validated: 19457
EndChar

StartChar: afii10074
Encoding: 1080 1080 58
Width: 501
VWidth: 0
Flags: W
HStem: 0 21G<61 164 338 440> 492 20G<61 164 338 440>
VStem: 61 103<0 130 181 512> 338 102<0 338 388 512>
AnchorPoint: "top" 255 579 basechar 0
LayerCount: 2
Fore
SplineSet
338 512 m 1,0,-1
 440 512 l 1,1,-1
 440 0 l 1,2,-1
 338 0 l 1,3,-1
 338 338 l 1,4,-1
 164 130 l 1,5,-1
 164 0 l 1,6,-1
 61 0 l 1,7,-1
 61 512 l 1,8,-1
 164 512 l 1,9,-1
 164 181 l 1,10,-1
 338 388 l 1,11,-1
 338 512 l 1,0,-1
EndSplineSet
Validated: 19457
EndChar

StartChar: afii10077
Encoding: 1083 1083 60
Width: 501
VWidth: 0
Flags: W
HStem: 0 21G<49 158 342.517 451> 492 20G<256 350.5>
VStem: 49 108<0 143.634>
AnchorPoint: "top" 302 579 basechar 0
LayerCount: 2
Fore
SplineSet
364 495 m 2,0,-1
 451 0 l 1,1,-1
 346 0 l 1,2,-1
 280 379 l 1,3,4
 157 226 157 226 157 35 c 0,5,6
 157 11 157 11 158 0 c 1,7,-1
 49 0 l 1,8,9
 53 121 53 121 93.5 200 c 128,-1,10
 134 279 134 279 272 421 c 1,11,-1
 256 512 l 1,12,-1
 340 512 l 2,13,14
 361 512 361 512 364 495 c 2,0,-1
EndSplineSet
Validated: 19457
EndChar

StartChar: afii10078
Encoding: 1084 1084 61
Width: 727
VWidth: 0
Flags: W
HStem: 0 21G<51 160 318.461 426 567.522 676> 492 20G<231 325.5 481 576.5>
VStem: 51 105<0 170.032>
AnchorPoint: "top" 409 579 basechar 0
LayerCount: 2
Fore
SplineSet
589 495 m 2,0,-1
 676 0 l 1,1,-1
 571 0 l 1,2,-1
 503 391 l 1,3,4
 492 373 492 373 465.5 337 c 128,-1,5
 439 301 439 301 420 268 c 128,-1,6
 401 235 401 235 391 200 c 1,7,-1
 426 0 l 1,8,-1
 322 0 l 1,9,-1
 256 373 l 1,10,11
 156 229 156 229 156 40 c 0,12,13
 156 16 156 16 160 0 c 1,14,-1
 51 0 l 1,15,16
 53 70 53 70 58 107 c 128,-1,17
 63 144 63 144 82 195 c 128,-1,18
 101 246 101 246 140 297.5 c 128,-1,19
 179 349 179 349 248 421 c 1,20,-1
 231 512 l 1,21,-1
 315 512 l 2,22,23
 336 512 336 512 339 495 c 2,24,-1
 376 284 l 1,25,26
 382 291 382 291 401.5 312.5 c 128,-1,27
 421 334 421 334 430 345 c 128,-1,28
 439 356 439 356 453.5 374 c 128,-1,29
 468 392 468 392 478 407 c 128,-1,30
 488 422 488 422 495 437 c 1,31,-1
 481 512 l 1,32,-1
 567 512 l 2,33,34
 586 512 586 512 589 495 c 2,0,-1
EndSplineSet
Validated: 19457
EndChar

StartChar: afii10079
Encoding: 1085 1085 62
Width: 501
VWidth: 0
Flags: W
HStem: 0 21G<61 164 338 440> 492 20G<61 164 338 440>
VStem: 61 103<0 318 358 512> 338 102<0 197 237 512>
AnchorPoint: "top" 249 579 basechar 0
LayerCount: 2
Fore
SplineSet
164 0 m 1,0,-1
 61 0 l 1,1,-1
 61 512 l 1,2,-1
 164 512 l 1,3,-1
 164 358 l 1,4,-1
 338 237 l 1,5,-1
 338 512 l 1,6,-1
 440 512 l 1,7,-1
 440 0 l 1,8,-1
 338 0 l 1,9,-1
 338 197 l 1,10,-1
 164 318 l 1,11,-1
 164 0 l 1,0,-1
EndSplineSet
Validated: 19457
EndChar

StartChar: afii10094
Encoding: 1100 1100 63
Width: 509
VWidth: 0
Flags: W
HStem: 0 25<164 338> 492 20G<61 164>
VStem: 61 103<25 300 328 512>
AnchorPoint: "top" 282 579 basechar 0
LayerCount: 2
Fore
SplineSet
61 512 m 1,0,-1
 164 512 l 1,1,-1
 164 328 l 1,2,-1
 242 373 l 1,3,4
 285 338 285 338 352.5 238 c 128,-1,5
 420 138 420 138 473 0 c 1,6,-1
 61 0 l 1,7,-1
 61 512 l 1,0,-1
164 25 m 1,8,-1
 338 25 l 1,9,10
 313 121 313 121 275 201 c 128,-1,11
 237 281 237 281 205 323 c 1,12,-1
 164 300 l 1,13,-1
 164 25 l 1,8,-1
EndSplineSet
Validated: 19457
EndChar

StartChar: afii10147
Encoding: 1138 1138 64
Width: 892
VWidth: 0
Flags: W
HStem: -10 24<401.153 482.847> 334 24<183.725 215 337 547 669 700.275> 703 25<418.503 465.174>
VStem: 96 25<176 239.529> 207 128<112.691 332.952> 549 128<112.691 332.952> 763 24<176 238.156>
AnchorPoint: "top" 442 748 basechar 0
LayerCount: 2
Fore
SplineSet
215 334 m 1,0,-1
 196 334 l 1,1,2
 162 306 162 306 141.5 260.5 c 128,-1,3
 121 215 121 215 121 176 c 1,4,-1
 96 176 l 1,5,6
 96 214 96 214 83 254 c 128,-1,7
 70 294 70 294 56 314 c 2,8,-1
 43 334 l 1,9,-1
 43 358 l 1,10,-1
 220 358 l 1,11,12
 239 440 239 440 278 525.5 c 128,-1,13
 317 611 317 611 362.5 669.5 c 128,-1,14
 408 728 408 728 442 728 c 0,15,16
 492 728 492 728 563.5 606.5 c 128,-1,17
 635 485 635 485 664 358 c 1,18,-1
 841 358 l 1,19,-1
 841 334 l 1,20,21
 835 326 835 326 826 311.5 c 128,-1,22
 817 297 817 297 802 255.5 c 128,-1,23
 787 214 787 214 787 176 c 1,24,-1
 763 176 l 1,25,26
 763 215 763 215 742.5 260.5 c 128,-1,27
 722 306 722 306 688 334 c 1,28,-1
 669 334 l 1,29,30
 677 291 677 291 677 260 c 0,31,32
 677 197 677 197 666.5 150.5 c 128,-1,33
 656 104 656 104 630 66.5 c 128,-1,34
 604 29 604 29 557 9.5 c 128,-1,35
 510 -10 510 -10 442 -10 c 128,-1,36
 374 -10 374 -10 327 9.5 c 128,-1,37
 280 29 280 29 254 66.5 c 128,-1,38
 228 104 228 104 217.5 150.5 c 128,-1,39
 207 197 207 197 207 260 c 0,40,41
 207 291 207 291 215 334 c 1,0,-1
548 334 m 1,42,-1
 336 334 l 1,43,44
 335 310 335 310 335 261 c 0,45,46
 335 148 335 148 361 81 c 128,-1,47
 387 14 387 14 442 14 c 128,-1,48
 497 14 497 14 523 81 c 128,-1,49
 549 148 549 148 549 261 c 0,50,51
 549 310 549 310 548 334 c 1,42,-1
547 358 m 1,52,53
 541 469 541 469 522.5 551 c 128,-1,54
 504 633 504 633 482.5 668 c 128,-1,55
 461 703 461 703 442 703 c 128,-1,56
 423 703 423 703 401.5 668 c 128,-1,57
 380 633 380 633 361.5 551 c 128,-1,58
 343 469 343 469 337 358 c 1,59,-1
 547 358 l 1,52,53
EndSplineSet
Validated: 19457
EndChar

StartChar: afii10080
Encoding: 1086 1086 65
Width: 552
VWidth: 0
Flags: W
HStem: -14 21G<223.5 304.5> 502 20G<244.5 325.5>
VStem: 55 103<227.179 342.071> 386 108<166.227 289.128>
AnchorPoint: "top" 282 579 basechar 0
LayerCount: 2
Fore
SplineSet
315 49 m 1,0,1
 358 81 358 81 372 112 c 128,-1,2
 386 143 386 143 386 196 c 0,3,4
 386 239 386 239 367.5 281.5 c 128,-1,5
 349 324 349 324 326 352 c 128,-1,6
 303 380 303 380 275 413 c 128,-1,7
 247 446 247 446 237 463 c 1,8,9
 190 432 190 432 174 401 c 128,-1,10
 158 370 158 370 158 317 c 0,11,12
 158 273 158 273 179 229.5 c 128,-1,13
 200 186 200 186 225.5 158.5 c 128,-1,14
 251 131 251 131 278.5 99.5 c 128,-1,15
 306 68 306 68 315 49 c 1,0,1
282 522 m 1,16,17
 369 484 369 484 431.5 400.5 c 128,-1,18
 494 317 494 317 494 254 c 0,19,20
 494 216 494 216 472.5 167.5 c 128,-1,21
 451 119 451 119 396.5 65.5 c 128,-1,22
 342 12 342 12 267 -14 c 1,23,24
 180 24 180 24 117.5 107.5 c 128,-1,25
 55 191 55 191 55 254 c 0,26,27
 55 292 55 292 76.5 340.5 c 128,-1,28
 98 389 98 389 152.5 442.5 c 128,-1,29
 207 496 207 496 282 522 c 1,16,17
EndSplineSet
Validated: 19457
EndChar

StartChar: afii10081
Encoding: 1087 1087 66
Width: 501
VWidth: 0
Flags: W
HStem: 0 21G<61 164 338 440> 487 25<164 338>
VStem: 61 103<0 487> 338 102<0 487>
AnchorPoint: "top" 255 579 basechar 0
LayerCount: 2
Fore
SplineSet
164 0 m 1,0,-1
 61 0 l 1,1,-1
 61 512 l 1,2,-1
 440 512 l 1,3,-1
 440 0 l 1,4,-1
 338 0 l 1,5,-1
 338 487 l 1,6,-1
 164 487 l 1,7,-1
 164 0 l 1,0,-1
EndSplineSet
Validated: 19457
EndChar

StartChar: afii10082
Encoding: 1088 1088 67
Width: 530
VWidth: 0
Flags: W
HStem: -20 44<209 293.977> 502 20G<237.5 318.5>
VStem: 49 103<122.972 342.274> 117 106<-220.573 -19.8419> 380 107<166.158 288.484>
AnchorPoint: "top" 253 579 basechar 0
LayerCount: 2
Fore
SplineSet
209 -20 m 1,0,1
 223 -90 223 -90 223 -145 c 0,2,3
 223 -174 223 -174 211.5 -200 c 128,-1,4
 200 -226 200 -226 183 -243 c 128,-1,5
 166 -260 166 -260 150 -273 c 128,-1,6
 134 -286 134 -286 122 -292 c 2,7,-1
 110 -298 l 1,8,-1
 81 -257 l 1,9,10
 85 -254 85 -254 91 -247.5 c 128,-1,11
 97 -241 97 -241 107 -218 c 128,-1,12
 117 -195 117 -195 117 -169 c 0,13,14
 117 -77 117 -77 83 39 c 128,-1,15
 49 155 49 155 49 254 c 0,16,17
 49 292 49 292 70.5 340.5 c 128,-1,18
 92 389 92 389 146 442.5 c 128,-1,19
 200 496 200 496 275 522 c 1,20,21
 362 484 362 484 424.5 400.5 c 128,-1,22
 487 317 487 317 487 254 c 0,23,24
 487 201 487 201 451.5 139 c 128,-1,25
 416 77 416 77 349.5 29 c 128,-1,26
 283 -19 283 -19 209 -20 c 1,0,1
198 24 m 1,27,28
 380 32 380 32 380 196 c 0,29,30
 380 239 380 239 361 281.5 c 128,-1,31
 342 324 342 324 319.5 352 c 128,-1,32
 297 380 297 380 268.5 413 c 128,-1,33
 240 446 240 446 230 463 c 1,34,35
 183 432 183 432 167.5 401.5 c 128,-1,36
 152 371 152 371 152 317 c 0,37,38
 152 287 152 287 154.5 257 c 128,-1,39
 157 227 157 227 159.5 205.5 c 128,-1,40
 162 184 162 184 168 154 c 128,-1,41
 174 124 174 124 177 110.5 c 128,-1,42
 180 97 180 97 188 64.5 c 128,-1,43
 196 32 196 32 198 24 c 1,27,28
EndSplineSet
Validated: 19457
EndChar

StartChar: afii10084
Encoding: 1090 1090 68
Width: 503
VWidth: 0
Flags: W
HStem: 0 21G<198 300> 487 25<113.496 198 300 384.504>
VStem: 56 25<358 445.114> 198 102<0 487> 417 24<358 444.966>
AnchorPoint: "top" 251 579 basechar 0
LayerCount: 2
Fore
SplineSet
198 0 m 1,0,-1
 198 487 l 1,1,2
 158 487 158 487 139 484 c 128,-1,3
 120 481 120 481 104.5 468 c 128,-1,4
 89 455 89 455 85 430 c 128,-1,5
 81 405 81 405 81 358 c 1,6,-1
 56 358 l 1,7,8
 56 396 56 396 48 428.5 c 128,-1,9
 40 461 40 461 32 474 c 2,10,-1
 24 487 l 1,11,-1
 24 512 l 1,12,-1
 474 512 l 1,13,-1
 474 487 l 1,14,15
 441 444 441 444 441 358 c 1,16,-1
 417 358 l 1,17,18
 417 405 417 405 413 430 c 128,-1,19
 409 455 409 455 393.5 468 c 128,-1,20
 378 481 378 481 359 484 c 128,-1,21
 340 487 340 487 300 487 c 1,22,-1
 300 0 l 1,23,-1
 198 0 l 1,0,-1
EndSplineSet
Validated: 19457
EndChar

StartChar: afii10083
Encoding: 1089 1089 69
Width: 467
VWidth: 0
Flags: W
HStem: -14 21G<211.5 307> 502 20G<231.5 298>
VStem: 43 102<227.179 342.071>
AnchorPoint: "top" 252 579 basechar 0
LayerCount: 2
Fore
SplineSet
281 391 m 1,0,1
 232 449 232 449 224 463 c 1,2,3
 177 432 177 432 161 401 c 128,-1,4
 145 370 145 370 145 317 c 0,5,6
 145 273 145 273 166 229.5 c 128,-1,7
 187 186 187 186 213 158.5 c 128,-1,8
 239 131 239 131 266.5 99.5 c 128,-1,9
 294 68 294 68 303 49 c 1,10,11
 354 87 354 87 366 127 c 1,12,-1
 422 106 l 1,13,14
 359 23 359 23 255 -14 c 1,15,16
 168 24 168 24 105.5 107.5 c 128,-1,17
 43 191 43 191 43 254 c 0,18,19
 43 292 43 292 64.5 340.5 c 128,-1,20
 86 389 86 389 140 442.5 c 128,-1,21
 194 496 194 496 269 522 c 1,22,23
 327 497 327 497 381 443 c 1,24,-1
 281 391 l 1,0,1
EndSplineSet
Validated: 19457
EndChar

StartChar: afii10085
Encoding: 1091 1091 70
Width: 568
VWidth: 0
Flags: W
HStem: -246 21G<354.5 377> 0 32<325 336> 391 122<429.38 513.047>
VStem: 336 26<-157.714 0 32 149.309>
AnchorPoint: "top" 294 579 basechar 0
LayerCount: 2
Fore
SplineSet
362 -45 m 0,0,1
 362 -122 362 -122 377 -165 c 128,-1,2
 392 -208 392 -208 392 -221 c 0,3,4
 392 -232 392 -232 386.5 -239 c 128,-1,5
 381 -246 381 -246 373 -246 c 0,6,7
 336 -246 336 -246 336 -41 c 2,8,-1
 336 0 l 1,9,-1
 231 0 l 1,10,-1
 48 487 l 2,11,12
 45 496 45 496 45 502 c 0,13,14
 45 513 45 513 61 513 c 2,15,-1
 117 513 l 2,16,17
 135 513 135 513 142 508.5 c 128,-1,18
 149 504 149 504 154 489 c 2,19,-1
 325 32 l 1,20,-1
 337 32 l 1,21,22
 342 212 342 212 366 332 c 128,-1,23
 390 452 390 452 414 490 c 0,24,25
 427 512 427 512 510 513 c 0,26,27
 523 513 523 513 523 501 c 0,28,29
 523 481 523 481 517 436 c 128,-1,30
 511 391 511 391 503 391 c 2,31,-1
 472 391 l 2,32,33
 441 391 441 391 429 384.5 c 128,-1,34
 417 378 417 378 408 358 c 0,35,36
 399 339 399 339 389.5 301 c 128,-1,37
 380 263 380 263 371 170 c 128,-1,38
 362 77 362 77 362 -45 c 0,0,1
EndSplineSet
Validated: 19457
EndChar

StartChar: afii10086
Encoding: 1092 1092 71
Width: 715
VWidth: 0
Flags: W
HStem: 0 28<248.827 297 399 441.176> 422 28<254.824 297 399 447.802>
VStem: 61 103<114.184 336.011> 297 102<-154 0 28 422 450 603> 532 103<114.319 335.305>
CounterMasks: 1 38
AnchorPoint: "top" 351 656 basechar 0
LayerCount: 2
Fore
SplineSet
399 603 m 1,0,-1
 399 450 l 1,1,2
 635 439 635 439 635 224 c 0,3,4
 635 11 635 11 399 0 c 1,5,-1
 399 -154 l 1,6,-1
 297 -154 l 1,7,-1
 297 0 l 1,8,9
 61 11 61 11 61 225 c 128,-1,10
 61 439 61 439 297 450 c 1,11,-1
 297 603 l 1,12,-1
 399 603 l 1,0,-1
399 423 m 1,13,-1
 399 28 l 1,14,15
 462 37 462 37 497 80.5 c 128,-1,16
 532 124 532 124 532 225 c 128,-1,17
 532 326 532 326 497 370 c 128,-1,18
 462 414 462 414 399 423 c 1,13,-1
297 28 m 1,19,-1
 297 422 l 1,20,21
 234 413 234 413 199 369 c 128,-1,22
 164 325 164 325 164 224 c 128,-1,23
 164 123 164 123 199 80 c 128,-1,24
 234 37 234 37 297 28 c 1,19,-1
EndSplineSet
Validated: 19457
EndChar

StartChar: afii10087
Encoding: 1093 1093 72
Width: 510
VWidth: 0
Flags: W
HStem: 0 21G<51 103.182 330.455 460> 390 122<342.161 442.321>
AnchorPoint: "top" 253 579 basechar 0
LayerCount: 2
Fore
SplineSet
102 512 m 2,0,-1
 164 512 l 1,1,-1
 255 355 l 1,2,-1
 332 489 l 2,3,4
 337 498 337 498 342 501.5 c 128,-1,5
 347 505 347 505 370 508.5 c 128,-1,6
 393 512 393 512 438 512 c 0,7,8
 453 512 453 512 453 500 c 0,9,10
 453 481 453 481 446.5 435.5 c 128,-1,11
 440 390 440 390 432 390 c 2,12,-1
 373 390 l 2,13,14
 308 390 308 390 297 368 c 1,15,-1
 272 324 l 1,16,-1
 460 0 l 1,17,-1
 342 0 l 1,18,-1
 215 220 l 1,19,-1
 92 0 l 1,20,-1
 51 0 l 1,21,-1
 197 253 l 1,22,-1
 78 458 l 2,23,24
 70 471 70 471 70 485 c 0,25,26
 70 512 70 512 102 512 c 2,0,-1
EndSplineSet
Validated: 19457
EndChar

StartChar: afii10101
Encoding: 1108 1108 73
Width: 467
VWidth: 0
Flags: W
HStem: -14 21G<211.5 307> 261 25<154 353> 502 20G<231.5 298>
VStem: 43 102<286 342.071>
AnchorPoint: "top" 282 579 basechar 0
LayerCount: 2
Fore
SplineSet
281 391 m 1,0,1
 232 449 232 449 224 463 c 1,2,3
 177 432 177 432 161 401 c 128,-1,4
 145 370 145 370 145 317 c 0,5,6
 145 301 145 301 148 286 c 1,7,-1
 353 286 l 1,8,-1
 353 261 l 1,9,-1
 154 261 l 1,10,11
 167 219 167 219 198.5 178 c 128,-1,12
 230 137 230 137 262 103 c 128,-1,13
 294 69 294 69 303 49 c 1,14,15
 354 87 354 87 366 127 c 1,16,-1
 422 106 l 1,17,18
 359 23 359 23 255 -14 c 1,19,20
 168 24 168 24 105.5 107.5 c 128,-1,21
 43 191 43 191 43 254 c 0,22,23
 43 292 43 292 64.5 340.5 c 128,-1,24
 86 389 86 389 140 442.5 c 128,-1,25
 194 496 194 496 269 522 c 1,26,27
 327 497 327 497 381 443 c 1,28,-1
 281 391 l 1,0,1
EndSplineSet
Validated: 19457
EndChar

StartChar: afii10095
Encoding: 1101 1101 74
Width: 488
VWidth: 0
Flags: W
HStem: -14 21G<165 260.5> 261 25<119 318> 502 20G<174 240.5>
VStem: 327 102<286 342.071>
AnchorPoint: "top" 246 579 basechar 0
LayerCount: 2
Fore
SplineSet
191 391 m 1,0,-1
 91 443 l 1,1,2
 145 497 145 497 203 522 c 1,3,4
 278 496 278 496 332 442.5 c 128,-1,5
 386 389 386 389 407.5 340.5 c 128,-1,6
 429 292 429 292 429 254 c 0,7,8
 429 191 429 191 366.5 107.5 c 128,-1,9
 304 24 304 24 217 -14 c 1,10,11
 113 23 113 23 50 106 c 1,12,-1
 106 127 l 1,13,14
 118 87 118 87 169 49 c 1,15,16
 178 69 178 69 210 103 c 128,-1,17
 242 137 242 137 273.5 178 c 128,-1,18
 305 219 305 219 318 261 c 1,19,-1
 119 261 l 1,20,-1
 119 286 l 1,21,-1
 324 286 l 1,22,23
 327 301 327 301 327 317 c 0,24,25
 327 370 327 370 311 401 c 128,-1,26
 295 432 295 432 248 463 c 1,27,28
 240 449 240 449 191 391 c 1,0,-1
EndSplineSet
Validated: 19457
EndChar

StartChar: afii10088
Encoding: 1094 1094 75
Width: 645
VWidth: 0
Flags: W
HStem: 0 25<183 357 460 473.255> 492 20G<81 183 357 460>
VStem: 81 102<25 512> 357 103<25 512> 535 24<-158 -95.8438>
AnchorPoint: "top" 271 579 basechar 0
LayerCount: 2
Fore
SplineSet
357 512 m 1,0,-1
 460 512 l 1,1,-1
 460 25 l 1,2,-1
 612 25 l 1,3,-1
 612 0 l 1,4,5
 606 -8 606 -8 597 -22.5 c 128,-1,6
 588 -37 588 -37 573.5 -78.5 c 128,-1,7
 559 -120 559 -120 559 -158 c 1,8,-1
 535 -158 l 1,9,10
 535 -119 535 -119 514.5 -73.5 c 128,-1,11
 494 -28 494 -28 460 0 c 1,12,-1
 81 0 l 1,13,-1
 81 512 l 1,14,-1
 183 512 l 1,15,-1
 183 25 l 1,16,-1
 357 25 l 1,17,-1
 357 512 l 1,0,-1
EndSplineSet
Validated: 19457
EndChar

StartChar: afii10089
Encoding: 1095 1095 76
Width: 485
VWidth: 0
Flags: W
HStem: 0 21G<306 409> 195 24<186.85 272.343> 492 20G<50 153 306 409>
VStem: 50 103<272.922 512> 306 103<0 207 240.446 512>
AnchorPoint: "top" 234 579 basechar 0
LayerCount: 2
Fore
SplineSet
306 512 m 1,0,-1
 409 512 l 1,1,-1
 409 0 l 1,2,-1
 306 0 l 1,3,-1
 306 207 l 1,4,5
 270 195 270 195 229 195 c 0,6,7
 152 195 152 195 101 237.5 c 128,-1,8
 50 280 50 280 50 375 c 2,9,-1
 50 512 l 1,10,-1
 153 512 l 1,11,-1
 153 342 l 2,12,13
 153 300 153 300 160 273 c 128,-1,14
 167 246 167 246 180 235.5 c 128,-1,15
 193 225 193 225 203.5 222 c 128,-1,16
 214 219 214 219 229 219 c 128,-1,17
 244 219 244 219 254.5 222 c 128,-1,18
 265 225 265 225 278.5 235.5 c 128,-1,19
 292 246 292 246 299 273 c 128,-1,20
 306 300 306 300 306 342 c 2,21,-1
 306 512 l 1,0,-1
EndSplineSet
Validated: 19457
EndChar

StartChar: afii10090
Encoding: 1096 1096 77
Width: 770
VWidth: 0
Flags: W
HStem: 0 25<181 335 437 591> 492 20G<79 181 335 437 591 693>
VStem: 79 102<25 512> 335 102<25 512> 591 102<25 512>
CounterMasks: 1 38
AnchorPoint: "top" 390 579 basechar 0
LayerCount: 2
Fore
SplineSet
591 512 m 1,0,-1
 693 512 l 1,1,-1
 693 0 l 1,2,-1
 79 0 l 1,3,-1
 79 512 l 1,4,-1
 181 512 l 1,5,-1
 181 25 l 1,6,-1
 335 25 l 1,7,-1
 335 512 l 1,8,-1
 437 512 l 1,9,-1
 437 25 l 1,10,-1
 591 25 l 1,11,-1
 591 512 l 1,0,-1
EndSplineSet
Validated: 19457
EndChar

StartChar: afii10091
Encoding: 1097 1097 78
Width: 770
VWidth: 0
Flags: W
HStem: -205 21G<335 437> 0 25<181 335 437 591> 492 20G<79 181 335 437 591 693>
VStem: 79 102<25 512> 335 102<-205 0 25 512> 591 102<25 512>
CounterMasks: 1 1c
AnchorPoint: "top" 388 579 basechar 0
LayerCount: 2
Fore
SplineSet
591 512 m 1,0,-1
 693 512 l 1,1,-1
 693 0 l 1,2,-1
 437 0 l 1,3,-1
 437 -205 l 1,4,-1
 335 -205 l 1,5,-1
 335 0 l 1,6,-1
 79 0 l 1,7,-1
 79 512 l 1,8,-1
 181 512 l 1,9,-1
 181 25 l 1,10,-1
 335 25 l 1,11,-1
 335 512 l 1,12,-1
 437 512 l 1,13,-1
 437 25 l 1,14,-1
 591 25 l 1,15,-1
 591 512 l 1,0,-1
EndSplineSet
Validated: 19457
EndChar

StartChar: afii10092
Encoding: 1098 1098 79
Width: 651
VWidth: 0
Flags: W
HStem: 0 25<308 482> 487 25<113.551 206>
VStem: 56 25<358 445.056> 206 102<25 300 328 487>
AnchorPoint: "top" 259 579 basechar 0
LayerCount: 2
Fore
SplineSet
206 487 m 1,0,-1
 187 487 l 2,1,2
 119 487 119 487 100 464 c 128,-1,3
 81 441 81 441 81 358 c 1,4,-1
 56 358 l 1,5,6
 56 396 56 396 48 428.5 c 128,-1,7
 40 461 40 461 32 474 c 2,8,-1
 24 487 l 1,9,-1
 24 512 l 1,10,-1
 308 512 l 1,11,-1
 308 328 l 1,12,-1
 386 373 l 1,13,14
 429 338 429 338 496.5 238 c 128,-1,15
 564 138 564 138 617 0 c 1,16,-1
 206 0 l 1,17,-1
 206 487 l 1,0,-1
308 25 m 1,18,-1
 482 25 l 1,19,20
 457 121 457 121 419 201 c 128,-1,21
 381 281 381 281 349 323 c 1,22,-1
 308 300 l 1,23,-1
 308 25 l 1,18,-1
EndSplineSet
Validated: 19457
EndChar

StartChar: afii10096
Encoding: 1102 1102 81
Width: 731
VWidth: 0
Flags: W
HStem: 0 7G<79 181 401.5 482.5> 261 25<181 233> 492 20G<79 181 427.5 503.5>
VStem: 79 102<0 261 286 512> 564 108<165.996 289.128>
AnchorPoint: "top" 306 579 basechar 0
LayerCount: 2
Fore
SplineSet
79 512 m 1,0,-1
 181 512 l 1,1,-1
 181 286 l 1,2,-1
 238 286 l 1,3,4
 247 327 247 327 271 369 c 128,-1,5
 295 411 295 411 345 455 c 128,-1,6
 395 499 395 499 460 522 c 1,7,8
 547 484 547 484 609.5 400.5 c 128,-1,9
 672 317 672 317 672 254 c 0,10,11
 672 216 672 216 650.5 167.5 c 128,-1,12
 629 119 629 119 574.5 65.5 c 128,-1,13
 520 12 520 12 445 -14 c 1,14,15
 358 24 358 24 295.5 107.5 c 128,-1,16
 233 191 233 191 233 254 c 2,17,-1
 233 261 l 1,18,-1
 181 261 l 1,19,-1
 181 0 l 1,20,-1
 79 0 l 1,21,-1
 79 512 l 1,0,-1
494 49 m 1,22,23
 537 81 537 81 550.5 111.5 c 128,-1,24
 564 142 564 142 564 196 c 0,25,26
 564 239 564 239 545.5 281.5 c 128,-1,27
 527 324 527 324 504 352 c 128,-1,28
 481 380 481 380 453 413 c 128,-1,29
 425 446 425 446 415 463 c 1,30,31
 368 432 368 432 352 401 c 128,-1,32
 336 370 336 370 336 317 c 0,33,34
 336 273 336 273 357 229.5 c 128,-1,35
 378 186 378 186 404 158.5 c 128,-1,36
 430 131 430 131 457.5 99.5 c 128,-1,37
 485 68 485 68 494 49 c 1,22,23
EndSplineSet
Validated: 19457
EndChar

StartChar: afii10097
Encoding: 1103 1103 82
Width: 486
VWidth: 0
Flags: W
HStem: 0 21G<56 159 323 425> 262 27<272.608 323> 487 25<159 323>
VStem: 56 103<0 132.486 381.039 487> 323 102<0 262 289 487>
AnchorPoint: "top" 244 579 basechar 0
LayerCount: 2
Fore
SplineSet
323 487 m 1,0,-1
 159 487 l 1,1,2
 163 304 163 304 323 289 c 1,3,-1
 323 487 l 1,0,-1
323 0 m 1,4,-1
 323 262 l 1,5,6
 261 262 261 262 210 195.5 c 128,-1,7
 159 129 159 129 159 0 c 1,8,-1
 56 0 l 1,9,10
 56 212 56 212 222 270 c 1,11,12
 127 286 127 286 91.5 340.5 c 128,-1,13
 56 395 56 395 56 512 c 1,14,-1
 425 512 l 1,15,-1
 425 0 l 1,16,-1
 323 0 l 1,4,-1
EndSplineSet
Validated: 19457
EndChar

StartChar: afii10102
Encoding: 1109 1109 83
Width: 570
VWidth: 0
Flags: W
HStem: -10 26<284.662 366.833> 39 67<114.5 204.5> 279 24<252.605 342.426> 498 24<246.842 338.963>
VStem: 103 103<335.184 469.744> 375 102<367.421 451.855> 408 102<74.4119 233.017>
AnchorPoint: "top" 294 579 basechar 0
LayerCount: 2
Fore
SplineSet
191 39 m 0,0,1
 182 39 182 39 155 10 c 128,-1,2
 128 -19 128 -19 116 -19 c 0,3,4
 96 -19 96 -19 73.5 -1 c 128,-1,5
 51 17 51 17 51 39 c 0,6,7
 51 49 51 49 78 77.5 c 128,-1,8
 105 106 105 106 124 106 c 0,9,10
 152 106 152 106 224.5 61 c 128,-1,11
 297 16 297 16 335 16 c 0,12,13
 365 16 365 16 386.5 52.5 c 128,-1,14
 408 89 408 89 408 146 c 0,15,16
 408 279 408 279 280 279 c 0,17,18
 197 279 197 279 150 312.5 c 128,-1,19
 103 346 103 346 103 395 c 0,20,21
 103 466 103 466 149.5 494 c 128,-1,22
 196 522 196 522 292 522 c 0,23,24
 387 522 387 522 432 479 c 128,-1,25
 477 436 477 436 477 377 c 0,26,27
 477 366 477 366 428 366 c 0,28,29
 375 366 375 366 375 377 c 0,30,31
 375 441 375 441 356 469.5 c 128,-1,32
 337 498 337 498 292 498 c 0,33,34
 253 498 253 498 229.5 471.5 c 128,-1,35
 206 445 206 445 206 394 c 0,36,37
 206 359 206 359 231.5 331 c 128,-1,38
 257 303 257 303 304 303 c 0,39,40
 412 303 412 303 461 264.5 c 128,-1,41
 510 226 510 226 510 165 c 0,42,43
 510 88 510 88 461 39 c 128,-1,44
 412 -10 412 -10 329 -10 c 0,45,46
 298 -10 298 -10 258 14.5 c 128,-1,47
 218 39 218 39 191 39 c 0,0,1
EndSplineSet
Validated: 19457
EndChar

StartChar: dieresis
Encoding: 168 168 84
Width: 311
VWidth: 0
Flags: W
HStem: 735 131<20 101 170 251>
VStem: 20 81<735 866> 170 81<735 866>
LayerCount: 2
Fore
SplineSet
180 735 m 18,0,1
 170 735 170 735 170 745 c 2,2,-1
 170 856 l 2,3,4
 170 866 170 866 180 866 c 2,5,-1
 241 866 l 2,6,7
 251 866 251 866 251 856 c 2,8,-1
 251 745 l 2,9,10
 251 735 251 735 241 735 c 2,11,-1
 180 735 l 18,0,1
31 735 m 18,12,13
 27 735 27 735 23.5 738 c 128,-1,14
 20 741 20 741 20 745 c 2,15,-1
 20 856 l 2,16,17
 20 860 20 860 23.5 863 c 128,-1,18
 27 866 27 866 31 866 c 2,19,-1
 91 866 l 2,20,21
 101 866 101 866 101 856 c 2,22,-1
 101 745 l 2,23,24
 101 735 101 735 91 735 c 2,25,-1
 31 735 l 18,12,13
EndSplineSet
Validated: 19457
EndChar

StartChar: period
Encoding: 46 46 87
Width: 191
VWidth: 0
Flags: W
HStem: 0 102<45 146>
VStem: 45 101<0 102>
LayerCount: 2
Fore
SplineSet
55 0 m 18,0,1
 45 0 45 0 45 10 c 2,2,-1
 45 92 l 2,3,4
 45 102 45 102 55 102 c 2,5,-1
 136 102 l 2,6,7
 146 102 146 102 146 92 c 2,8,-1
 146 10 l 2,9,10
 146 0 146 0 136 0 c 2,11,-1
 55 0 l 18,0,1
EndSplineSet
Validated: 19457
EndChar

StartChar: comma
Encoding: 44 44 88
Width: 192
VWidth: 0
Flags: W
HStem: -125 227<47 55 70 90.6023>
VStem: 45 101<-16.9824 102>
LayerCount: 2
Fore
SplineSet
146 72 m 18,0,1
 146 22 146 22 128.5 -26 c 128,-1,2
 111 -74 111 -74 97 -94 c 128,-1,3
 83 -114 83 -114 72 -125 c 1,4,-1
 47 -125 l 1,5,6
 70 -74 70 -74 70 -34 c 0,7,8
 70 -22 70 -22 57.5 18 c 128,-1,9
 45 58 45 58 45 92 c 0,10,11
 45 102 45 102 55 102 c 2,12,-1
 136 102 l 2,13,14
 146 102 146 102 146 92 c 2,15,-1
 146 72 l 18,0,1
EndSplineSet
Validated: 19457
EndChar

StartChar: afii61352
Encoding: 8470 8470 89
Width: 1085
VWidth: 0
Flags: W
HStem: -10 141<806.174 905.342> 0 24<61 120.647 265.353 325 386 445.647 589.838 649> 693 24<61 120.647 265.353 325 386 445.647 590.353 649>
VStem: 132 122<34.3208 461 510 682.164> 457 122<34.3208 218 269 682.164> 675 83<364.466 472.602> 784 143<11.1427 109.342> 942 87<317.115 432.281>
LayerCount: 2
Fore
SplineSet
784 60 m 128,-1,1
 784 89 784 89 805.5 110 c 128,-1,2
 827 131 827 131 856 131 c 128,-1,3
 885 131 885 131 906 110 c 128,-1,4
 927 89 927 89 927 60 c 128,-1,5
 927 31 927 31 906 10.5 c 128,-1,6
 885 -10 885 -10 856 -10 c 128,-1,7
 827 -10 827 -10 805.5 10.5 c 128,-1,0
 784 31 784 31 784 60 c 128,-1,1
858 612 m 1,8,9
 928 581 928 581 978.5 514 c 128,-1,10
 1029 447 1029 447 1029 395 c 0,11,12
 1029 344 1029 344 981.5 276.5 c 128,-1,13
 934 209 934 209 846 178 c 1,14,15
 776 209 776 209 725.5 276 c 128,-1,16
 675 343 675 343 675 395 c 0,17,18
 675 446 675 446 722.5 513.5 c 128,-1,19
 770 581 770 581 858 612 c 1,8,9
885 229 m 1,20,21
 920 255 920 255 931 280 c 128,-1,22
 942 305 942 305 942 348 c 0,23,24
 942 382 942 382 927 416.5 c 128,-1,25
 912 451 912 451 893.5 474 c 128,-1,26
 875 497 875 497 852 523.5 c 128,-1,27
 829 550 829 550 821 564 c 1,28,29
 783 539 783 539 770.5 514 c 128,-1,30
 758 489 758 489 758 446 c 0,31,32
 758 410 758 410 775 375 c 128,-1,33
 792 340 792 340 812.5 317.5 c 128,-1,34
 833 295 833 295 855.5 269.5 c 128,-1,35
 878 244 878 244 885 229 c 1,20,21
579 88 m 2,36,37
 579 44 579 44 589.5 34 c 128,-1,38
 600 24 600 24 649 24 c 1,39,-1
 649 0 l 1,40,-1
 386 0 l 1,41,-1
 386 24 l 1,42,43
 435 24 435 24 446 34 c 128,-1,44
 457 44 457 44 457 88 c 2,45,-1
 457 218 l 1,46,-1
 254 461 l 1,47,-1
 254 88 l 2,48,49
 254 44 254 44 265 34 c 128,-1,50
 276 24 276 24 325 24 c 1,51,-1
 325 0 l 1,52,-1
 61 0 l 1,53,-1
 61 24 l 1,54,55
 110 24 110 24 121 34 c 128,-1,56
 132 44 132 44 132 88 c 2,57,-1
 132 628 l 2,58,59
 132 672 132 672 121 682.5 c 128,-1,60
 110 693 110 693 61 693 c 1,61,-1
 61 717 l 1,62,-1
 325 717 l 1,63,-1
 325 693 l 1,64,65
 276 693 276 693 265 682.5 c 128,-1,66
 254 672 254 672 254 628 c 2,67,-1
 254 510 l 1,68,-1
 457 269 l 1,69,-1
 457 628 l 2,70,71
 457 672 457 672 446 682.5 c 128,-1,72
 435 693 435 693 386 693 c 1,73,-1
 386 717 l 1,74,-1
 649 717 l 1,75,-1
 649 693 l 1,76,77
 601 693 601 693 590 683 c 128,-1,78
 579 673 579 673 579 628 c 2,79,-1
 579 88 l 2,36,37
EndSplineSet
Validated: 19457
EndChar

StartChar: n
Encoding: 110 110 111
Width: 501
VWidth: 0
Flags: W
HStem: 0 21G<61 164 338 440> 492 20G<61 164 338 440>
VStem: 61 103<0 371 439 512> 338 102<0 123 190 512>
AnchorPoint: "top" 249 579 basechar 0
LayerCount: 2
Fore
SplineSet
164 0 m 1,0,-1
 61 0 l 1,1,-1
 61 512 l 1,2,-1
 164 512 l 1,3,-1
 164 439 l 1,4,-1
 338 190 l 1,5,-1
 338 512 l 1,6,-1
 440 512 l 1,7,-1
 440 0 l 1,8,-1
 338 0 l 1,9,-1
 338 123 l 1,10,-1
 164 371 l 1,11,-1
 164 0 l 1,0,-1
EndSplineSet
Validated: 19457
EndChar

StartChar: D
Encoding: 68 68 118
Width: 693
VWidth: 0
Flags: W
HStem: 0 25<61 120.647 265.353 377.67> 692 25<61 120.647 265.353 377.97>
VStem: 132 122<34.8053 681.679> 499 128<176.751 522.595>
AnchorPoint: "top" 324 748 basechar 0
LayerCount: 2
Fore
SplineSet
254 628 m 2,0,-1
 254 88 l 2,1,2
 254 44 254 44 265 34.5 c 128,-1,3
 276 25 276 25 325 25 c 0,4,5
 403 25 403 25 451 113.5 c 128,-1,6
 499 202 499 202 499 341 c 0,7,8
 499 510 499 510 452 601 c 128,-1,9
 405 692 405 692 325 692 c 0,10,11
 276 692 276 692 265 682 c 128,-1,12
 254 672 254 672 254 628 c 2,0,-1
325 717 m 2,13,14
 487 717 487 717 557 623.5 c 128,-1,15
 627 530 627 530 627 341 c 0,16,17
 627 171 627 171 556.5 85.5 c 128,-1,18
 486 0 486 0 325 0 c 2,19,-1
 61 0 l 1,20,-1
 61 24 l 1,21,22
 110 24 110 24 121 34 c 128,-1,23
 132 44 132 44 132 88 c 2,24,-1
 132 628 l 2,25,26
 132 672 132 672 121 682.5 c 128,-1,27
 110 693 110 693 61 693 c 1,28,-1
 61 717 l 1,29,-1
 325 717 l 2,13,14
EndSplineSet
Validated: 19457
EndChar

StartChar: F
Encoding: 70 70 119
Width: 584
VWidth: 0
Flags: W
HStem: 0 24<61 120.647 265.353 325> 346 25<254 453> 692 25<61 120.647 265.353 372.503>
VStem: 132 122<34.3208 346 371 681.164> 446 25<535 599.061>
AnchorPoint: "top" 330 748 basechar 0
LayerCount: 2
Fore
SplineSet
325 0 m 1,0,-1
 61 0 l 1,1,-1
 61 24 l 1,2,3
 110 24 110 24 121 34 c 128,-1,4
 132 44 132 44 132 88 c 2,5,-1
 132 627 l 2,6,7
 132 671 132 671 121 681.5 c 128,-1,8
 110 692 110 692 61 692 c 1,9,-1
 61 717 l 1,10,-1
 524 717 l 1,11,-1
 524 692 l 1,12,13
 518 684 518 684 509 670 c 128,-1,14
 500 656 500 656 485.5 614.5 c 128,-1,15
 471 573 471 573 471 535 c 1,16,-1
 446 535 l 1,17,18
 446 589 446 589 412.5 640.5 c 128,-1,19
 379 692 379 692 325 692 c 0,20,21
 276 692 276 692 265 681.5 c 128,-1,22
 254 671 254 671 254 627 c 2,23,-1
 254 371 l 1,24,-1
 453 371 l 1,25,-1
 453 346 l 1,26,-1
 254 346 l 1,27,-1
 254 88 l 2,28,29
 254 44 254 44 265 34 c 128,-1,30
 276 24 276 24 325 24 c 1,31,-1
 325 0 l 1,0,-1
EndSplineSet
Validated: 19457
EndChar

StartChar: f
Encoding: 102 102 120
Width: 459
VWidth: 0
Flags: W
HStem: 0 21G<84 186> 358 25<186 394>
VStem: 84 102<0 358 383 435.603>
AnchorPoint: "top" 278 646 basechar 0
LayerCount: 2
Fore
SplineSet
84 0 m 1,0,-1
 84 351 l 2,1,2
 84 378 84 378 97 413.5 c 128,-1,3
 110 449 110 449 135.5 488.5 c 128,-1,4
 161 528 161 528 207 564 c 128,-1,5
 253 600 253 600 310 620 c 1,6,7
 368 595 368 595 422 541 c 1,8,-1
 322 488 l 1,9,10
 273 546 273 546 265 560 c 1,11,12
 217 529 217 529 201.5 498.5 c 128,-1,13
 186 468 186 468 186 415 c 2,14,-1
 186 383 l 1,15,-1
 394 383 l 1,16,-1
 394 358 l 1,17,-1
 186 358 l 1,18,-1
 186 0 l 1,19,-1
 84 0 l 1,0,-1
EndSplineSet
Validated: 19457
EndChar

StartChar: d
Encoding: 100 100 122
Width: 562
VWidth: 0
Flags: W
HStem: -10 21G<221.5 302.5> 707 20G<420 445.146>
VStem: 53 108<218.552 340.226> 317 107<521.071 649.573> 389 103<169.929 365.883>
AnchorPoint: "top" 407 765 basechar 0
LayerCount: 2
Fore
SplineSet
321 522 m 1,0,1
 317 552 317 552 317 574 c 0,2,3
 317 603 317 603 328.5 629 c 128,-1,4
 340 655 340 655 357 672 c 128,-1,5
 374 689 374 689 391 702 c 128,-1,6
 408 715 408 715 420 721 c 2,7,-1
 431 727 l 1,8,-1
 460 686 l 1,9,10
 456 683 456 683 450 676.5 c 128,-1,11
 444 670 444 670 434 647 c 128,-1,12
 424 624 424 624 424 598 c 0,13,14
 424 536 424 536 434.5 494 c 128,-1,15
 445 452 445 452 458 431.5 c 128,-1,16
 471 411 471 411 481.5 367 c 128,-1,17
 492 323 492 323 492 258 c 0,18,19
 492 220 492 220 470.5 171.5 c 128,-1,20
 449 123 449 123 394.5 69.5 c 128,-1,21
 340 16 340 16 265 -10 c 1,22,23
 178 28 178 28 115.5 109 c 128,-1,24
 53 190 53 190 53 253 c 0,25,26
 53 304 53 304 87 364 c 128,-1,27
 121 424 121 424 185 470.5 c 128,-1,28
 249 517 249 517 321 522 c 1,0,1
329 478 m 1,29,30
 161 465 161 465 161 311 c 0,31,32
 161 268 161 268 179.5 226.5 c 128,-1,33
 198 185 198 185 221 157.5 c 128,-1,34
 244 130 244 130 272 98 c 128,-1,35
 300 66 300 66 310 49 c 1,36,37
 357 80 357 80 373 111 c 128,-1,38
 389 142 389 142 389 195 c 0,39,40
 389 264 389 264 379.5 313 c 128,-1,41
 370 362 370 362 352 409.5 c 128,-1,42
 334 457 334 457 329 478 c 1,29,30
EndSplineSet
Validated: 19457
EndChar

StartChar: G
Encoding: 71 71 123
Width: 691
VWidth: 0
Flags: W
HStem: -10 24<267.525 379.344> 259 25<380 439.647 585.967 643> 523 21G<451 572> 703 25<265.644 380.39>
VStem: 54 128<184.434 532.972> 451 121<523 597.487>
AnchorPoint: "top" 324 748 basechar 0
LayerCount: 2
Fore
SplineSet
451 523 m 1,0,1
 451 613 451 613 420 658 c 128,-1,2
 389 703 389 703 319 703 c 0,3,4
 277 703 277 703 249 679.5 c 128,-1,5
 221 656 221 656 207 607.5 c 128,-1,6
 193 559 193 559 187.5 501 c 128,-1,7
 182 443 182 443 182 358 c 0,8,9
 182 272 182 272 187.5 214.5 c 128,-1,10
 193 157 193 157 207 108.5 c 128,-1,11
 221 60 221 60 249 37 c 128,-1,12
 277 14 277 14 319 14 c 0,13,14
 389 14 389 14 420 59.5 c 128,-1,15
 451 105 451 105 451 195 c 0,16,17
 451 239 451 239 440 249.5 c 128,-1,18
 429 260 429 260 380 260 c 1,19,-1
 380 284 l 1,20,-1
 643 284 l 1,21,-1
 643 260 l 1,22,23
 633 260 633 260 625.5 259.5 c 128,-1,24
 618 259 618 259 611.5 259 c 128,-1,25
 605 259 605 259 601 257 c 128,-1,26
 597 255 597 255 593.5 254 c 128,-1,27
 590 253 590 253 587.5 249 c 128,-1,28
 585 245 585 245 583.5 243 c 128,-1,29
 582 241 582 241 580.5 234.5 c 128,-1,30
 579 228 579 228 578 224.5 c 128,-1,31
 577 221 577 221 575 211 c 128,-1,32
 573 201 573 201 572 195 c 0,33,34
 549 87 549 87 493 38.5 c 128,-1,35
 437 -10 437 -10 317 -10 c 0,36,37
 183 -10 183 -10 118.5 89.5 c 128,-1,38
 54 189 54 189 54 359 c 0,39,40
 54 528 54 528 118.5 628 c 128,-1,41
 183 728 183 728 317 728 c 0,42,43
 438 728 438 728 494.5 679 c 128,-1,44
 551 630 551 630 572 523 c 1,45,-1
 451 523 l 1,0,1
EndSplineSet
Validated: 19457
EndChar

StartChar: g
Encoding: 103 103 124
Width: 539
VWidth: 0
Flags: W
HStem: -205 26<259.799 336.897> -164 60<104 203.914> -14 21G<229.5 297.5> 502 20G<250.5 316>
VStem: 61 103<227.179 342.071> 364 102<-137.23 32 63.8125 283>
AnchorPoint: "top" 252 579 basechar 0
LayerCount: 2
Fore
SplineSet
299 391 m 1,0,1
 252 446 252 446 243 463 c 1,2,3
 196 432 196 432 180 401 c 128,-1,4
 164 370 164 370 164 317 c 0,5,6
 164 273 164 273 185 229.5 c 128,-1,7
 206 186 206 186 232 158.5 c 128,-1,8
 258 131 258 131 285.5 99.5 c 128,-1,9
 313 68 313 68 322 49 c 1,10,11
 352 71 352 71 364 81 c 1,12,-1
 364 283 l 1,13,-1
 466 283 l 1,14,-1
 466 -30 l 2,15,16
 466 -121 466 -121 425 -163 c 128,-1,17
 384 -205 384 -205 299 -205 c 0,18,19
 270 -205 270 -205 237 -184.5 c 128,-1,20
 204 -164 204 -164 182 -164 c 0,21,22
 173 -164 173 -164 148 -189.5 c 128,-1,23
 123 -215 123 -215 111 -215 c 0,24,25
 91 -215 91 -215 68.5 -197 c 128,-1,26
 46 -179 46 -179 46 -157 c 0,27,28
 46 -144 46 -144 70 -124 c 128,-1,29
 94 -104 94 -104 114 -104 c 0,30,31
 151 -104 151 -104 180.5 -115.5 c 128,-1,32
 210 -127 210 -127 225.5 -141.5 c 128,-1,33
 241 -156 241 -156 262 -167.5 c 128,-1,34
 283 -179 283 -179 305 -179 c 0,35,36
 364 -179 364 -179 364 -62 c 2,37,-1
 364 32 l 1,38,39
 322 3 322 3 273 -14 c 1,40,41
 186 24 186 24 123.5 107.5 c 128,-1,42
 61 191 61 191 61 254 c 0,43,44
 61 292 61 292 82.5 340.5 c 128,-1,45
 104 389 104 389 158.5 442.5 c 128,-1,46
 213 496 213 496 288 522 c 1,47,48
 344 498 344 498 399 443 c 1,49,-1
 299 391 l 1,0,1
EndSplineSet
Validated: 19457
EndChar

StartChar: H
Encoding: 72 72 125
Width: 710
VWidth: 0
Flags: W
HStem: 0 24<61 120.647 265.353 325 386 445.647 589.838 649> 347 25<254 457> 693 24<61 120.647 265.353 325 386 445.647 590.353 649>
VStem: 132 122<34.3208 347 372 682.164> 457 122<34.3208 347 372 682.164>
AnchorPoint: "top" 356 748 basechar 0
LayerCount: 2
Fore
SplineSet
579 88 m 2,0,1
 579 44 579 44 589.5 34 c 128,-1,2
 600 24 600 24 649 24 c 1,3,-1
 649 0 l 1,4,-1
 386 0 l 1,5,-1
 386 24 l 1,6,7
 435 24 435 24 446 34 c 128,-1,8
 457 44 457 44 457 88 c 2,9,-1
 457 347 l 1,10,-1
 254 347 l 1,11,-1
 254 88 l 2,12,13
 254 44 254 44 265 34 c 128,-1,14
 276 24 276 24 325 24 c 1,15,-1
 325 0 l 1,16,-1
 61 0 l 1,17,-1
 61 24 l 1,18,19
 110 24 110 24 121 34 c 128,-1,20
 132 44 132 44 132 88 c 2,21,-1
 132 628 l 2,22,23
 132 672 132 672 121 682.5 c 128,-1,24
 110 693 110 693 61 693 c 1,25,-1
 61 717 l 1,26,-1
 325 717 l 1,27,-1
 325 693 l 1,28,29
 276 693 276 693 265 682.5 c 128,-1,30
 254 672 254 672 254 628 c 2,31,-1
 254 372 l 1,32,-1
 457 372 l 1,33,-1
 457 628 l 2,34,35
 457 672 457 672 446 682.5 c 128,-1,36
 435 693 435 693 386 693 c 1,37,-1
 386 717 l 1,38,-1
 649 717 l 1,39,-1
 649 693 l 1,40,41
 601 693 601 693 590 683 c 128,-1,42
 579 673 579 673 579 628 c 2,43,-1
 579 88 l 2,0,1
EndSplineSet
Validated: 19457
EndChar

StartChar: h
Encoding: 104 104 126
Width: 552
VWidth: 0
Flags: W
HStem: 0 21G<87 189 384 486> 498 24<235.643 338.549>
VStem: 87 102<0 467.457 510 614> 384 102<0 435.196>
AnchorPoint: "top" 141 654 basechar 0
LayerCount: 2
Fore
SplineSet
189 0 m 1,0,-1
 87 0 l 1,1,-1
 87 614 l 1,2,-1
 189 614 l 1,3,-1
 189 510 l 1,4,5
 225 522 225 522 287 522 c 0,6,7
 323 522 323 522 356.5 512.5 c 128,-1,8
 390 503 390 503 420 483.5 c 128,-1,9
 450 464 450 464 468 427.5 c 128,-1,10
 486 391 486 391 486 342 c 2,11,-1
 486 0 l 1,12,-1
 384 0 l 1,13,-1
 384 375 l 2,14,15
 384 417 384 417 374 444 c 128,-1,16
 364 471 364 471 346.5 481.5 c 128,-1,17
 329 492 329 492 316.5 495 c 128,-1,18
 304 498 304 498 287 498 c 128,-1,19
 270 498 270 498 257.5 495 c 128,-1,20
 245 492 245 492 227 481.5 c 128,-1,21
 209 471 209 471 199 444 c 128,-1,22
 189 417 189 417 189 375 c 2,23,-1
 189 0 l 1,0,-1
EndSplineSet
Validated: 19457
EndChar

StartChar: i
Encoding: 105 105 127
Width: 271
VWidth: 0
Flags: W
HStem: 0 21G<86 188> 492 20G<86 188> 582 105<97 178>
VStem: 86 102<0 512> 97 81<582 687>
AnchorPoint: "top" 138 716 basechar 0
LayerCount: 2
Fore
SplineSet
108 582 m 18,0,1
 104 582 104 582 100.5 585 c 128,-1,2
 97 588 97 588 97 592 c 2,3,-1
 97 677 l 2,4,5
 97 681 97 681 100.5 684 c 128,-1,6
 104 687 104 687 108 687 c 2,7,-1
 168 687 l 2,8,9
 178 687 178 687 178 677 c 2,10,-1
 178 592 l 2,11,12
 178 582 178 582 168 582 c 2,13,-1
 108 582 l 18,0,1
86 512 m 1,14,-1
 188 512 l 1,15,-1
 188 0 l 1,16,-1
 86 0 l 1,17,-1
 86 512 l 1,14,-1
EndSplineSet
Validated: 19457
EndChar

StartChar: J
Encoding: 74 74 128
Width: 696
VWidth: 0
Flags: W
HStem: -10 24<288.451 387.56> 259.5 24.5<32 88.5459 234.834 279> 693 24<373 431.647 576.353 636>
VStem: 443 122<115.954 682.164>
AnchorPoint: "top" 504 748 basechar 0
LayerCount: 2
Fore
SplineSet
443 628 m 2,0,1
 443 673 443 673 432 683 c 128,-1,2
 421 693 421 693 373 693 c 1,3,-1
 373 717 l 1,4,-1
 636 717 l 1,5,-1
 636 693 l 1,6,7
 587 693 587 693 576 682.5 c 128,-1,8
 565 672 565 672 565 628 c 2,9,-1
 565 338 l 2,10,11
 565 238 565 238 556.5 176.5 c 128,-1,12
 548 115 548 115 523.5 70.5 c 128,-1,13
 499 26 499 26 455 8 c 128,-1,14
 411 -10 411 -10 341 -10 c 0,15,16
 235 -10 235 -10 179 40 c 128,-1,17
 123 90 123 90 102 195 c 0,18,19
 101 201 101 201 99 211 c 128,-1,20
 97 221 97 221 96.5 224.5 c 128,-1,21
 96 228 96 228 94.5 234.5 c 128,-1,22
 93 241 93 241 91.5 243 c 128,-1,23
 90 245 90 245 87.5 249 c 128,-1,24
 85 253 85 253 81.5 254 c 128,-1,25
 78 255 78 255 74 257 c 128,-1,26
 70 259 70 259 63.5 259 c 128,-1,27
 57 259 57 259 49.5 259.5 c 128,-1,28
 42 260 42 260 32 260 c 1,29,-1
 32 284 l 1,30,-1
 279 284 l 1,31,-1
 279 260 l 1,32,33
 245 260 245 260 234.5 249 c 128,-1,34
 224 238 224 238 224 195 c 0,35,36
 224 14 224 14 339 14 c 0,37,38
 404 14 404 14 423.5 73.5 c 128,-1,39
 443 133 443 133 443 290 c 2,40,-1
 443 628 l 2,0,1
EndSplineSet
Validated: 19457
EndChar

StartChar: j
Encoding: 106 106 129
Width: 327
VWidth: 0
Flags: W
HStem: -205 26<59.3863 120.1> -164 60<-76 8.5> 492 20G<137 240> 582 105<148 229>
VStem: 137 103<-126.939 512> 148 81<582 687>
AnchorPoint: "top" 187 717 basechar 0
LayerCount: 2
Fore
SplineSet
159 582 m 18,0,1
 155 582 155 582 151.5 585 c 128,-1,2
 148 588 148 588 148 592 c 2,3,-1
 148 677 l 2,4,5
 148 681 148 681 151.5 684 c 128,-1,6
 155 687 155 687 159 687 c 2,7,-1
 219 687 l 2,8,9
 229 687 229 687 229 677 c 2,10,-1
 229 592 l 2,11,12
 229 582 229 582 219 582 c 2,13,-1
 159 582 l 18,0,1
137 512 m 1,14,-1
 240 512 l 1,15,-1
 240 24 l 2,16,17
 240 -98 240 -98 205.5 -151.5 c 128,-1,18
 171 -205 171 -205 94 -205 c 0,19,20
 70 -205 70 -205 42 -184.5 c 128,-1,21
 14 -164 14 -164 3 -164 c 0,22,23
 -6 -164 -6 -164 -31.5 -189.5 c 128,-1,24
 -57 -215 -57 -215 -69 -215 c 0,25,26
 -89 -215 -89 -215 -111 -197 c 128,-1,27
 -133 -179 -133 -179 -133 -157 c 0,28,29
 -133 -144 -133 -144 -109.5 -124 c 128,-1,30
 -86 -104 -86 -104 -66 -104 c 0,31,32
 -27 -104 -27 -104 21.5 -141.5 c 128,-1,33
 70 -179 70 -179 103 -179 c 0,34,35
 123 -179 123 -179 130 -137 c 128,-1,36
 137 -95 137 -95 137 -9 c 2,37,-1
 137 512 l 1,14,-1
EndSplineSet
Validated: 19457
EndChar

StartChar: l
Encoding: 108 108 130
Width: 452
VWidth: 0
Flags: W
HStem: 0 25<181 322.449> 492 20G<79 181>
VStem: 79 102<25 512> 355 25<66.9443 154>
AnchorPoint: "top" 157 579 basechar 0
LayerCount: 2
Fore
SplineSet
181 25 m 1,0,-1
 249 25 l 2,1,2
 317 25 317 25 336 48 c 128,-1,3
 355 71 355 71 355 154 c 1,4,-1
 380 154 l 1,5,6
 380 116 380 116 388 83.5 c 128,-1,7
 396 51 396 51 404 38 c 2,8,-1
 413 25 l 1,9,-1
 413 0 l 1,10,-1
 79 0 l 1,11,-1
 79 512 l 1,12,-1
 181 512 l 1,13,-1
 181 25 l 1,0,-1
EndSplineSet
Validated: 19457
EndChar

StartChar: q
Encoding: 113 113 131
Width: 564
VWidth: 0
Flags: W
HStem: -20 44<251.023 336> 502 20G<225.5 306.5>
VStem: 57 108<166.158 289.128> 322 106<-220.328 -19.8419> 393 103<122.972 342.071>
AnchorPoint: "top" 290 579 basechar 0
LayerCount: 2
Fore
SplineSet
336 -20 m 1,0,1
 262 -19 262 -19 195 29 c 128,-1,2
 128 77 128 77 92.5 139 c 128,-1,3
 57 201 57 201 57 254 c 0,4,5
 57 317 57 317 119.5 400.5 c 128,-1,6
 182 484 182 484 269 522 c 1,7,8
 344 496 344 496 398.5 442.5 c 128,-1,9
 453 389 453 389 474.5 340.5 c 128,-1,10
 496 292 496 292 496 254 c 0,11,12
 496 155 496 155 462 39 c 128,-1,13
 428 -77 428 -77 428 -169 c 0,14,15
 428 -195 428 -195 437 -217 c 128,-1,16
 446 -239 446 -239 455 -248 c 2,17,-1
 464 -257 l 1,18,-1
 435 -298 l 1,19,20
 430 -296 430 -296 422.5 -292 c 128,-1,21
 415 -288 415 -288 395.5 -273.5 c 128,-1,22
 376 -259 376 -259 361 -243 c 128,-1,23
 346 -227 346 -227 334 -200.5 c 128,-1,24
 322 -174 322 -174 322 -145 c 0,25,26
 322 -90 322 -90 336 -20 c 1,0,1
347 24 m 1,27,28
 349 32 349 32 357 64.5 c 128,-1,29
 365 97 365 97 368 110.5 c 128,-1,30
 371 124 371 124 377 154 c 128,-1,31
 383 184 383 184 385.5 205.5 c 128,-1,32
 388 227 388 227 390.5 257 c 128,-1,33
 393 287 393 287 393 317 c 0,34,35
 393 370 393 370 377 401 c 128,-1,36
 361 432 361 432 314 463 c 1,37,38
 304 446 304 446 276 413 c 128,-1,39
 248 380 248 380 225 352 c 128,-1,40
 202 324 202 324 183.5 281.5 c 128,-1,41
 165 239 165 239 165 196 c 0,42,43
 165 32 165 32 347 24 c 1,27,28
EndSplineSet
Validated: 19457
EndChar

StartChar: L
Encoding: 76 76 132
Width: 562
VWidth: 0
Flags: W
HStem: 0 25<61 120.647 265.353 372.503> 693 24<61 120.647 265.353 325>
VStem: 132 122<35.8363 682.679> 446 25<118.034 182>
AnchorPoint: "top" 203 748 basechar 0
LayerCount: 2
Fore
SplineSet
325 717 m 25,0,-1
 325 693 l 1,1,2
 276 693 276 693 265 683 c 128,-1,3
 254 673 254 673 254 629 c 2,4,-1
 254 90 l 2,5,6
 254 46 254 46 265 35.5 c 128,-1,7
 276 25 276 25 325 25 c 0,8,9
 379 25 379 25 412.5 76.5 c 128,-1,10
 446 128 446 128 446 182 c 1,11,-1
 471 182 l 1,12,13
 471 144 471 144 484.5 104.5 c 128,-1,14
 498 65 498 65 511 45 c 2,15,-1
 524 25 l 1,16,-1
 524 0 l 1,17,-1
 61 0 l 1,18,-1
 61 25 l 1,19,20
 110 25 110 25 121 35.5 c 128,-1,21
 132 46 132 46 132 90 c 2,22,-1
 132 629 l 2,23,24
 132 673 132 673 121 683 c 128,-1,25
 110 693 110 693 61 693 c 1,26,-1
 61 717 l 1,27,-1
 325 717 l 25,0,-1
EndSplineSet
Validated: 19457
EndChar

StartChar: Q
Encoding: 81 81 133
Width: 677
VWidth: 0
Flags: W
HStem: -110 26<394.891 446.49> -69 60<483.5 567> 703 25<278.152 383.874>
VStem: 65 128<187.027 531.344> 278 102<-69.375 -1.75635> 468 128<185.077 531.789>
AnchorPoint: "top" 335 748 basechar 0
LayerCount: 2
Fore
SplineSet
331 728 m 128,-1,1
 465 728 465 728 530.5 628 c 128,-1,2
 596 528 596 528 596 358 c 0,3,4
 596 206 596 206 543 109.5 c 128,-1,5
 490 13 490 13 380 -6 c 1,6,7
 381 -32 381 -32 389 -58 c 128,-1,8
 397 -84 397 -84 407 -84 c 0,9,10
 430 -84 430 -84 448.5 -72.5 c 128,-1,11
 467 -61 467 -61 479 -46.5 c 128,-1,12
 491 -32 491 -32 511.5 -20.5 c 128,-1,13
 532 -9 532 -9 557 -9 c 0,14,15
 577 -9 577 -9 601 -28.5 c 128,-1,16
 625 -48 625 -48 625 -61 c 0,17,18
 625 -83 625 -83 602.5 -101.5 c 128,-1,19
 580 -120 580 -120 560 -120 c 0,20,21
 548 -120 548 -120 522.5 -94.5 c 128,-1,22
 497 -69 497 -69 488 -69 c 128,-1,23
 479 -69 479 -69 456 -89.5 c 128,-1,24
 433 -110 433 -110 416 -110 c 0,25,26
 282 -110 282 -110 278 -6 c 1,27,28
 170 14 170 14 117.5 110.5 c 128,-1,29
 65 207 65 207 65 359 c 0,30,31
 65 528 65 528 131 628 c 128,-1,0
 197 728 197 728 331 728 c 128,-1,1
331 703 m 0,32,33
 288 703 288 703 260 679.5 c 128,-1,34
 232 656 232 656 218 607.5 c 128,-1,35
 204 559 204 559 198.5 501 c 128,-1,36
 193 443 193 443 193 358 c 0,37,38
 193 290 193 290 196 241 c 128,-1,39
 199 192 199 192 208 147 c 128,-1,40
 217 102 217 102 232 74 c 128,-1,41
 247 46 247 46 272 30 c 128,-1,42
 297 14 297 14 331 14 c 0,43,44
 373 14 373 14 401 37.5 c 128,-1,45
 429 61 429 61 443 109.5 c 128,-1,46
 457 158 457 158 462.5 216 c 128,-1,47
 468 274 468 274 468 359 c 0,48,49
 468 445 468 445 462.5 502.5 c 128,-1,50
 457 560 457 560 443 608.5 c 128,-1,51
 429 657 429 657 401 680 c 128,-1,52
 373 703 373 703 331 703 c 0,32,33
EndSplineSet
Validated: 19457
EndChar

StartChar: R
Encoding: 82 82 134
Width: 698
VWidth: 0
Flags: W
HStem: 0 24<61 120.647 265.353 325 388 447.647 594.891 651> 346 25<257 317.469> 693 24<61 120.647 265.353 418.647 563.353 623>
VStem: 132 122<34.3208 346 417 682.679> 430 122<483.185 682.679>
CounterMasks: 1 e0
AnchorPoint: "top" 344 748 basechar 0
LayerCount: 2
Fore
SplineSet
325 0 m 1,0,-1
 61 0 l 1,1,-1
 61 24 l 1,2,3
 110 24 110 24 121 34 c 128,-1,4
 132 44 132 44 132 88 c 2,5,-1
 132 629 l 2,6,7
 132 673 132 673 121 683 c 128,-1,8
 110 693 110 693 61 693 c 1,9,-1
 61 717 l 1,10,-1
 623 717 l 1,11,-1
 623 693 l 1,12,13
 574 693 574 693 563 683 c 128,-1,14
 552 673 552 673 552 629 c 2,15,-1
 552 462 l 1,16,17
 442 462 442 462 374.5 443 c 128,-1,18
 307 424 307 424 257 371 c 1,19,20
 323 370 323 370 375.5 353.5 c 128,-1,21
 428 337 428 337 461.5 310.5 c 128,-1,22
 495 284 495 284 520.5 246 c 128,-1,23
 546 208 546 208 559 171 c 128,-1,24
 572 134 572 134 581 89 c 0,25,26
 582 83 582 83 584 73 c 128,-1,27
 586 63 586 63 586.5 59.5 c 128,-1,28
 587 56 587 56 588.5 49.5 c 128,-1,29
 590 43 590 43 591.5 41 c 128,-1,30
 593 39 593 39 595.5 35 c 128,-1,31
 598 31 598 31 601.5 30 c 128,-1,32
 605 29 605 29 609 27 c 128,-1,33
 613 25 613 25 619.5 25 c 128,-1,34
 626 25 626 25 633.5 24.5 c 128,-1,35
 641 24 641 24 651 24 c 1,36,-1
 651 0 l 1,37,-1
 388 0 l 1,38,-1
 388 24 l 1,39,40
 437 24 437 24 448 34.5 c 128,-1,41
 459 45 459 45 459 89 c 0,42,43
 459 183 459 183 402 264 c 128,-1,44
 345 345 345 345 254 346 c 1,45,-1
 254 88 l 2,46,47
 254 44 254 44 265 34 c 128,-1,48
 276 24 276 24 325 24 c 1,49,-1
 325 0 l 1,0,-1
254 417 m 1,50,51
 321 473 321 473 430 486 c 1,52,-1
 430 629 l 2,53,54
 430 673 430 673 419 683 c 128,-1,55
 408 693 408 693 359 693 c 2,56,-1
 325 693 l 2,57,58
 276 693 276 693 265 683 c 128,-1,59
 254 673 254 673 254 629 c 2,60,-1
 254 417 l 1,50,51
EndSplineSet
Validated: 19457
EndChar

StartChar: r
Encoding: 114 114 135
Width: 458
VWidth: 0
Flags: W
HStem: 0 21G<79 181> 492 20G<79 181 270 334>
VStem: 79 102<0 411.656 449 512>
AnchorPoint: "top" 290 579 basechar 0
LayerCount: 2
Fore
SplineSet
79 512 m 1,0,-1
 181 512 l 1,1,-1
 181 449 l 1,2,3
 235 498 235 498 305 522 c 1,4,5
 363 497 363 497 417 443 c 1,6,-1
 316 391 l 1,7,8
 269 446 269 446 260 463 c 1,9,10
 213 432 213 432 197 401 c 128,-1,11
 181 370 181 370 181 317 c 2,12,-1
 181 0 l 1,13,-1
 79 0 l 1,14,-1
 79 512 l 1,0,-1
EndSplineSet
Validated: 19457
EndChar

StartChar: U
Encoding: 85 85 136
Width: 731
VWidth: 0
Flags: W
HStem: -10 24<300.018 405.982> 693 24<36 94.6472 239.353 299 408 466.647 611.353 671>
VStem: 106 122<139.451 682.164> 478 122<139.451 682.164>
AnchorPoint: "top" 357 748 basechar 0
LayerCount: 2
Fore
SplineSet
353 -10 m 128,-1,1
 214 -10 214 -10 160 68.5 c 128,-1,2
 106 147 106 147 106 338 c 2,3,-1
 106 628 l 2,4,5
 106 673 106 673 95 683 c 128,-1,6
 84 693 84 693 36 693 c 1,7,-1
 36 717 l 1,8,-1
 299 717 l 1,9,-1
 299 693 l 1,10,11
 250 693 250 693 239 682.5 c 128,-1,12
 228 672 228 672 228 628 c 2,13,-1
 228 290 l 2,14,15
 228 236 228 236 230 201 c 128,-1,16
 232 166 232 166 239 127 c 128,-1,17
 246 88 246 88 259 65.5 c 128,-1,18
 272 43 272 43 295.5 28.5 c 128,-1,19
 319 14 319 14 353 14 c 128,-1,20
 387 14 387 14 410.5 28.5 c 128,-1,21
 434 43 434 43 447 65.5 c 128,-1,22
 460 88 460 88 467 127 c 128,-1,23
 474 166 474 166 476 201 c 128,-1,24
 478 236 478 236 478 290 c 2,25,-1
 478 628 l 2,26,27
 478 673 478 673 467 683 c 128,-1,28
 456 693 456 693 408 693 c 1,29,-1
 408 717 l 1,30,-1
 671 717 l 1,31,-1
 671 693 l 1,32,33
 622 693 622 693 611 682.5 c 128,-1,34
 600 672 600 672 600 628 c 2,35,-1
 600 338 l 2,36,37
 600 147 600 147 546 68.5 c 128,-1,0
 492 -10 492 -10 353 -10 c 128,-1,1
EndSplineSet
Validated: 19457
EndChar

StartChar: u
Encoding: 117 117 138
Width: 549
VWidth: 0
Flags: W
HStem: -10 65<242.058 364.028> 492 20G<100 205 369 481.5>
VStem: 51 103<185.724 455.746> 369 100<450.586 512> 436 58<191.912 443.5>
AnchorPoint: "top" 285 579 basechar 0
LayerCount: 2
Fore
SplineSet
51 340 m 0,0,1
 51 373 51 373 56.5 403 c 128,-1,2
 62 433 62 433 70 452 c 128,-1,3
 78 471 78 471 86 486 c 0,4,5
 94 500 94 500 100 506 c 2,6,-1
 106 512 l 1,7,-1
 205 512 l 1,8,9
 199 504 199 504 190.5 489.5 c 128,-1,10
 182 475 182 475 168 430.5 c 128,-1,11
 154 386 154 386 154 342 c 0,12,13
 154 222 154 222 195 138.5 c 128,-1,14
 236 55 236 55 307 55 c 0,15,16
 375 55 375 55 405.5 122 c 128,-1,17
 436 189 436 189 436 297 c 0,18,19
 436 343 436 343 419 380 c 128,-1,20
 402 417 402 417 385.5 448 c 128,-1,21
 369 479 369 479 369 512 c 1,22,-1
 469 512 l 1,23,24
 494 471 494 471 494 416 c 0,25,26
 494 320 494 320 482 245 c 128,-1,27
 470 170 470 170 450 123 c 128,-1,28
 430 76 430 76 402.5 45.5 c 128,-1,29
 375 15 375 15 346 2.5 c 128,-1,30
 317 -10 317 -10 285 -10 c 0,31,32
 245 -10 245 -10 204.5 12 c 128,-1,33
 164 34 164 34 129 75.5 c 128,-1,34
 94 117 94 117 72.5 186 c 128,-1,35
 51 255 51 255 51 340 c 0,0,1
EndSplineSet
Validated: 19457
EndChar

StartChar: one
Encoding: 49 49 142
Width: 379
VWidth: 0
Flags: W
HStem: 0 24<61 120.647 265.353 325> 693 24<61 120.647>
VStem: 132 122<34.3208 682.164>
LayerCount: 2
Fore
SplineSet
254 717 m 9,0,-1
 254 88 l 2,1,2
 254 44 254 44 265 34 c 128,-1,3
 276 24 276 24 325 24 c 1,4,-1
 325 0 l 1,5,-1
 61 0 l 1,6,-1
 61 24 l 1,7,8
 110 24 110 24 121 34 c 128,-1,9
 132 44 132 44 132 88 c 2,10,-1
 132 628 l 2,11,12
 132 672 132 672 121 682.5 c 128,-1,13
 110 693 110 693 61 693 c 1,14,-1
 61 717 l 1,15,-1
 254 717 l 9,0,-1
EndSplineSet
Validated: 19457
EndChar

StartChar: two
Encoding: 50 50 143
Width: 611
VWidth: 0
Flags: W
HStem: 0 25<201 382.151> 702 25<260.089 353.599>
VStem: 79 122<25 241.38 500.311 610.484> 419 121<431.356 621.525> 464 24<126.911 182>
LayerCount: 2
Fore
SplineSet
542 0 m 25,0,-1
 79 0 l 1,1,-1
 79 115 l 2,2,3
 79 175 79 175 90.5 218 c 128,-1,4
 102 261 102 261 122 285 c 128,-1,5
 142 309 142 309 167.5 324.5 c 128,-1,6
 193 340 193 340 221 347.5 c 128,-1,7
 249 355 249 355 277 361.5 c 128,-1,8
 305 368 305 368 330.5 378 c 128,-1,9
 356 388 356 388 376 405.5 c 128,-1,10
 396 423 396 423 407.5 455.5 c 128,-1,11
 419 488 419 488 419 536 c 0,12,13
 419 606 419 606 388 654 c 128,-1,14
 357 702 357 702 311 702 c 0,15,16
 254 702 254 702 228 657 c 128,-1,17
 202 612 202 612 202 512 c 0,18,19
 202 498 202 498 140 498 c 0,20,21
 80 498 80 498 80 512 c 0,22,23
 80 552 80 552 92.5 589 c 128,-1,24
 105 626 105 626 130.5 657.5 c 128,-1,25
 156 689 156 689 202.5 708 c 128,-1,26
 249 727 249 727 311 727 c 0,27,28
 422 727 422 727 481 671.5 c 128,-1,29
 540 616 540 616 540 515 c 0,30,31
 540 463 540 463 528.5 429 c 128,-1,32
 517 395 517 395 497.5 379 c 128,-1,33
 478 363 478 363 452.5 355 c 128,-1,34
 427 347 427 347 398.5 344 c 128,-1,35
 370 341 370 341 342 336.5 c 128,-1,36
 314 332 314 332 288.5 318 c 128,-1,37
 263 304 263 304 243.5 279 c 128,-1,38
 224 254 224 254 212.5 206.5 c 128,-1,39
 201 159 201 159 201 90 c 2,40,-1
 201 25 l 1,41,-1
 342 25 l 2,42,43
 386 25 386 25 425 79 c 128,-1,44
 464 133 464 133 464 182 c 1,45,-1
 488 182 l 1,46,47
 488 144 488 144 502 104 c 0,48,49
 514 65 514 65 528 45 c 2,50,-1
 542 25 l 1,51,-1
 542 0 l 25,0,-1
EndSplineSet
Validated: 19457
EndChar

StartChar: four
Encoding: 52 52 144
Width: 626
VWidth: 0
Flags: W
HStem: 0 24<300 359.647 503.838 563> 204 24<185 371 493 543> 697 20G<146 271 371 493>
VStem: 146 125<522.25 717> 371 122<34.3208 204 228 717>
LayerCount: 2
Fore
SplineSet
50 215 m 0,0,1
 50 217 50 217 60 250 c 128,-1,2
 70 283 70 283 84 336 c 128,-1,3
 98 389 98 389 112 450.5 c 128,-1,4
 126 512 126 512 136 584.5 c 128,-1,5
 146 657 146 657 146 717 c 1,6,-1
 271 717 l 1,7,8
 271 572 271 572 185 228 c 1,9,-1
 371 228 l 1,10,-1
 371 717 l 1,11,-1
 493 717 l 1,12,-1
 493 228 l 1,13,-1
 543 228 l 1,14,-1
 543 204 l 1,15,-1
 493 204 l 1,16,-1
 493 88 l 2,17,18
 493 44 493 44 503.5 34 c 128,-1,19
 514 24 514 24 563 24 c 1,20,-1
 563 0 l 1,21,-1
 300 0 l 1,22,-1
 300 24 l 1,23,24
 349 24 349 24 360 34 c 128,-1,25
 371 44 371 44 371 88 c 2,26,-1
 371 204 l 1,27,-1
 67 204 l 2,28,29
 50 204 50 204 50 215 c 0,0,1
EndSplineSet
Validated: 19457
EndChar

StartChar: five
Encoding: 53 53 145
Width: 672
VWidth: 0
Flags: W
HStem: -10 32<307.554 422.476> 33 90<134 246> 414 27<224 380.099> 692 25<224 428.62>
VStem: 103 121<441 692> 476 122<108.176 317.755> 503 24<535 597.785>
LayerCount: 2
Fore
SplineSet
224 692 m 1,0,-1
 224 441 l 1,1,-1
 347 441 l 2,2,3
 416 441 416 441 467 420.5 c 128,-1,4
 518 400 518 400 545.5 366.5 c 128,-1,5
 573 333 573 333 585.5 296.5 c 128,-1,6
 598 260 598 260 598 220 c 0,7,8
 598 116 598 116 540 53 c 128,-1,9
 482 -10 482 -10 378 -10 c 0,10,11
 330 -10 330 -10 296 11.5 c 128,-1,12
 262 33 262 33 230 33 c 0,13,14
 218 33 218 33 187.5 4 c 128,-1,15
 157 -25 157 -25 142 -25 c 0,16,17
 117 -25 117 -25 89.5 -0.5 c 128,-1,18
 62 24 62 24 62 53 c 0,19,20
 62 65 62 65 92 94 c 128,-1,21
 122 123 122 123 146 123 c 128,-1,22
 170 123 170 123 197.5 107 c 128,-1,23
 225 91 225 91 247.5 72.5 c 128,-1,24
 270 54 270 54 307 38 c 128,-1,25
 344 22 344 22 386 22 c 0,26,27
 422 22 422 22 449 71 c 128,-1,28
 476 120 476 120 476 196 c 0,29,30
 476 234 476 234 468.5 269.5 c 128,-1,31
 461 305 461 305 444 339 c 128,-1,32
 427 373 427 373 394 393.5 c 128,-1,33
 361 414 361 414 316 414 c 2,34,-1
 103 414 l 1,35,-1
 103 717 l 1,36,-1
 581 717 l 1,37,-1
 581 692 l 1,38,39
 575 684 575 684 566 670 c 128,-1,40
 557 656 557 656 542 614.5 c 128,-1,41
 527 573 527 573 527 535 c 1,42,-1
 503 535 l 1,43,44
 503 589 503 589 469 640.5 c 128,-1,45
 435 692 435 692 381 692 c 2,46,-1
 224 692 l 1,0,-1
EndSplineSet
Validated: 19457
EndChar

StartChar: six
Encoding: 54 54 146
Width: 640
VWidth: 0
Flags: W
HStem: -10 24<261.968 383.559> 394 25<260.337 384.319> 702 25<410.165 507>
VStem: 76 122<105.19 336.69> 446 122<104.153 303.717>
LayerCount: 2
Fore
SplineSet
323 419 m 0,0,1
 444 419 444 419 506 358.5 c 128,-1,2
 568 298 568 298 568 204 c 128,-1,3
 568 110 568 110 506 50 c 128,-1,4
 444 -10 444 -10 323 -10 c 128,-1,5
 202 -10 202 -10 139 50.5 c 128,-1,6
 76 111 76 111 76 205 c 0,7,8
 76 465 76 465 181.5 596 c 128,-1,9
 287 727 287 727 507 727 c 1,10,-1
 507 702 l 1,11,12
 375 702 375 702 304 627.5 c 128,-1,13
 233 553 233 553 210 400 c 1,14,15
 265 419 265 419 323 419 c 0,0,1
198 204 m 128,-1,17
 198 108 198 108 223.5 61 c 128,-1,18
 249 14 249 14 323 14 c 0,19,20
 396 14 396 14 421 61.5 c 128,-1,21
 446 109 446 109 446 205 c 128,-1,22
 446 301 446 301 421 347.5 c 128,-1,23
 396 394 396 394 323 394 c 128,-1,24
 250 394 250 394 224 347 c 128,-1,16
 198 300 198 300 198 204 c 128,-1,17
EndSplineSet
Validated: 19457
EndChar

StartChar: nine
Encoding: 57 57 147
Width: 601
VWidth: 0
Flags: W
HStem: -10 24<117 207.771> 298 25<239.597 363.529> 702 25<239.597 364.446>
VStem: 55 122<413.283 612.42> 426 122<380.31 611.717>
LayerCount: 2
Fore
SplineSet
301 298 m 0,0,1
 180 298 180 298 117.5 358.5 c 128,-1,2
 55 419 55 419 55 513 c 0,3,4
 55 606 55 606 117.5 666.5 c 128,-1,5
 180 727 180 727 301 727 c 128,-1,6
 422 727 422 727 485 666.5 c 128,-1,7
 548 606 548 606 548 512 c 0,8,9
 548 252 548 252 442.5 121 c 128,-1,10
 337 -10 337 -10 117 -10 c 1,11,-1
 117 14 l 1,12,13
 249 14 249 14 320 88.5 c 128,-1,14
 391 163 391 163 414 316 c 1,15,16
 362 298 362 298 301 298 c 0,0,1
426 513 m 128,-1,18
 426 609 426 609 400.5 655.5 c 128,-1,19
 375 702 375 702 301 702 c 0,20,21
 228 702 228 702 202.5 655 c 128,-1,22
 177 608 177 608 177 512 c 128,-1,23
 177 416 177 416 202.5 369.5 c 128,-1,24
 228 323 228 323 301 323 c 128,-1,25
 374 323 374 323 400 370 c 128,-1,17
 426 417 426 417 426 513 c 128,-1,18
EndSplineSet
Validated: 19457
EndChar

StartChar: seven
Encoding: 55 55 148
Width: 550
VWidth: 0
Flags: W
HStem: 0 21G<111 256.927> 358 25<170 238 382 443> 692 25<179.38 355 489 490>
VStem: 81 24<535 597.41>
LayerCount: 2
Fore
SplineSet
490 717 m 1,0,-1
 490 692 l 1,1,-1
 489 692 l 1,2,-1
 382 383 l 1,3,-1
 443 383 l 1,4,-1
 443 358 l 1,5,-1
 374 358 l 1,6,-1
 250 0 l 1,7,-1
 111 0 l 1,8,-1
 238 358 l 1,9,-1
 170 358 l 1,10,-1
 170 383 l 1,11,-1
 246 383 l 1,12,-1
 355 692 l 1,13,-1
 227 692 l 2,14,15
 173 692 173 692 139 640.5 c 128,-1,16
 105 589 105 589 105 535 c 1,17,-1
 81 535 l 1,18,19
 81 573 81 573 68 612 c 0,20,21
 56 652 56 652 42 672 c 2,22,-1
 28 692 l 1,23,-1
 28 717 l 1,24,-1
 490 717 l 1,0,-1
EndSplineSet
Validated: 19457
EndChar

StartChar: eight
Encoding: 56 56 149
Width: 618
VWidth: 0
Flags: W
HStem: -10 24<251.986 373.639> 394 25<250.906 375.652> 702 25<248.755 376.914>
VStem: 67 121<105.19 303.426> 82 122<482.272 639.928> 422 122<482.654 639.161> 437 122<105.515 303.805>
LayerCount: 2
Fore
SplineSet
313 727 m 128,-1,1
 423 727 423 727 483.5 680 c 128,-1,2
 544 633 544 633 544 560 c 0,3,4
 544 506 544 506 509.5 465.5 c 128,-1,5
 475 425 475 425 410 407 c 1,6,7
 484 385 484 385 521.5 330.5 c 128,-1,8
 559 276 559 276 559 204 c 0,9,10
 559 111 559 111 496.5 50.5 c 128,-1,11
 434 -10 434 -10 313 -10 c 128,-1,12
 192 -10 192 -10 129.5 50.5 c 128,-1,13
 67 111 67 111 67 205 c 0,14,15
 67 276 67 276 105 330.5 c 128,-1,16
 143 385 143 385 217 407 c 1,17,18
 151 425 151 425 116.5 465.5 c 128,-1,19
 82 506 82 506 82 561 c 0,20,21
 82 634 82 634 142.5 680.5 c 128,-1,0
 203 727 203 727 313 727 c 128,-1,1
313 702 m 0,22,23
 246 702 246 702 225 669 c 128,-1,24
 204 636 204 636 204 560 c 128,-1,25
 204 484 204 484 225 451.5 c 128,-1,26
 246 419 246 419 313 419 c 0,27,28
 379 419 379 419 400.5 452 c 128,-1,29
 422 485 422 485 422 561 c 128,-1,30
 422 637 422 637 400.5 669.5 c 128,-1,31
 379 702 379 702 313 702 c 0,22,23
313 394 m 128,-1,33
 240 394 240 394 214 347 c 128,-1,34
 188 300 188 300 188 204 c 128,-1,35
 188 108 188 108 213.5 61 c 128,-1,36
 239 14 239 14 313 14 c 0,37,38
 386 14 386 14 411.5 61.5 c 128,-1,39
 437 109 437 109 437 205 c 128,-1,40
 437 301 437 301 411.5 347.5 c 128,-1,32
 386 394 386 394 313 394 c 128,-1,33
EndSplineSet
Validated: 19457
EndChar

StartChar: exclam
Encoding: 33 33 150
Width: 268
VWidth: 0
Flags: W
HStem: 0 92<90 181> 697 20G<80 191>
VStem: 80 111<518.805 717> 90 91<0 92> 100 71<164 362.195>
LayerCount: 2
Fore
SplineSet
80 717 m 1,0,-1
 191 717 l 1,1,-1
 171 164 l 1,2,-1
 100 164 l 1,3,-1
 80 717 l 1,0,-1
100 0 m 22,4,5
 90 0 90 0 90 10 c 2,6,-1
 90 82 l 2,7,8
 90 92 90 92 100 92 c 2,9,-1
 171 92 l 2,10,11
 181 92 181 92 181 82 c 2,12,-1
 181 10 l 2,13,14
 181 0 181 0 171 0 c 2,15,-1
 100 0 l 22,4,5
EndSplineSet
Validated: 19457
EndChar

StartChar: uniA64C
Encoding: 42572 42572 151
Width: 1044
VWidth: 0
Flags: W
HStem: -10 24<278.525 377.931 664.887 764.475> 335 23<390 449.647 593.353 652> 703 25<269.883 365.389 677.111 772.294>
VStem: 65 128<184.434 526.094> 339 151<581.69 686.018> 461 121<103.897 324.163> 552 151<582.205 687.948> 850 128<184.434 526.094>
LayerCount: 2
Fore
SplineSet
582 269 m 0,0,1
 582 14 582 14 713 14 c 0,2,3
 755 14 755 14 783 37 c 128,-1,4
 811 60 811 60 825 108.5 c 128,-1,5
 839 157 839 157 844.5 214.5 c 128,-1,6
 850 272 850 272 850 358 c 0,7,8
 850 703 850 703 733 703 c 0,9,10
 699 703 699 703 676 693 c 1,11,12
 703 669 703 669 703 635 c 0,13,14
 703 603 703 603 681 581 c 128,-1,15
 659 559 659 559 628 559 c 0,16,17
 596 559 596 559 574 581.5 c 128,-1,18
 552 604 552 604 552 635 c 0,19,20
 552 728 552 728 735 728 c 0,21,22
 846 728 846 728 912 625 c 128,-1,23
 978 522 978 522 978 359 c 0,24,25
 978 189 978 189 913.5 89.5 c 128,-1,26
 849 -10 849 -10 715 -10 c 0,27,28
 584 -10 584 -10 521 95 c 1,29,30
 458 -10 458 -10 328 -10 c 0,31,32
 194 -10 194 -10 129.5 89.5 c 128,-1,33
 65 189 65 189 65 359 c 0,34,35
 65 522 65 522 130.5 625 c 128,-1,36
 196 728 196 728 307 728 c 0,37,38
 490 728 490 728 490 635 c 0,39,40
 490 603 490 603 468 581 c 128,-1,41
 446 559 446 559 415 559 c 128,-1,42
 384 559 384 559 361.5 581.5 c 128,-1,43
 339 604 339 604 339 635 c 0,44,45
 339 668 339 668 367 693 c 1,46,47
 344 703 344 703 309 703 c 0,48,49
 193 703 193 703 193 358 c 0,50,51
 193 272 193 272 198.5 214.5 c 128,-1,52
 204 157 204 157 218 108.5 c 128,-1,53
 232 60 232 60 260 37 c 128,-1,54
 288 14 288 14 330 14 c 0,55,56
 461 14 461 14 461 269 c 0,57,58
 461 314 461 314 450 324.5 c 128,-1,59
 439 335 439 335 390 335 c 1,60,-1
 390 358 l 1,61,-1
 652 358 l 1,62,-1
 652 335 l 1,63,64
 604 335 604 335 593 324.5 c 128,-1,65
 582 314 582 314 582 269 c 0,0,1
EndSplineSet
Validated: 19457
EndChar

StartChar: uni0461
Encoding: 1121 1121 152
Width: 787
VWidth: 0
Flags: W
HStem: -10 21G<267.5 290 532.5 556> 492 20G<101 213 366 477 600 701>
VStem: 59 103<214.068 455.816> 324 102<214.425 455.816> 600 100<445.121 512> 668 57<236.119 432>
AnchorPoint: "top" 417 579 basechar 0
LayerCount: 2
Fore
SplineSet
537 -10 m 1,0,1
 528 -5 528 -5 512.5 4.5 c 128,-1,2
 497 14 497 14 459 47.5 c 128,-1,3
 421 81 421 81 393 121 c 1,4,5
 369 78 369 78 339 45 c 0,6,7
 308 12 308 12 290 1 c 2,8,-1
 272 -10 l 1,9,10
 263 -5 263 -5 249 4 c 128,-1,11
 235 13 235 13 198 45 c 128,-1,12
 161 77 161 77 133 114 c 128,-1,13
 105 151 105 151 82 212 c 128,-1,14
 59 273 59 273 59 340 c 0,15,16
 59 393 59 393 73 436 c 0,17,18
 87 480 87 480 101 496 c 2,19,-1
 115 512 l 1,20,-1
 213 512 l 1,21,22
 207 504 207 504 198.5 489.5 c 128,-1,23
 190 475 190 475 176 430.5 c 128,-1,24
 162 386 162 386 162 342 c 0,25,26
 162 242 162 242 204 168 c 128,-1,27
 246 94 246 94 295 55 c 1,28,29
 342 97 342 97 372 157 c 1,30,31
 324 243 324 243 324 340 c 0,32,33
 324 393 324 393 338 436 c 0,34,35
 352 480 352 480 366 496 c 2,36,-1
 379 512 l 1,37,-1
 477 512 l 1,38,39
 471 504 471 504 462.5 489.5 c 128,-1,40
 454 475 454 475 440 430.5 c 128,-1,41
 426 386 426 386 426 342 c 0,42,43
 426 242 426 242 468 168 c 128,-1,44
 510 94 510 94 559 55 c 1,45,46
 668 152 668 152 668 297 c 0,47,48
 668 343 668 343 651 380 c 128,-1,49
 634 417 634 417 617 448 c 128,-1,50
 600 479 600 479 600 512 c 1,51,-1
 700 512 l 1,52,53
 702 504 702 504 713.5 476 c 128,-1,54
 725 448 725 448 725 416 c 0,55,56
 725 324 725 324 705.5 246 c 128,-1,57
 686 168 686 168 658.5 123 c 128,-1,58
 631 78 631 78 603.5 46 c 128,-1,59
 576 14 576 14 556 2 c 2,60,-1
 537 -10 l 1,0,1
EndSplineSet
Validated: 19457
EndChar

StartChar: hyphen
Encoding: 45 45 155
Width: 359
VWidth: 0
Flags: W
HStem: 326 55<33 303>
VStem: 33 270<326 381>
LayerCount: 2
Fore
SplineSet
33 381 m 1,0,-1
 303 381 l 1,1,-1
 303 326 l 1,2,-1
 33 326 l 1,3,-1
 33 381 l 1,0,-1
EndSplineSet
Validated: 19457
EndChar

StartChar: equal
Encoding: 61 61 156
Width: 504
VWidth: 0
Flags: W
HStem: 264 55<52 443> 397 56<52 443>
LayerCount: 2
Fore
SplineSet
52 319 m 1,0,-1
 443 319 l 1,1,-1
 443 264 l 1,2,-1
 52 264 l 1,3,-1
 52 319 l 1,0,-1
52 453 m 1,4,-1
 443 453 l 1,5,-1
 443 397 l 1,6,-1
 52 397 l 1,7,-1
 52 453 l 1,4,-1
EndSplineSet
Validated: 19457
EndChar

StartChar: plus
Encoding: 43 43 157
Width: 413
VWidth: 0
Flags: W
HStem: 326 55<44 172 227 355>
VStem: 172 55<198 326 381 509>
LayerCount: 2
Fore
SplineSet
227 326 m 1,0,-1
 227 198 l 1,1,-1
 172 198 l 1,2,-1
 172 326 l 1,3,-1
 44 326 l 1,4,-1
 44 381 l 1,5,-1
 172 381 l 1,6,-1
 172 509 l 1,7,-1
 227 509 l 1,8,-1
 227 381 l 1,9,-1
 355 381 l 1,10,-1
 355 326 l 1,11,-1
 227 326 l 1,0,-1
EndSplineSet
Validated: 19457
EndChar

StartChar: parenleft
Encoding: 40 40 160
Width: 345
VWidth: 0
Flags: W
HStem: -10 24<259.437 285> 702 25<257.758 285>
VStem: 66 112<187.982 527.773>
LayerCount: 2
Fore
SplineSet
285 702 m 1,0,1
 244 702 244 702 211 604.5 c 128,-1,2
 178 507 178 507 178 358 c 0,3,4
 178 208 178 208 211 111 c 128,-1,5
 244 14 244 14 285 14 c 1,6,-1
 285 -10 l 1,7,8
 192 -10 192 -10 129 94.5 c 128,-1,9
 66 199 66 199 66 358 c 128,-1,10
 66 517 66 517 129 622 c 128,-1,11
 192 727 192 727 285 727 c 1,12,-1
 285 702 l 1,0,1
EndSplineSet
Validated: 19457
EndChar

StartChar: parenright
Encoding: 41 41 161
Width: 342
VWidth: 0
Flags: W
HStem: -10 24<56 81.563> 702 25<56 83.2422>
VStem: 163 112<188.315 528.106>
LayerCount: 2
Fore
SplineSet
56 14 m 1,0,1
 97 14 97 14 130 111.5 c 128,-1,2
 163 209 163 209 163 358 c 0,3,4
 163 508 163 508 130 605 c 128,-1,5
 97 702 97 702 56 702 c 1,6,-1
 56 727 l 1,7,8
 149 727 149 727 212 622 c 128,-1,9
 275 517 275 517 275 358 c 128,-1,10
 275 199 275 199 212 94.5 c 128,-1,11
 149 -10 149 -10 56 -10 c 1,12,-1
 56 14 l 1,0,1
EndSplineSet
Validated: 19457
EndChar

StartChar: slash
Encoding: 47 47 162
Width: 428
VWidth: 0
Flags: W
HStem: 0 21G<38 98.7266> 697 20G<306.301 368>
VStem: 38 330
LayerCount: 2
Fore
SplineSet
314 717 m 1,0,-1
 368 717 l 1,1,-1
 91 0 l 1,2,-1
 38 0 l 1,3,-1
 314 717 l 1,0,-1
EndSplineSet
Validated: 19457
EndChar

StartChar: afii10194
Encoding: 1123 1123 163
Width: 720
VWidth: 0
Flags: W
HStem: 0 25<368 542> 487 25<159 265 368 470.235> 697 20G<265 368>
VStem: 56 103<303 487> 265 103<25 300 328 487 512 717> 531 25<330 394.6>
AnchorPoint: "top" 318 765 basechar 0
LayerCount: 2
Fore
SplineSet
368 25 m 1,0,-1
 542 25 l 1,1,2
 517 121 517 121 479 201 c 128,-1,3
 441 281 441 281 409 323 c 1,4,-1
 368 300 l 1,5,-1
 368 25 l 1,0,-1
265 717 m 1,6,-1
 368 717 l 1,7,-1
 368 512 l 1,8,-1
 609 512 l 1,9,-1
 609 487 l 1,10,11
 603 479 603 479 594 465 c 128,-1,12
 585 451 585 451 570.5 409.5 c 128,-1,13
 556 368 556 368 556 330 c 1,14,-1
 531 330 l 1,15,16
 531 369 531 369 511 414 c 128,-1,17
 491 459 491 459 457 487 c 1,18,-1
 368 487 l 1,19,-1
 368 328 l 1,20,-1
 445 373 l 1,21,22
 488 338 488 338 556 238 c 128,-1,23
 624 138 624 138 677 0 c 1,24,-1
 265 0 l 1,25,-1
 265 487 l 1,26,-1
 159 487 l 1,27,-1
 159 303 l 1,28,-1
 56 303 l 1,29,-1
 56 512 l 1,30,-1
 265 512 l 1,31,-1
 265 717 l 1,6,-1
EndSplineSet
Validated: 19457
EndChar

StartChar: uni0465
Encoding: 1125 1125 164
Width: 683
VWidth: 0
Flags: W
HStem: 0 7G<79 181 420.5 516> 261 25<181 252 362 562> 492 20G<79 181 445.5 507>
VStem: 79 102<0 261 286 512>
AnchorPoint: "top" 299 579 basechar 0
LayerCount: 2
Fore
SplineSet
489 391 m 1,0,1
 442 446 442 446 433 463 c 1,2,3
 386 432 386 432 370 401 c 128,-1,4
 354 370 354 370 354 317 c 0,5,6
 354 301 354 301 357 286 c 1,7,-1
 562 286 l 1,8,-1
 562 261 l 1,9,-1
 362 261 l 1,10,11
 375 219 375 219 406.5 178 c 128,-1,12
 438 137 438 137 470.5 103 c 128,-1,13
 503 69 503 69 512 49 c 1,14,15
 561 86 561 86 574 127 c 1,16,-1
 631 106 l 1,17,18
 568 23 568 23 464 -14 c 1,19,20
 377 24 377 24 314.5 107.5 c 128,-1,21
 252 191 252 191 252 254 c 2,22,-1
 252 261 l 1,23,-1
 181 261 l 1,24,-1
 181 0 l 1,25,-1
 79 0 l 1,26,-1
 79 512 l 1,27,-1
 181 512 l 1,28,-1
 181 286 l 1,29,-1
 256 286 l 1,30,31
 265 327 265 327 289 369 c 128,-1,32
 313 411 313 411 363 455 c 128,-1,33
 413 499 413 499 478 522 c 1,34,35
 536 497 536 497 590 443 c 1,36,-1
 489 391 l 1,0,1
EndSplineSet
Validated: 19457
EndChar

StartChar: uni0467
Encoding: 1127 1127 165
Width: 717
VWidth: 0
Flags: W
HStem: 0 190<307 410> 166 24<179 307 410 502> 492 20G<260.5 477>
VStem: 307 103<0 166>
AnchorPoint: "top" 378 579 basechar 0
LayerCount: 2
Fore
SplineSet
330 484 m 1,0,1
 219 324 219 324 179 190 c 1,2,-1
 502 190 l 1,3,4
 442 340 442 340 330 484 c 1,0,1
37 0 m 1,5,6
 65 111 65 111 139.5 249.5 c 128,-1,7
 214 388 214 388 307 512 c 1,8,-1
 440 512 l 1,9,10
 514 414 514 414 578 272 c 128,-1,11
 642 130 642 130 674 0 c 1,12,-1
 558 0 l 1,13,14
 544 70 544 70 510 166 c 1,15,-1
 410 166 l 1,16,-1
 410 0 l 1,17,-1
 307 0 l 1,18,-1
 307 166 l 1,19,-1
 172 166 l 1,20,21
 152 86 152 86 148 0 c 1,22,-1
 37 0 l 1,5,6
EndSplineSet
Validated: 19457
EndChar

StartChar: uni0469
Encoding: 1129 1129 166
Width: 909
VWidth: 0
Flags: W
HStem: 0 190<499 601> 166 24<371 499 601 693> 261 25<181 337> 492 20G<79 181 457 669>
VStem: 79 102<0 261 286 512> 499 102<0 166> 750 115<0 78.2266>
AnchorPoint: "top" 353 579 basechar 0
LayerCount: 2
Fore
SplineSet
521 484 m 1,0,1
 412 327 412 327 371 190 c 1,2,-1
 693 190 l 1,3,4
 633 340 633 340 521 484 c 1,0,1
351 286 m 1,5,6
 415 398 415 398 499 512 c 1,7,-1
 632 512 l 1,8,9
 706 414 706 414 769.5 272 c 128,-1,10
 833 130 833 130 865 0 c 1,11,-1
 750 0 l 1,12,13
 737 63 737 63 701 166 c 1,14,-1
 601 166 l 1,15,-1
 601 0 l 1,16,-1
 499 0 l 1,17,-1
 499 166 l 1,18,-1
 364 166 l 1,19,20
 344 86 344 86 340 0 c 1,21,-1
 228 0 l 1,22,23
 253 106 253 106 337 261 c 1,24,-1
 181 261 l 1,25,-1
 181 0 l 1,26,-1
 79 0 l 1,27,-1
 79 512 l 1,28,-1
 181 512 l 1,29,-1
 181 286 l 1,30,-1
 351 286 l 1,5,6
EndSplineSet
Validated: 19457
EndChar

StartChar: uniA656
Encoding: 42582 42582 167
Width: 956
VWidth: 0
Flags: W
HStem: 0 24<61 120.647 265.353 325 356 412.358 535.299 592 632 691.162 835.353 895> 262 62<522.578 606.164> 639 25<256 648> 693 24<61 120.647 273.413 325 632 682.588 835.353 895>
VStem: 132 122<34.3208 638.477> 382 118<345.919 449.167> 438 71<41.5378 121.642> 702 122<34.3208 377 395.191 630.717>
AnchorPoint: "top" 483 748 basechar 0
LayerCount: 2
Fore
SplineSet
254 88 m 2,0,1
 254 44 254 44 265 34 c 128,-1,2
 276 24 276 24 325 24 c 1,3,-1
 325 0 l 1,4,-1
 61 0 l 1,5,-1
 61 24 l 1,6,7
 110 24 110 24 121 34 c 128,-1,8
 132 44 132 44 132 88 c 2,9,-1
 132 628 l 2,10,11
 132 672 132 672 121 682.5 c 128,-1,12
 110 693 110 693 61 693 c 1,13,-1
 61 717 l 1,14,-1
 325 717 l 1,15,-1
 325 693 l 1,16,17
 286 693 286 693 273 688 c 128,-1,18
 260 683 260 683 256 664 c 1,19,-1
 700 664 l 1,20,21
 696 683 696 683 683 688 c 128,-1,22
 670 693 670 693 632 693 c 1,23,-1
 632 717 l 1,24,-1
 895 717 l 1,25,-1
 895 693 l 1,26,27
 846 693 846 693 835 682.5 c 128,-1,28
 824 672 824 672 824 628 c 2,29,-1
 824 88 l 2,30,31
 824 44 824 44 835 34 c 128,-1,32
 846 24 846 24 895 24 c 1,33,-1
 895 0 l 1,34,-1
 632 0 l 1,35,-1
 632 24 l 1,36,37
 681 24 681 24 691.5 34 c 128,-1,38
 702 44 702 44 702 88 c 2,39,-1
 702 377 l 1,40,41
 623 262 623 262 522 262 c 1,42,43
 561 236 561 236 561 189 c 0,44,45
 561 133 561 133 509 110 c 1,46,-1
 509 102 l 2,47,48
 509 58 509 58 528 41 c 128,-1,49
 547 24 547 24 592 24 c 1,50,-1
 592 0 l 1,51,-1
 356 0 l 1,52,-1
 356 24 l 1,53,54
 401 24 401 24 419.5 41 c 128,-1,55
 438 58 438 58 438 102 c 2,56,-1
 438 109 l 1,57,58
 414 119 414 119 399 140.5 c 128,-1,59
 384 162 384 162 384 189 c 0,60,61
 384 218 384 218 401.5 241.5 c 128,-1,62
 419 265 419 265 446 273 c 1,63,64
 382 295 382 295 382 370 c 0,65,66
 382 511 382 511 648 639 c 1,67,-1
 254 639 l 1,68,-1
 254 628 l 1,69,-1
 254 88 l 2,0,1
702 424 m 1,70,-1
 702 628 l 1,71,-1
 702 632 l 1,72,73
 671 620 671 620 642 603.5 c 128,-1,74
 613 587 613 587 578 560.5 c 128,-1,75
 543 534 543 534 521.5 497 c 128,-1,76
 500 460 500 460 500 418 c 0,77,78
 500 324 500 324 580 324 c 0,79,80
 631 324 631 324 702 424 c 1,70,-1
EndSplineSet
Validated: 19457
EndChar

StartChar: uniA657
Encoding: 42583 42583 168
Width: 653
VWidth: 0
Flags: W
HStem: -10 77<297.5 421.122> 0 21G<79 181 490.129 598> 403 25<181 418> 492 20G<79 181 403 497.5>
VStem: 79 102<0 403 428 512> 220 96<100.027 192.734>
AnchorPoint: "top" 298 579 basechar 0
LayerCount: 2
Fore
SplineSet
511 495 m 2,0,-1
 598 0 l 1,1,-1
 494 0 l 1,2,-1
 482 62 l 1,3,4
 422 -10 422 -10 326 -10 c 0,5,6
 269 -10 269 -10 244.5 25 c 128,-1,7
 220 60 220 60 220 104 c 0,8,9
 220 234 220 234 422 403 c 1,10,-1
 181 403 l 1,11,-1
 181 0 l 1,12,-1
 79 0 l 1,13,-1
 79 512 l 1,14,-1
 181 512 l 1,15,-1
 181 428 l 1,16,-1
 418 428 l 1,17,-1
 403 512 l 1,18,-1
 487 512 l 2,19,20
 508 512 508 512 511 495 c 2,0,-1
475 106 m 1,21,-1
 427 376 l 1,22,23
 316 283 316 283 316 179 c 0,24,25
 316 140 316 140 336 103.5 c 128,-1,26
 356 67 356 67 397 67 c 0,27,28
 447 67 447 67 475 106 c 1,21,-1
EndSplineSet
Validated: 19457
EndChar

StartChar: afii10058
Encoding: 1033 1033 171
Width: 1007
VWidth: 0
Flags: W
HStem: 0 24<57 116.647 261.353 321 399 458.647 603.353 756.647 901.353 961> 693 24<399 458.647 603.353 663>
VStem: 128 122<34.3208 277.945> 470 122<34.3208 424 452.175 562 594.648 682.164> 768 122<34.3208 356.003>
LayerCount: 2
Fore
SplineSet
768 353 m 1,0,1
 656 367 656 367 592 424 c 1,2,-1
 592 88 l 2,3,4
 592 44 592 44 603 34 c 128,-1,5
 614 24 614 24 663 24 c 2,6,-1
 697 24 l 2,7,8
 746 24 746 24 757 34 c 128,-1,9
 768 44 768 44 768 88 c 2,10,-1
 768 353 l 1,0,1
592 475 m 1,11,12
 639 419 639 419 709 398 c 128,-1,13
 779 377 779 377 890 377 c 1,14,-1
 890 88 l 2,15,16
 890 44 890 44 901 34 c 128,-1,17
 912 24 912 24 961 24 c 1,18,-1
 961 0 l 1,19,-1
 399 0 l 1,20,-1
 399 24 l 1,21,22
 448 24 448 24 459 34 c 128,-1,23
 470 44 470 44 470 88 c 2,24,-1
 470 562 l 1,25,26
 355 504 355 504 302.5 395 c 128,-1,27
 250 286 250 286 250 88 c 0,28,29
 250 44 250 44 261 34 c 128,-1,30
 272 24 272 24 321 24 c 1,31,-1
 321 0 l 1,32,-1
 57 0 l 1,33,-1
 57 24 l 1,34,35
 106 24 106 24 117 34 c 128,-1,36
 128 44 128 44 128 88 c 0,37,38
 128 156 128 156 135 208 c 128,-1,39
 142 260 142 260 163 318 c 128,-1,40
 184 376 184 376 221 422.5 c 128,-1,41
 258 469 258 469 320.5 516.5 c 128,-1,42
 383 564 383 564 470 605 c 1,43,-1
 470 628 l 2,44,45
 470 672 470 672 459 682.5 c 128,-1,46
 448 693 448 693 399 693 c 1,47,-1
 399 717 l 1,48,-1
 663 717 l 1,49,-1
 663 693 l 1,50,51
 614 693 614 693 603 682.5 c 128,-1,52
 592 672 592 672 592 628 c 2,53,-1
 592 475 l 1,11,12
EndSplineSet
Validated: 19457
EndChar

StartChar: afii10059
Encoding: 1034 1034 172
Width: 994
VWidth: 0
Flags: W
HStem: 0 24<61 120.647 265.353 325 386 445.647 589.838 743.647 887.838 947> 693 24<61 120.647 265.353 325 386 445.647 590.353 649>
VStem: 132 122<34.3208 461 510 682.164> 457 122<34.3208 218 269 424 452.175 682.164> 755 122<34.3208 356.003>
LayerCount: 2
Fore
SplineSet
649 24 m 2,0,-1
 684 24 l 2,1,2
 733 24 733 24 744 34 c 128,-1,3
 755 44 755 44 755 88 c 2,4,-1
 755 353 l 1,5,6
 643 367 643 367 579 424 c 1,7,-1
 579 88 l 2,8,9
 579 44 579 44 589.5 34 c 128,-1,10
 600 24 600 24 649 24 c 2,0,-1
579 628 m 2,11,-1
 579 475 l 1,12,13
 626 419 626 419 696 398 c 128,-1,14
 766 377 766 377 877 377 c 1,15,-1
 877 88 l 2,16,17
 877 44 877 44 887.5 34 c 128,-1,18
 898 24 898 24 947 24 c 1,19,-1
 947 0 l 1,20,-1
 386 0 l 1,21,-1
 386 24 l 1,22,23
 435 24 435 24 446 34 c 128,-1,24
 457 44 457 44 457 88 c 2,25,-1
 457 218 l 1,26,-1
 254 461 l 1,27,-1
 254 88 l 2,28,29
 254 44 254 44 265 34 c 128,-1,30
 276 24 276 24 325 24 c 1,31,-1
 325 0 l 1,32,-1
 61 0 l 1,33,-1
 61 24 l 1,34,35
 110 24 110 24 121 34 c 128,-1,36
 132 44 132 44 132 88 c 2,37,-1
 132 628 l 2,38,39
 132 672 132 672 121 682.5 c 128,-1,40
 110 693 110 693 61 693 c 1,41,-1
 61 717 l 1,42,-1
 325 717 l 1,43,-1
 325 693 l 1,44,45
 276 693 276 693 265 682.5 c 128,-1,46
 254 672 254 672 254 628 c 2,47,-1
 254 510 l 1,48,-1
 457 269 l 1,49,-1
 457 628 l 2,50,51
 457 672 457 672 446 682.5 c 128,-1,52
 435 693 435 693 386 693 c 1,53,-1
 386 717 l 1,54,-1
 649 717 l 1,55,-1
 649 693 l 1,56,57
 601 693 601 693 590 683 c 128,-1,58
 579 673 579 673 579 628 c 2,11,-1
EndSplineSet
Validated: 19457
EndChar

StartChar: afii10106
Encoding: 1113 1113 173
Width: 813
VWidth: 0
Flags: W
HStem: 0 25<467 641> 492 20G<365 467>
VStem: 49 108<0 140.327> 365 102<25 300 328 402 435.623 512>
LayerCount: 2
Fore
SplineSet
467 25 m 1,0,-1
 641 25 l 1,1,2
 616 121 616 121 578 201 c 128,-1,3
 540 281 540 281 508 323 c 1,4,-1
 467 300 l 1,5,-1
 467 25 l 1,0,-1
365 512 m 1,6,-1
 467 512 l 1,7,-1
 467 328 l 1,8,-1
 545 373 l 1,9,10
 588 338 588 338 655.5 238 c 128,-1,11
 723 138 723 138 776 0 c 1,12,-1
 365 0 l 1,13,-1
 365 402 l 1,14,15
 259 350 259 350 208 253.5 c 128,-1,16
 157 157 157 157 157 35 c 0,17,18
 157 11 157 11 158 0 c 1,19,-1
 49 0 l 1,20,21
 51 64 51 64 64.5 117.5 c 128,-1,22
 78 171 78 171 111 230 c 128,-1,23
 144 289 144 289 208 344 c 128,-1,24
 272 399 272 399 365 446 c 1,25,-1
 365 512 l 1,6,-1
EndSplineSet
Validated: 19457
EndChar

StartChar: afii10107
Encoding: 1114 1114 174
Width: 786
VWidth: 0
Flags: W
HStem: 0 25<440 614> 492 20G<61 164 338 440>
VStem: 61 103<0 318 358 512> 338 102<25 197 237 300 328 512>
LayerCount: 2
Fore
SplineSet
164 0 m 1,0,-1
 61 0 l 1,1,-1
 61 512 l 1,2,-1
 164 512 l 1,3,-1
 164 358 l 1,4,-1
 338 237 l 1,5,-1
 338 512 l 1,6,-1
 440 512 l 1,7,-1
 440 328 l 1,8,-1
 518 373 l 1,9,10
 561 338 561 338 629 238 c 128,-1,11
 697 138 697 138 750 0 c 1,12,-1
 338 0 l 1,13,-1
 338 197 l 1,14,-1
 164 318 l 1,15,-1
 164 0 l 1,0,-1
440 300 m 1,16,-1
 440 25 l 1,17,-1
 614 25 l 1,18,19
 589 121 589 121 551 201 c 128,-1,20
 513 281 513 281 481 323 c 1,21,-1
 440 300 l 1,16,-1
EndSplineSet
Validated: 19457
EndChar

StartChar: afii10108
Encoding: 1115 1115 175
Width: 559
VWidth: 0
Flags: W
HStem: 0 21G<87 189 384 486> 399 25<234.6 338.805> 487 25<61 87 189 395> 697 20G<87 189>
VStem: 87 102<0 368.457 412 487 512 717> 384 102<0 337.281>
LayerCount: 2
Fore
SplineSet
189 0 m 1,0,-1
 87 0 l 1,1,-1
 87 487 l 1,2,-1
 61 487 l 1,3,-1
 61 512 l 1,4,-1
 87 512 l 1,5,-1
 87 717 l 1,6,-1
 189 717 l 1,7,-1
 189 512 l 1,8,-1
 395 512 l 1,9,-1
 395 487 l 1,10,-1
 189 487 l 1,11,-1
 189 412 l 1,12,13
 225 424 225 424 287 424 c 0,14,15
 323 424 323 424 356.5 414.5 c 128,-1,16
 390 405 390 405 420 385.5 c 128,-1,17
 450 366 450 366 468 329.5 c 128,-1,18
 486 293 486 293 486 244 c 2,19,-1
 486 0 l 1,20,-1
 384 0 l 1,21,-1
 384 276 l 2,22,23
 384 318 384 318 374 345 c 128,-1,24
 364 372 364 372 346.5 382.5 c 128,-1,25
 329 393 329 393 316.5 396 c 128,-1,26
 304 399 304 399 287 399 c 128,-1,27
 270 399 270 399 257.5 396 c 128,-1,28
 245 393 245 393 227 382.5 c 128,-1,29
 209 372 209 372 199 345 c 128,-1,30
 189 318 189 318 189 276 c 2,31,-1
 189 0 l 1,0,-1
EndSplineSet
Validated: 19457
EndChar

StartChar: afii10145
Encoding: 1039 1039 176
Width: 719
VWidth: 0
Flags: W
HStem: 0 24<65 123.647 268.353 351 370 451.647 596.353 655> 693 24<65 124.162 268.353 328 392 451.647 595.838 655>
VStem: 135 122<34.8363 682.679> 463 122<34.8363 682.679>
AnchorPoint: "top" 365 748 basechar 0
LayerCount: 2
Fore
SplineSet
392 24 m 2,0,1
 441 24 441 24 452 34.5 c 128,-1,2
 463 45 463 45 463 89 c 2,3,-1
 463 629 l 2,4,5
 463 673 463 673 452 683 c 128,-1,6
 441 693 441 693 392 693 c 1,7,-1
 392 717 l 1,8,-1
 655 717 l 1,9,-1
 655 693 l 1,10,11
 606 693 606 693 595.5 683 c 128,-1,12
 585 673 585 673 585 629 c 2,13,-1
 585 89 l 2,14,15
 585 44 585 44 596 34 c 128,-1,16
 607 24 607 24 655 24 c 1,17,-1
 655 0 l 1,18,-1
 370 0 l 1,19,-1
 446 -77 l 1,20,-1
 360 -164 l 1,21,-1
 273 -77 l 1,22,-1
 351 0 l 1,23,-1
 65 0 l 1,24,-1
 65 24 l 1,25,26
 113 24 113 24 124 34 c 128,-1,27
 135 44 135 44 135 89 c 2,28,-1
 135 629 l 2,29,30
 135 673 135 673 124.5 683 c 128,-1,31
 114 693 114 693 65 693 c 1,32,-1
 65 717 l 1,33,-1
 328 717 l 1,34,-1
 328 693 l 1,35,36
 279 693 279 693 268 683 c 128,-1,37
 257 673 257 673 257 629 c 2,38,-1
 257 89 l 2,39,40
 257 45 257 45 268 34.5 c 128,-1,41
 279 24 279 24 328 24 c 2,42,-1
 392 24 l 2,0,1
EndSplineSet
Validated: 19457
EndChar

StartChar: afii10193
Encoding: 1119 1119 177
Width: 534
VWidth: 0
Flags: W
HStem: -205 21G<217 319> 0 25<181 217 319 355> 492 20G<79 181 355 458>
VStem: 79 102<25 512> 217 102<-205 0> 355 103<25 512>
AnchorPoint: "top" 267 579 basechar 0
LayerCount: 2
Fore
SplineSet
355 25 m 1,0,-1
 355 512 l 1,1,-1
 458 512 l 1,2,-1
 458 0 l 1,3,-1
 319 0 l 1,4,-1
 319 -205 l 1,5,-1
 217 -205 l 1,6,-1
 217 0 l 1,7,-1
 79 0 l 1,8,-1
 79 512 l 1,9,-1
 181 512 l 1,10,-1
 181 25 l 1,11,-1
 355 25 l 1,0,-1
EndSplineSet
Validated: 19457
EndChar

StartChar: uni046B
Encoding: 1131 1131 178
Width: 739
VWidth: 0
Flags: W
HStem: 0 21G<68 170 319 422 571 674> 265 21<288.678 319 422 452.516> 487 25<265 557>
VStem: 68 102<0 139.29> 319 103<0 265 284.57 288> 571 103<0 134.917>
AnchorPoint: "top" 375 579 basechar 0
LayerCount: 2
Fore
SplineSet
319 286 m 1,0,-1
 319 288 l 1,1,-1
 131 512 l 1,2,-1
 610 512 l 1,3,-1
 422 288 l 1,4,-1
 422 286 l 1,5,6
 674 267 674 267 674 0 c 1,7,-1
 571 0 l 1,8,9
 571 125 571 125 527.5 188.5 c 128,-1,10
 484 252 484 252 422 265 c 1,11,-1
 422 0 l 1,12,-1
 319 0 l 1,13,-1
 319 265 l 1,14,15
 257 252 257 252 213.5 188.5 c 128,-1,16
 170 125 170 125 170 0 c 1,17,-1
 68 0 l 1,18,19
 68 80 68 80 89.5 137.5 c 128,-1,20
 111 195 111 195 149.5 225 c 128,-1,21
 188 255 188 255 228.5 268.5 c 128,-1,22
 269 282 269 282 319 286 c 1,0,-1
412 313 m 1,23,-1
 557 487 l 1,24,-1
 265 487 l 1,25,-1
 412 313 l 1,23,-1
EndSplineSet
Validated: 19457
EndChar

StartChar: uni046D
Encoding: 1133 1133 179
Width: 920
VWidth: 0
Flags: W
HStem: 0 21G<79 181 249 351 501 603 753 855> 261 25<181 390 603 640.837> 487 25<446 738>
VStem: 79 102<0 261 286 512> 249 102<0 135.992> 501 102<0 265 286 288> 753 102<0 134.917>
AnchorPoint: "top" 282 579 basechar 0
LayerCount: 2
Fore
SplineSet
79 512 m 1,0,-1
 181 512 l 1,1,-1
 181 286 l 1,2,-1
 501 286 l 1,3,-1
 501 288 l 1,4,-1
 312 512 l 1,5,-1
 792 512 l 1,6,-1
 603 288 l 1,7,-1
 603 286 l 1,8,9
 855 267 855 267 855 0 c 1,10,-1
 753 0 l 1,11,12
 753 125 753 125 709 188.5 c 128,-1,13
 665 252 665 252 603 265 c 1,14,-1
 603 0 l 1,15,-1
 501 0 l 1,16,-1
 501 265 l 1,17,18
 439 252 439 252 395 188.5 c 128,-1,19
 351 125 351 125 351 0 c 1,20,-1
 249 0 l 1,21,22
 249 202 249 202 390 261 c 1,23,-1
 181 261 l 1,24,-1
 181 0 l 1,25,-1
 79 0 l 1,26,-1
 79 512 l 1,0,-1
593 313 m 1,27,-1
 738 487 l 1,28,-1
 446 487 l 1,29,-1
 593 313 l 1,27,-1
EndSplineSet
Validated: 19457
EndChar

StartChar: afii10060
Encoding: 1035 1035 180
Width: 817
VWidth: 0
Flags: W
HStem: 0 24<198 256.647 401.868 461 507 566.647 710.353 770> 332 24<390 508.812> 692 25<171.691 256.647 401.353 487.309>
VStem: 94 25<535 606.337> 268 122<34.8363 332 356 681.164> 540 24<535 604.18> 578 121<34.8363 276.517>
LayerCount: 2
Fore
SplineSet
268 627 m 2,0,1
 268 672 268 672 257 682 c 128,-1,2
 246 692 246 692 198 692 c 0,3,4
 169 692 169 692 144 638 c 128,-1,5
 119 584 119 584 119 535 c 1,6,-1
 94 535 l 1,7,8
 94 573 94 573 81 612.5 c 128,-1,9
 68 652 68 652 54 672 c 2,10,-1
 41 692 l 1,11,-1
 41 717 l 1,12,-1
 617 717 l 1,13,-1
 617 692 l 1,14,15
 611 684 611 684 602 670 c 128,-1,16
 593 656 593 656 578.5 614.5 c 128,-1,17
 564 573 564 573 564 535 c 1,18,-1
 540 535 l 1,19,20
 540 584 540 584 515 638 c 128,-1,21
 490 692 490 692 461 692 c 0,22,23
 412 692 412 692 401 681.5 c 128,-1,24
 390 671 390 671 390 627 c 2,25,-1
 390 356 l 1,26,27
 467 356 467 356 511.5 354 c 128,-1,28
 556 352 556 352 595 341 c 128,-1,29
 634 330 634 330 651 315 c 128,-1,30
 668 300 668 300 681 266.5 c 128,-1,31
 694 233 694 233 696.5 194.5 c 128,-1,32
 699 156 699 156 699 89 c 0,33,34
 699 45 699 45 710 34.5 c 128,-1,35
 721 24 721 24 770 24 c 1,36,-1
 770 0 l 1,37,-1
 507 0 l 1,38,-1
 507 24 l 1,39,40
 556 24 556 24 567 34.5 c 128,-1,41
 578 45 578 45 578 89 c 0,42,43
 578 149 578 149 576.5 183.5 c 128,-1,44
 575 218 575 218 567.5 249 c 128,-1,45
 560 280 560 280 549.5 293.5 c 128,-1,46
 539 307 539 307 515.5 317.5 c 128,-1,47
 492 328 492 328 464.5 330 c 128,-1,48
 437 332 437 332 390 332 c 1,49,-1
 390 89 l 2,50,51
 390 45 390 45 401.5 34.5 c 128,-1,52
 413 24 413 24 460 24 c 2,53,-1
 461 24 l 1,54,-1
 461 0 l 1,55,-1
 198 0 l 1,56,-1
 198 24 l 1,57,58
 246 24 246 24 257 34 c 128,-1,59
 268 44 268 44 268 89 c 2,60,-1
 268 627 l 2,0,1
EndSplineSet
Validated: 19457
EndChar

StartChar: afii10051
Encoding: 1026 1026 181
Width: 817
VWidth: 0
Flags: W
HStem: 0 24<198 256.647 401.868 461> 346 25<390 474.164> 692 25<171.691 256.647 401.353 487.309>
VStem: 94 25<535 606.337> 268 122<34.8363 346 371 681.164> 540 24<535 604.18> 578 121<80.1982 266.75>
LayerCount: 2
Fore
SplineSet
403 -166 m 5,0,-1
 403 -142 l 1,1,2
 492 -100 492 -100 535 -39 c 128,-1,3
 578 22 578 22 578 127 c 0,4,5
 578 166 578 166 575 193.5 c 128,-1,6
 572 221 572 221 561.5 252 c 128,-1,7
 551 283 551 283 531.5 302 c 128,-1,8
 512 321 512 321 476 333.5 c 128,-1,9
 440 346 440 346 390 346 c 1,10,-1
 390 89 l 2,11,12
 390 45 390 45 401.5 34.5 c 128,-1,13
 413 24 413 24 460 24 c 2,14,-1
 461 24 l 1,15,-1
 461 0 l 1,16,-1
 198 0 l 1,17,-1
 198 24 l 1,18,19
 246 24 246 24 257 34 c 128,-1,20
 268 44 268 44 268 89 c 2,21,-1
 268 627 l 2,22,23
 268 672 268 672 257 682 c 128,-1,24
 246 692 246 692 198 692 c 0,25,26
 169 692 169 692 144 638 c 128,-1,27
 119 584 119 584 119 535 c 1,28,-1
 94 535 l 1,29,30
 94 573 94 573 81 612.5 c 128,-1,31
 68 652 68 652 54 672 c 2,32,-1
 41 692 l 1,33,-1
 41 717 l 1,34,-1
 617 717 l 1,35,-1
 617 692 l 1,36,37
 611 684 611 684 602 670 c 128,-1,38
 593 656 593 656 578.5 614.5 c 128,-1,39
 564 573 564 573 564 535 c 1,40,-1
 540 535 l 1,41,42
 540 584 540 584 515 638 c 128,-1,43
 490 692 490 692 461 692 c 0,44,45
 412 692 412 692 401 681.5 c 128,-1,46
 390 671 390 671 390 627 c 2,47,-1
 390 371 l 1,48,49
 471 371 471 371 530 359 c 128,-1,50
 589 347 589 347 621 329.5 c 128,-1,51
 653 312 653 312 671.5 284.5 c 128,-1,52
 690 257 690 257 694.5 234.5 c 128,-1,53
 699 212 699 212 699 182 c 0,54,55
 699 125 699 125 672.5 68.5 c 128,-1,56
 646 12 646 12 607 -28.5 c 128,-1,57
 568 -69 568 -69 525.5 -101 c 128,-1,58
 483 -133 483 -133 450 -149 c 128,-1,59
 417 -165 417 -165 403 -166 c 5,0,-1
EndSplineSet
Validated: 19457
EndChar

StartChar: afii10099
Encoding: 1106 1106 182
Width: 547
VWidth: 0
Flags: W
HStem: 0 21G<87 189> 399 25<234.6 336.382> 487 25<61 87 189 395> 697 20G<87 189>
VStem: 87 102<0 368.457 412 487 512 717> 384 102<102.01 336.96>
LayerCount: 2
Fore
SplineSet
486 244 m 0,0,1
 486 160 486 160 459 87.5 c 128,-1,2
 432 15 432 15 394 -29.5 c 128,-1,3
 356 -74 356 -74 312.5 -106.5 c 128,-1,4
 269 -139 269 -139 237.5 -152 c 128,-1,5
 206 -165 206 -165 190 -166 c 1,6,-1
 190 -142 l 1,7,8
 299 -101 299 -101 341.5 -20.5 c 128,-1,9
 384 60 384 60 384 231 c 0,10,11
 384 330 384 330 360 364.5 c 128,-1,12
 336 399 336 399 287 399 c 0,13,14
 270 399 270 399 257.5 396 c 128,-1,15
 245 393 245 393 227 382.5 c 128,-1,16
 209 372 209 372 199 345 c 128,-1,17
 189 318 189 318 189 276 c 2,18,-1
 189 0 l 1,19,-1
 87 0 l 1,20,-1
 87 487 l 1,21,-1
 61 487 l 1,22,-1
 61 512 l 1,23,-1
 87 512 l 1,24,-1
 87 717 l 1,25,-1
 189 717 l 1,26,-1
 189 512 l 1,27,-1
 395 512 l 1,28,-1
 395 487 l 1,29,-1
 189 487 l 1,30,-1
 189 412 l 1,31,32
 225 424 225 424 287 424 c 0,33,34
 323 424 323 424 356.5 414.5 c 128,-1,35
 390 405 390 405 420 385.5 c 128,-1,36
 450 366 450 366 468 329.5 c 128,-1,37
 486 293 486 293 486 244 c 0,0,1
EndSplineSet
Validated: 19457
EndChar

StartChar: breve
Encoding: 728 728 183
Width: 376
VWidth: 0
Flags: W
HStem: 559 25<122.951 256.466>
VStem: 41 72<591.625 647.527> 264 72<601 647.527>
LayerCount: 2
Fore
SplineSet
188 559 m 0,0,1
 41 559 41 559 41 617 c 0,2,3
 41 638 41 638 51 650.5 c 128,-1,4
 61 663 61 663 76 663 c 0,5,6
 97 663 97 663 105 648 c 128,-1,7
 113 633 113 633 113 601 c 1,8,9
 141 584 141 584 188 584 c 0,10,11
 209 584 209 584 228 588 c 0,12,13
 248 592 248 592 256 596 c 2,14,-1
 264 601 l 1,15,16
 264 633 264 633 272 648 c 128,-1,17
 280 663 280 663 301 663 c 0,18,19
 316 663 316 663 326 650.5 c 128,-1,20
 336 638 336 638 336 617 c 0,21,22
 336 559 336 559 188 559 c 0,0,1
EndSplineSet
Validated: 19457
EndChar

StartChar: asciitilde
Encoding: 126 126 188
Width: 376
VWidth: 0
Flags: W
HStem: 530 38<212.191 269> 574 38<108 164.809>
VStem: 30 317<569 574>
LayerCount: 2
Fore
SplineSet
294 530 m 0,0,1
 260 530 260 530 203.5 552 c 128,-1,2
 147 574 147 574 118 574 c 1,3,-1
 108 573 l 1,4,5
 89 528 89 528 65 528 c 0,6,7
 54 528 54 528 42 536.5 c 128,-1,8
 30 545 30 545 30 563 c 0,9,10
 30 574 30 574 33 583.5 c 128,-1,11
 36 593 36 593 49 602.5 c 128,-1,12
 62 612 62 612 83 612 c 0,13,14
 117 612 117 612 173.5 590 c 128,-1,15
 230 568 230 568 259 568 c 1,16,-1
 269 569 l 1,17,18
 288 614 288 614 312 614 c 0,19,20
 319 614 319 614 326 611.5 c 128,-1,21
 333 609 333 609 340 601 c 128,-1,22
 347 593 347 593 347 580 c 0,23,24
 347 569 347 569 344 559 c 128,-1,25
 341 549 341 549 328 539.5 c 128,-1,26
 315 530 315 530 294 530 c 0,0,1
EndSplineSet
Validated: 19457
EndChar

StartChar: grave
Encoding: 96 96 189
Width: 337
VWidth: 0
Flags: W
HStem: 555 231
VStem: 41 256
LayerCount: 2
Fore
SplineSet
104 786 m 25,0,-1
 297 582 l 1,1,-1
 272 555 l 1,2,-1
 41 715 l 1,3,-1
 104 786 l 25,0,-1
EndSplineSet
Validated: 19457
EndChar

StartChar: acute
Encoding: 180 180 190
Width: 337
VWidth: 0
Flags: W
HStem: 555 231
VStem: 41 256
LayerCount: 2
Fore
SplineSet
233 786 m 25,0,-1
 297 715 l 1,1,-1
 66 555 l 1,2,-1
 41 582 l 1,3,-1
 233 786 l 25,0,-1
EndSplineSet
Validated: 19457
EndChar

StartChar: asciicircum
Encoding: 94 94 195
Width: 403
VWidth: 0
Flags: W
HStem: 555 198
VStem: 41 321
LayerCount: 2
Fore
SplineSet
202 753 m 1,0,-1
 362 582 l 1,1,-1
 338 555 l 1,2,-1
 202 649 l 1,3,-1
 66 555 l 1,4,-1
 41 582 l 1,5,-1
 202 753 l 1,0,-1
EndSplineSet
Validated: 19457
EndChar

StartChar: ring
Encoding: 730 730 197
Width: 274
VWidth: 0
Flags: W
HStem: 545 32<94.4158 179.797> 706 31<95.5321 178.666>
VStem: 41 32<598.416 683.797> 202 31<599.532 682.666>
LayerCount: 2
Fore
SplineSet
73 641 m 128,-1,1
 73 614 73 614 91.5 595.5 c 128,-1,2
 110 577 110 577 137 577 c 128,-1,3
 164 577 164 577 183 595.5 c 128,-1,4
 202 614 202 614 202 641 c 128,-1,5
 202 668 202 668 183 687 c 128,-1,6
 164 706 164 706 137 706 c 128,-1,7
 110 706 110 706 91.5 687 c 128,-1,0
 73 668 73 668 73 641 c 128,-1,1
41 641 m 128,-1,9
 41 680 41 680 69.5 708.5 c 128,-1,10
 98 737 98 737 137 737 c 128,-1,11
 176 737 176 737 204.5 708.5 c 128,-1,12
 233 680 233 680 233 641 c 128,-1,13
 233 602 233 602 204.5 573.5 c 128,-1,14
 176 545 176 545 137 545 c 128,-1,15
 98 545 98 545 69.5 573.5 c 128,-1,8
 41 602 41 602 41 641 c 128,-1,9
EndSplineSet
Validated: 19457
EndChar

StartChar: AE
Encoding: 198 198 199
Width: 1056
VWidth: 0
Flags: W
HStem: -10 24<624.149 739.724> 0 24<61 117.358 240.299 297 337 396.647> 173 24<727 792.007 941.953 990> 262 62<227.578 311.848> 287 23<712 779.712 929.865 975> 443 27<600.093 744.119> 521 24<727 792.007 940.524 990> 693 24<337 399.022> 703 25<622.948 741.282>
VStem: 87 118<346.062 449.411> 143 71<41.5378 121.642> 408 121<136.543 377 395.191 401.853 422 582.521>
AnchorPoint: "top" 485 748 basechar 0
LayerCount: 2
Fore
SplineSet
408 424 m 1,0,-1
 408 632 l 1,1,2
 377 620 377 620 348 603.5 c 128,-1,3
 319 587 319 587 283.5 560.5 c 128,-1,4
 248 534 248 534 226.5 497 c 128,-1,5
 205 460 205 460 205 418 c 0,6,7
 205 324 205 324 285 324 c 0,8,9
 337 324 337 324 408 424 c 1,0,-1
990 173 m 1,10,11
 953 173 953 173 932 154 c 128,-1,12
 911 135 911 135 898 108.5 c 128,-1,13
 885 82 885 82 866 55 c 128,-1,14
 847 28 847 28 799 9 c 128,-1,15
 751 -10 751 -10 675 -10 c 0,16,17
 631 -10 631 -10 597 0 c 1,18,-1
 337 0 l 1,19,-1
 337 24 l 1,20,21
 386 24 386 24 397 34 c 128,-1,22
 408 44 408 44 408 88 c 2,23,-1
 408 377 l 1,24,25
 329 262 329 262 227 262 c 1,26,27
 266 236 266 236 266 189 c 0,28,29
 266 133 266 133 214 110 c 1,30,-1
 214 102 l 2,31,32
 214 58 214 58 233 41 c 128,-1,33
 252 24 252 24 297 24 c 1,34,-1
 297 0 l 1,35,-1
 61 0 l 1,36,-1
 61 24 l 1,37,38
 106 24 106 24 124.5 41 c 128,-1,39
 143 58 143 58 143 102 c 2,40,-1
 143 109 l 1,41,42
 119 119 119 119 104 140.5 c 128,-1,43
 89 162 89 162 89 189 c 0,44,45
 89 218 89 218 107 241.5 c 128,-1,46
 125 265 125 265 152 273 c 1,47,48
 87 296 87 296 87 370 c 0,49,50
 87 421 87 421 122.5 470.5 c 128,-1,51
 158 520 158 520 215 558.5 c 128,-1,52
 272 597 272 597 316.5 620.5 c 128,-1,53
 361 644 361 644 406 663 c 1,54,55
 403 683 403 683 389.5 688 c 128,-1,56
 376 693 376 693 337 693 c 1,57,-1
 337 717 l 1,58,-1
 594 717 l 1,59,60
 633 728 633 728 675 728 c 0,61,62
 723 728 723 728 759.5 720 c 128,-1,63
 796 712 796 712 818 701.5 c 128,-1,64
 840 691 840 691 859 670 c 128,-1,65
 878 649 878 649 887 633.5 c 128,-1,66
 896 618 896 618 911 589 c 0,67,68
 933 545 933 545 990 545 c 1,69,-1
 990 521 l 1,70,-1
 727 521 l 1,71,-1
 727 545 l 1,72,73
 777 545 777 545 792.5 556 c 128,-1,74
 808 567 808 567 808 589 c 0,75,76
 808 631 808 631 774.5 667 c 128,-1,77
 741 703 741 703 677 703 c 0,78,79
 603 703 603 703 569 631 c 128,-1,80
 535 559 535 559 530 422 c 1,81,82
 589 470 589 470 668 470 c 0,83,84
 773 470 773 470 819 450.5 c 128,-1,85
 865 431 865 431 891 377 c 0,86,87
 898 361 898 361 901.5 355.5 c 128,-1,88
 905 350 905 350 915 336 c 128,-1,89
 925 322 925 322 940 316 c 128,-1,90
 955 310 955 310 975 310 c 1,91,-1
 975 287 l 1,92,-1
 712 287 l 1,93,-1
 712 310 l 1,94,95
 750 310 750 310 769.5 317 c 128,-1,96
 789 324 789 324 793 332.5 c 128,-1,97
 797 341 797 341 797 357 c 0,98,99
 797 385 797 385 768 414 c 128,-1,100
 739 443 739 443 670 443 c 0,101,102
 591 443 591 443 529 383 c 1,103,-1
 529 358 l 2,104,105
 529 188 529 188 562 101 c 128,-1,106
 595 14 595 14 677 14 c 0,107,108
 741 14 741 14 774.5 50 c 128,-1,109
 808 86 808 86 808 128 c 0,110,111
 808 151 808 151 792.5 162 c 128,-1,112
 777 173 777 173 727 173 c 1,113,-1
 727 197 l 1,114,-1
 990 197 l 1,115,-1
 990 173 l 1,10,11
EndSplineSet
Validated: 19457
EndChar

StartChar: ae
Encoding: 230 230 210
Width: 697
VWidth: 0
Flags: W
HStem: -10 77<127.5 252.322> 261 25<383 583> 492 20G<233 327.5 455.5 527>
VStem: 50 96<100.027 192.514>
AnchorPoint: "top" 379 579 basechar 0
LayerCount: 2
Fore
SplineSet
305 106 m 1,0,-1
 257 376 l 1,1,2
 146 283 146 283 146 179 c 0,3,4
 146 140 146 140 166 103.5 c 128,-1,5
 186 67 186 67 227 67 c 0,6,7
 277 67 277 67 305 106 c 1,0,-1
343 96 m 1,8,9
 292 32 292 32 250 11 c 128,-1,10
 208 -10 208 -10 156 -10 c 0,11,12
 99 -10 99 -10 74.5 25 c 128,-1,13
 50 60 50 60 50 104 c 0,14,15
 50 233 50 233 253 403 c 1,16,-1
 233 512 l 1,17,-1
 317 512 l 2,18,19
 338 512 338 512 341 495 c 2,20,-1
 353 426 l 1,21,22
 412 490 412 490 499 522 c 1,23,24
 555 498 555 498 610 443 c 1,25,-1
 510 391 l 1,26,27
 463 446 463 446 454 463 c 1,28,29
 407 432 407 432 391 401 c 128,-1,30
 375 370 375 370 375 317 c 0,31,32
 375 301 375 301 378 286 c 1,33,-1
 583 286 l 1,34,-1
 583 261 l 1,35,-1
 383 261 l 1,36,37
 396 219 396 219 427.5 178 c 128,-1,38
 459 137 459 137 491 103 c 128,-1,39
 523 69 523 69 532 49 c 1,40,41
 583 87 583 87 595 127 c 1,42,-1
 651 106 l 1,43,44
 588 23 588 23 484 -14 c 1,45,46
 403 23 403 23 343 96 c 1,8,9
EndSplineSet
Validated: 19457
EndChar

StartChar: afii10050
Encoding: 1168 1168 219
Width: 584
VWidth: 0
Flags: W
HStem: 0 24<61 120.647 265.353 325> 692 25<61 120.647 265.353 372.503>
VStem: 132 122<34.3208 681.164> 446 25<810.034 874>
LayerCount: 2
Fore
SplineSet
325 692 m 2,0,1
 276 692 276 692 265 681.5 c 128,-1,2
 254 671 254 671 254 627 c 2,3,-1
 254 88 l 2,4,5
 254 44 254 44 265 34 c 128,-1,6
 276 24 276 24 325 24 c 1,7,-1
 325 0 l 1,8,-1
 61 0 l 1,9,-1
 61 24 l 1,10,11
 110 24 110 24 121 34 c 128,-1,12
 132 44 132 44 132 88 c 2,13,-1
 132 627 l 2,14,15
 132 671 132 671 121 681.5 c 128,-1,16
 110 692 110 692 61 692 c 1,17,-1
 61 717 l 1,18,-1
 325 717 l 2,19,20
 379 717 379 717 412.5 768.5 c 128,-1,21
 446 820 446 820 446 874 c 1,22,-1
 471 874 l 1,23,24
 471 836 471 836 484.5 796.5 c 128,-1,25
 498 757 498 757 511 737 c 2,26,-1
 524 717 l 1,27,-1
 524 692 l 1,28,-1
 325 692 l 2,0,1
EndSplineSet
Validated: 19457
EndChar

StartChar: afii10098
Encoding: 1169 1169 220
Width: 436
VWidth: 0
Flags: W
HStem: 0 21G<61 164> 487 25<164 304.719>
VStem: 61 103<0 487> 338 24<556.554 641>
LayerCount: 2
Fore
SplineSet
61 512 m 1,0,-1
 231 512 l 2,1,2
 299 512 299 512 318.5 535 c 128,-1,3
 338 558 338 558 338 641 c 1,4,-1
 362 641 l 1,5,6
 362 603 362 603 370 570.5 c 128,-1,7
 378 538 378 538 386 525 c 2,8,-1
 395 512 l 1,9,-1
 395 487 l 1,10,-1
 164 487 l 1,11,-1
 164 0 l 1,12,-1
 61 0 l 1,13,-1
 61 512 l 1,0,-1
EndSplineSet
Validated: 19457
EndChar

StartChar: uni047E
Encoding: 1150 1150 223
Width: 1005
VWidth: 0
Flags: W
HStem: -14 21G<318.5 332 643 665> 693 24<27 85.6472 230.353 290 349 408.647 553.353 612 732 787.961 889.369 945> 764 125<430 532> 864 25<345.496 430 532 616.504>
VStem: 97 122<305.532 682.164> 289 24<735 817.899> 420 122<304.464 682.164> 430 102<764 864> 649 25<735 823.845> 815 48<349.123 674.947>
LayerCount: 2
Fore
SplineSet
420 628 m 2,0,1
 420 672 420 672 409 682.5 c 128,-1,2
 398 693 398 693 349 693 c 1,3,-1
 349 717 l 1,4,-1
 612 717 l 1,5,-1
 612 693 l 1,6,7
 564 693 564 693 553 683 c 128,-1,8
 542 673 542 673 542 628 c 2,9,-1
 542 479 l 2,10,11
 542 334 542 334 587 228 c 128,-1,12
 632 122 632 122 681 72 c 1,13,14
 732 139 732 139 773.5 239.5 c 128,-1,15
 815 340 815 340 815 463 c 2,16,-1
 815 614 l 2,17,18
 815 658 815 658 796 675.5 c 128,-1,19
 777 693 777 693 732 693 c 1,20,-1
 732 717 l 1,21,-1
 945 717 l 1,22,-1
 945 693 l 1,23,24
 900 693 900 693 881.5 675.5 c 128,-1,25
 863 658 863 658 863 614 c 2,26,-1
 863 535 l 2,27,28
 863 438 863 438 840.5 346 c 128,-1,29
 818 254 818 254 786 191.5 c 128,-1,30
 754 129 754 129 722 80.5 c 128,-1,31
 690 32 690 32 668 9 c 2,32,-1
 645 -14 l 1,33,34
 641 -11 641 -11 633.5 -5.5 c 128,-1,35
 626 0 626 0 604.5 21 c 128,-1,36
 583 42 583 42 563 65.5 c 128,-1,37
 543 89 543 89 518 128 c 128,-1,38
 493 167 493 167 474 210 c 1,39,40
 456 167 456 167 433.5 128 c 128,-1,41
 411 89 411 89 392.5 64 c 128,-1,42
 374 39 374 39 357.5 20.5 c 128,-1,43
 341 2 341 2 332 -6 c 2,44,-1
 323 -14 l 1,45,46
 314 -8 314 -8 298.5 5 c 128,-1,47
 283 18 283 18 244 63 c 128,-1,48
 205 108 205 108 175.5 160 c 128,-1,49
 146 212 146 212 121.5 297.5 c 128,-1,50
 97 383 97 383 97 476 c 2,51,-1
 97 628 l 2,52,53
 97 673 97 673 86 683 c 128,-1,54
 75 693 75 693 27 693 c 1,55,-1
 27 717 l 1,56,-1
 290 717 l 1,57,-1
 290 693 l 1,58,59
 241 693 241 693 230 682.5 c 128,-1,60
 219 672 219 672 219 628 c 2,61,-1
 219 479 l 2,62,63
 219 334 219 334 264 228 c 128,-1,64
 309 122 309 122 358 72 c 1,65,66
 421 155 421 155 457 255 c 1,67,68
 420 359 420 359 420 476 c 2,69,-1
 420 628 l 2,0,1
430 764 m 5,70,-1
 430 864 l 1,71,72
 390 864 390 864 371 861 c 128,-1,73
 352 858 352 858 336.5 845 c 128,-1,74
 321 832 321 832 317 807 c 128,-1,75
 313 782 313 782 313 735 c 1,76,-1
 289 735 l 1,77,78
 289 773 289 773 280.5 805.5 c 128,-1,79
 272 838 272 838 264 851 c 2,80,-1
 256 864 l 1,81,-1
 256 889 l 1,82,-1
 707 889 l 1,83,-1
 707 864 l 1,84,85
 674 821 674 821 674 735 c 1,86,-1
 649 735 l 1,87,88
 649 782 649 782 645 807 c 128,-1,89
 641 832 641 832 625.5 845 c 128,-1,90
 610 858 610 858 591 861 c 128,-1,91
 572 864 572 864 532 864 c 1,92,-1
 532 764 l 1,93,-1
 430 764 l 5,70,-1
EndSplineSet
Validated: 19457
EndChar

StartChar: uni047F
Encoding: 1151 1151 224
Width: 787
VWidth: 0
Flags: W
HStem: -10 21G<267.5 290 532.5 556> 492 20G<101 213 366 477 600 701> 573 125<365 467> 674 24<281.529 365 467 550.471>
VStem: 59 103<214.068 455.816> 223 25<545 629.435> 324 102<214.425 455.816> 365 102<573 674> 584 24<545 631.966> 600 100<445.121 512> 668 57<236.119 432>
LayerCount: 2
Fore
SplineSet
537 -10 m 1,0,1
 528 -5 528 -5 512.5 4.5 c 128,-1,2
 497 14 497 14 459 47.5 c 128,-1,3
 421 81 421 81 393 121 c 1,4,5
 369 78 369 78 339 45 c 0,6,7
 308 12 308 12 290 1 c 2,8,-1
 272 -10 l 1,9,10
 263 -5 263 -5 249 4 c 128,-1,11
 235 13 235 13 198 45 c 128,-1,12
 161 77 161 77 133 114 c 128,-1,13
 105 151 105 151 82 212 c 128,-1,14
 59 273 59 273 59 340 c 0,15,16
 59 393 59 393 73 436 c 0,17,18
 87 480 87 480 101 496 c 2,19,-1
 115 512 l 1,20,-1
 213 512 l 1,21,22
 207 504 207 504 198.5 489.5 c 128,-1,23
 190 475 190 475 176 430.5 c 128,-1,24
 162 386 162 386 162 342 c 0,25,26
 162 242 162 242 204 168 c 128,-1,27
 246 94 246 94 295 55 c 1,28,29
 342 97 342 97 372 157 c 1,30,31
 324 243 324 243 324 340 c 0,32,33
 324 393 324 393 338 436 c 0,34,35
 352 480 352 480 366 496 c 2,36,-1
 379 512 l 1,37,-1
 477 512 l 1,38,39
 471 504 471 504 462.5 489.5 c 128,-1,40
 454 475 454 475 440 430.5 c 128,-1,41
 426 386 426 386 426 342 c 0,42,43
 426 242 426 242 468 168 c 128,-1,44
 510 94 510 94 559 55 c 1,45,46
 668 152 668 152 668 297 c 0,47,48
 668 343 668 343 651 380 c 128,-1,49
 634 417 634 417 617 448 c 128,-1,50
 600 479 600 479 600 512 c 1,51,-1
 700 512 l 1,52,53
 702 504 702 504 713.5 476 c 128,-1,54
 725 448 725 448 725 416 c 0,55,56
 725 324 725 324 705.5 246 c 128,-1,57
 686 168 686 168 658.5 123 c 128,-1,58
 631 78 631 78 603.5 46 c 128,-1,59
 576 14 576 14 556 2 c 2,60,-1
 537 -10 l 1,0,1
365 573 m 1,61,-1
 365 674 l 1,62,63
 325 674 325 674 306 671 c 128,-1,64
 287 668 287 668 271.5 655 c 128,-1,65
 256 642 256 642 252 617 c 128,-1,66
 248 592 248 592 248 545 c 1,67,-1
 223 545 l 1,68,69
 223 583 223 583 214.5 615.5 c 128,-1,70
 206 648 206 648 198 661 c 2,71,-1
 190 674 l 1,72,-1
 190 698 l 1,73,-1
 641 698 l 1,74,-1
 641 674 l 1,75,76
 608 631 608 631 608 545 c 1,77,-1
 584 545 l 1,78,79
 584 592 584 592 580 617 c 128,-1,80
 576 642 576 642 560.5 655 c 128,-1,81
 545 668 545 668 526 671 c 128,-1,82
 507 674 507 674 467 674 c 1,83,-1
 467 573 l 1,84,-1
 365 573 l 1,61,-1
EndSplineSet
Validated: 19457
EndChar

StartChar: uni047B
Encoding: 1147 1147 225
Width: 623
VWidth: 0
Flags: W
HStem: -74 148<277.924 350.045> 438 148<274.44 350.045>
VStem: 51 108<131.038 381.747> 258 109<515.268 566.919> 465 107<127.322 385.049>
AnchorPoint: "top" 310 628 basechar 0
LayerCount: 2
Fore
SplineSet
258 -7 m 1,0,1
 152 7 152 7 101.5 78 c 128,-1,2
 51 149 51 149 51 257 c 128,-1,3
 51 365 51 365 101.5 435 c 128,-1,4
 152 505 152 505 258 519 c 1,5,-1
 258 520 l 1,6,7
 260 549 260 549 274 567.5 c 128,-1,8
 288 586 288 586 312 586 c 128,-1,9
 336 586 336 586 350.5 567.5 c 128,-1,10
 365 549 365 549 367 520 c 1,11,-1
 367 519 l 1,12,13
 473 505 473 505 522.5 435 c 128,-1,14
 572 365 572 365 572 256 c 128,-1,15
 572 147 572 147 522.5 77 c 128,-1,16
 473 7 473 7 367 -7 c 1,17,18
 365 -36 365 -36 350.5 -55 c 128,-1,19
 336 -74 336 -74 312 -74 c 128,-1,20
 288 -74 288 -74 274 -55.5 c 128,-1,21
 260 -37 260 -37 258 -7 c 1,0,1
365 23 m 1,22,23
 465 60 465 60 465 257 c 0,24,25
 465 452 465 452 365 489 c 1,26,27
 360 466 360 466 346 452 c 128,-1,28
 332 438 332 438 312 438 c 0,29,30
 270 438 270 438 260 489 c 1,31,32
 159 453 159 453 159 256 c 128,-1,33
 159 59 159 59 260 23 c 1,34,35
 264 46 264 46 277.5 60 c 128,-1,36
 291 74 291 74 312 74 c 0,37,38
 356 74 356 74 365 23 c 1,22,23
EndSplineSet
Validated: 19457
EndChar

StartChar: afii10195
Encoding: 1139 1139 226
Width: 779
VWidth: 0
Flags: W
HStem: -10 24<337.373 438.352> 241 24<282 498> 498 24<340.016 440.297>
VStem: 94 25<83 146.966> 180 102<112.951 228 265 400.527> 498 101<112.951 228 265 400.527> 660 25<83 147.061>
AnchorPoint: "top" 392 579 basechar 0
LayerCount: 2
Fore
SplineSet
738 265 m 1,0,-1
 738 241 l 1,1,2
 732 233 732 233 723 218.5 c 128,-1,3
 714 204 714 204 699.5 162.5 c 128,-1,4
 685 121 685 121 685 83 c 1,5,-1
 660 83 l 1,6,7
 660 118 660 118 643.5 158.5 c 128,-1,8
 627 199 627 199 599 228 c 1,9,10
 589 -10 589 -10 390 -10 c 0,11,12
 190 -10 190 -10 180 228 c 1,13,14
 152 199 152 199 135.5 158.5 c 128,-1,15
 119 118 119 118 119 83 c 1,16,-1
 94 83 l 1,17,18
 94 121 94 121 81 160.5 c 128,-1,19
 68 200 68 200 54 220 c 2,20,-1
 41 241 l 1,21,-1
 41 265 l 1,22,-1
 179 265 l 1,23,24
 182 522 182 522 390 522 c 0,25,26
 597 522 597 522 600 265 c 1,27,-1
 738 265 l 1,0,-1
498 265 m 1,28,29
 498 326 498 326 494.5 364 c 128,-1,30
 491 402 491 402 480 435 c 128,-1,31
 469 468 469 468 447 483 c 128,-1,32
 425 498 425 498 390 498 c 0,33,34
 323 498 323 498 302.5 443 c 128,-1,35
 282 388 282 388 282 265 c 1,36,-1
 498 265 l 1,28,29
498 241 m 1,37,-1
 282 241 l 1,38,39
 282 181 282 181 285.5 144.5 c 128,-1,40
 289 108 289 108 300 75.5 c 128,-1,41
 311 43 311 43 333 28.5 c 128,-1,42
 355 14 355 14 390 14 c 0,43,44
 418 14 418 14 437.5 24.5 c 128,-1,45
 457 35 457 35 468.5 52.5 c 128,-1,46
 480 70 480 70 486.5 100.5 c 128,-1,47
 493 131 493 131 495.5 162.5 c 128,-1,48
 498 194 498 194 498 241 c 1,37,-1
EndSplineSet
Validated: 19457
EndChar

StartChar: uni046E
Encoding: 1134 1134 227
Width: 646
VWidth: 0
Flags: W
HStem: -166 148<465.962 535.594> -154 84<155.76 308.827> -10 32<311.978 420.327> 53 41<152.894 237.374> 378 28<275.671 365.523> 702 24<350 370.967> 775 122<388.435 486.321>
VStem: 55 78<-47.2949 34.5583> 92 122<500.311 614.852> 431 121<465.899 639.92> 471 122<84.7854 288.169>
AnchorPoint: "top" 322 899 basechar 0
LayerCount: 2
Fore
SplineSet
227 -154 m 0,0,1
 148 -154 148 -154 101.5 -115 c 128,-1,2
 55 -76 55 -76 55 -25 c 0,3,4
 55 35 55 35 87 64.5 c 128,-1,5
 119 94 119 94 166 94 c 0,6,7
 202 94 202 94 269 58 c 128,-1,8
 336 22 336 22 381 22 c 0,9,10
 418 22 418 22 444.5 69.5 c 128,-1,11
 471 117 471 117 471 193 c 0,12,13
 471 271 471 271 436 324.5 c 128,-1,14
 401 378 401 378 323 378 c 0,15,16
 292 378 292 378 268 359 c 128,-1,17
 244 340 244 340 232.5 318 c 128,-1,18
 221 296 221 296 209 277 c 128,-1,19
 197 258 197 258 188 258 c 0,20,21
 160 258 160 258 142.5 274 c 128,-1,22
 125 290 125 290 125 303 c 128,-1,23
 125 316 125 316 133.5 331.5 c 128,-1,24
 142 347 142 347 160.5 365 c 128,-1,25
 179 383 179 383 217.5 394.5 c 128,-1,26
 256 406 256 406 308 406 c 0,27,28
 369 406 369 406 400 451 c 128,-1,29
 431 496 431 496 431 559 c 0,30,31
 431 626 431 626 401.5 664 c 128,-1,32
 372 702 372 702 324 702 c 0,33,34
 267 702 267 702 240.5 656.5 c 128,-1,35
 214 611 214 611 214 512 c 0,36,37
 214 498 214 498 153 498 c 128,-1,38
 92 498 92 498 92 512 c 0,39,40
 92 563 92 563 110 606.5 c 128,-1,41
 128 650 128 650 173.5 684 c 128,-1,42
 219 718 219 718 287 725 c 1,43,44
 273 737 273 737 233 769.5 c 128,-1,45
 193 802 193 802 176 819 c 128,-1,46
 159 836 159 836 159 845 c 0,47,48
 159 856 159 856 182 875 c 128,-1,49
 205 894 205 894 227 894 c 0,50,51
 235 894 235 894 244.5 886 c 128,-1,52
 254 878 254 878 264.5 862.5 c 128,-1,53
 275 847 275 847 284 831.5 c 128,-1,54
 293 816 293 816 306 792.5 c 128,-1,55
 319 769 319 769 328 755 c 1,56,-1
 388 874 l 2,57,58
 400 897 400 897 482 897 c 0,59,60
 497 897 497 897 497 885 c 0,61,62
 497 866 497 866 490.5 820.5 c 128,-1,63
 484 775 484 775 476 775 c 2,64,-1
 446 775 l 2,65,66
 376 775 376 775 361 748 c 1,67,-1
 350 726 l 1,68,69
 451 721 451 721 501.5 676 c 128,-1,70
 552 631 552 631 552 539 c 0,71,72
 552 428 552 428 443 392 c 1,73,74
 521 368 521 368 557 312.5 c 128,-1,75
 593 257 593 257 593 190 c 0,76,77
 593 90 593 90 536.5 40 c 128,-1,78
 480 -10 480 -10 373 -10 c 0,79,80
 334 -10 334 -10 299.5 6 c 128,-1,81
 265 22 265 22 241 37.5 c 128,-1,82
 217 53 217 53 203 53 c 0,83,84
 181 53 181 53 157 36 c 128,-1,85
 133 19 133 19 133 0 c 0,86,87
 133 -70 133 -70 250 -70 c 0,88,89
 310 -70 310 -70 353.5 -57 c 128,-1,90
 397 -44 397 -44 428.5 -31 c 128,-1,91
 460 -18 460 -18 489 -18 c 0,92,93
 513 -18 513 -18 543 -47 c 128,-1,94
 573 -76 573 -76 573 -88 c 0,95,96
 573 -117 573 -117 546 -141.5 c 128,-1,97
 519 -166 519 -166 494 -166 c 0,98,99
 479 -166 479 -166 452.5 -125 c 128,-1,100
 426 -84 426 -84 414 -84 c 0,101,102
 393 -84 393 -84 332.5 -119 c 128,-1,103
 272 -154 272 -154 227 -154 c 0,0,1
EndSplineSet
Validated: 19457
EndChar

StartChar: uni046F
Encoding: 1135 1135 228
Width: 563
VWidth: 0
Flags: W
HStem: -166 148<439.958 503.275> -10 25<284.122 365.304> 47 38<145.604 235.956> 248 30<236.968 326.51> 500 24<305 330.225> 573 110<341.312 432.418>
VStem: 55 78<-51.7657 36.3667> 98 103<353.55 445.426> 371 102<315.785 463.706> 403 103<49.3542 200.853> 429.5 111.5<-136.087 -74.9375>
AnchorPoint: "top" 286 718 basechar 0
LayerCount: 2
Fore
SplineSet
333 15 m 0,0,1
 363 15 363 15 383 45.5 c 128,-1,2
 403 76 403 76 403 132 c 0,3,4
 403 187 403 187 377 217.5 c 128,-1,5
 351 248 351 248 287 248 c 0,6,7
 259 248 259 248 242.5 237.5 c 128,-1,8
 226 227 226 227 221 214 c 128,-1,9
 216 201 216 201 207.5 190.5 c 128,-1,10
 199 180 199 180 186 180 c 0,11,12
 147 180 147 180 147 214 c 0,13,14
 147 241 147 241 187 259.5 c 128,-1,15
 227 278 227 278 274 278 c 0,16,17
 323 278 323 278 347 313.5 c 128,-1,18
 371 349 371 349 371 398 c 0,19,20
 371 449 371 449 348.5 474.5 c 128,-1,21
 326 500 326 500 287 500 c 0,22,23
 241 500 241 500 221 469 c 128,-1,24
 201 438 201 438 201 364 c 0,25,26
 201 352 201 352 151 352 c 0,27,28
 98 352 98 352 98 364 c 0,29,30
 98 424 98 424 138 470 c 128,-1,31
 178 516 178 516 259 523 c 1,32,33
 243 537 243 537 208 565.5 c 128,-1,34
 173 594 173 594 155 611 c 128,-1,35
 137 628 137 628 137 637 c 0,36,37
 137 647 137 647 158 664 c 128,-1,38
 179 681 179 681 199 681 c 0,39,40
 206 681 206 681 214.5 674 c 128,-1,41
 223 667 223 667 232 652.5 c 128,-1,42
 241 638 241 638 249 624 c 128,-1,43
 257 610 257 610 269 589.5 c 128,-1,44
 281 569 281 569 289 555 c 1,45,-1
 343 664 l 2,46,47
 352 683 352 683 428 683 c 0,48,49
 441 683 441 683 441 673 c 0,50,51
 441 655 441 655 435.5 614 c 128,-1,52
 430 573 430 573 423 573 c 2,53,-1
 395 573 l 2,54,55
 362 573 362 573 344.5 568.5 c 128,-1,56
 327 564 327 564 319 549 c 2,57,-1
 305 524 l 1,58,59
 473 518 473 518 473 383 c 0,60,61
 473 343 473 343 449.5 309.5 c 128,-1,62
 426 276 426 276 383 263 c 1,63,64
 506 227 506 227 506 130 c 0,65,66
 506 -10 506 -10 327 -10 c 0,67,68
 294 -10 294 -10 273 -1 c 128,-1,69
 252 8 252 8 244.5 18.5 c 128,-1,70
 237 29 237 29 223.5 38 c 128,-1,71
 210 47 210 47 189 47 c 0,72,73
 167 47 167 47 150 33.5 c 128,-1,74
 133 20 133 20 133 0 c 0,75,76
 133 -34 133 -34 155 -52 c 128,-1,77
 177 -70 177 -70 236 -70 c 0,78,79
 296 -70 296 -70 335 -57 c 128,-1,80
 374 -44 374 -44 401 -31 c 128,-1,81
 428 -18 428 -18 457 -18 c 0,82,83
 481 -18 481 -18 511 -47 c 128,-1,84
 541 -76 541 -76 541 -88 c 0,85,86
 541 -117 541 -117 513.5 -141.5 c 128,-1,87
 486 -166 486 -166 461 -166 c 0,88,89
 446 -166 446 -166 429.5 -119 c 128,-1,90
 413 -72 413 -72 401 -72 c 0,91,92
 381 -72 381 -72 351 -92.5 c 128,-1,93
 321 -113 321 -113 284.5 -133.5 c 128,-1,94
 248 -154 248 -154 213 -154 c 0,95,96
 135 -154 135 -154 95 -116 c 128,-1,97
 55 -78 55 -78 55 -25 c 0,98,99
 55 85 55 85 167 85 c 0,100,101
 199 85 199 85 220 78 c 128,-1,102
 241 71 241 71 251 60.5 c 128,-1,103
 261 50 261 50 270 39.5 c 128,-1,104
 279 29 279 29 294 22 c 128,-1,105
 309 15 309 15 333 15 c 0,0,1
EndSplineSet
Validated: 19457
EndChar

StartChar: uni0470
Encoding: 1136 1136 229
Width: 733
VWidth: 0
Flags: W
HStem: 0 24<233 292.647 437.353 497> 113 39<289 304 426 469> 504 122<600.481 686.033> 693 24<233 292.647 437.353 497>
VStem: 304 122<34.3208 113 152 682.164>
AnchorPoint: "top" 369 748 basechar 0
LayerCount: 2
Fore
SplineSet
426 88 m 2,0,1
 426 44 426 44 437 34 c 128,-1,2
 448 24 448 24 497 24 c 1,3,-1
 497 0 l 1,4,-1
 233 0 l 1,5,-1
 233 24 l 1,6,7
 282 24 282 24 293 34 c 128,-1,8
 304 44 304 44 304 88 c 2,9,-1
 304 113 l 1,10,-1
 184 113 l 1,11,-1
 35 600 l 2,12,13
 31 612 31 612 31 614 c 0,14,15
 31 626 31 626 48 626 c 2,16,-1
 115 626 l 2,17,18
 133 626 133 626 140 621 c 128,-1,19
 147 616 147 616 152 602 c 2,20,-1
 289 152 l 1,21,-1
 304 152 l 1,22,-1
 304 628 l 2,23,24
 304 672 304 672 293 682.5 c 128,-1,25
 282 693 282 693 233 693 c 1,26,-1
 233 717 l 1,27,-1
 497 717 l 1,28,-1
 497 693 l 1,29,30
 448 693 448 693 437 682.5 c 128,-1,31
 426 672 426 672 426 628 c 2,32,-1
 426 152 l 1,33,-1
 469 152 l 1,34,-1
 590 603 l 2,35,36
 594 616 594 616 600 619 c 0,37,38
 615 626 615 626 682 626 c 0,39,40
 696 626 696 626 696 613 c 0,41,42
 696 593 696 593 690 548.5 c 128,-1,43
 684 504 684 504 676 504 c 2,44,-1
 634 504 l 2,45,46
 604 504 604 504 599 500 c 128,-1,47
 594 496 594 496 589 476 c 2,48,-1
 492 113 l 1,49,-1
 426 113 l 1,50,-1
 426 88 l 2,0,1
EndSplineSet
Validated: 19457
EndChar

StartChar: uni0471
Encoding: 1137 1137 230
Width: 694
VWidth: 0
Flags: W
HStem: 0 39<274 293 395 428> 391 122<559.481 645.033> 697 20G<293 395>
VStem: 41 96<465.455 507.842> 293 102<-154 0 39 717>
AnchorPoint: "top" 346 763 basechar 0
LayerCount: 2
Fore
SplineSet
395 -154 m 1,0,-1
 293 -154 l 1,1,-1
 293 0 l 1,2,-1
 195 0 l 1,3,-1
 45 487 l 2,4,5
 41 499 41 499 41 502 c 0,6,7
 41 513 41 513 58 513 c 2,8,-1
 100 513 l 2,9,10
 118 513 118 513 125 508 c 128,-1,11
 132 503 132 503 137 489 c 2,12,-1
 274 39 l 1,13,-1
 293 39 l 1,14,-1
 293 717 l 1,15,-1
 395 717 l 1,16,-1
 395 39 l 1,17,-1
 428 39 l 1,18,-1
 549 490 l 2,19,20
 553 503 553 503 559 506 c 0,21,22
 574 513 574 513 641 513 c 0,23,24
 655 513 655 513 655 501 c 0,25,26
 655 481 655 481 649 436 c 128,-1,27
 643 391 643 391 635 391 c 2,28,-1
 593 391 l 2,29,30
 563 391 563 391 558 387.5 c 128,-1,31
 553 384 553 384 548 364 c 2,32,-1
 451 0 l 1,33,-1
 395 0 l 1,34,-1
 395 -154 l 1,0,-1
EndSplineSet
Validated: 19457
EndChar

StartChar: uniA65E
Encoding: 42590 42590 231
Width: 834
VWidth: 0
Flags: W
HStem: -205 24<241 300.162 444.353 504> -13 122<42.9668 145.649> 0 24<530 580.464 723.148 794> 697 20G<337.769 477.911>
VStem: 311 122<-170.679 498>
AnchorPoint: "top" 414 748 basechar 0
LayerCount: 2
Fore
SplineSet
311 498 m 1,0,-1
 163 9 l 2,1,2
 160 -3 160 -3 136 -8 c 128,-1,3
 112 -13 112 -13 47 -13 c 0,4,5
 33 -13 33 -13 33 -1 c 0,6,7
 33 19 33 19 39 64 c 128,-1,8
 45 109 45 109 53 109 c 2,9,-1
 95 109 l 2,10,11
 135 109 135 109 146 113 c 128,-1,12
 157 117 157 117 163 136 c 2,13,-1
 344 717 l 1,14,-1
 471 717 l 1,15,-1
 688 89 l 2,16,17
 702 48 702 48 722.5 36 c 128,-1,18
 743 24 743 24 794 24 c 1,19,-1
 794 0 l 1,20,-1
 530 0 l 1,21,-1
 530 24 l 1,22,23
 583 24 583 24 583 43 c 0,24,25
 583 52 583 52 580 60 c 2,26,-1
 433 504 l 1,27,-1
 433 -117 l 2,28,29
 433 -161 433 -161 444 -171 c 128,-1,30
 455 -181 455 -181 504 -181 c 1,31,-1
 504 -205 l 1,32,-1
 241 -205 l 1,33,-1
 241 -181 l 1,34,35
 290 -181 290 -181 300.5 -171 c 128,-1,36
 311 -161 311 -161 311 -117 c 2,37,-1
 311 498 l 1,0,-1
EndSplineSet
Validated: 19457
EndChar

StartChar: uniA65F
Encoding: 42591 42591 232
Width: 668
VWidth: 0
Flags: W
HStem: -205 21G<286 388> -8 123<44.9668 140.201> 0 21G<553 619> 493 20G<295.097 430.296>
VStem: 286 102<-205 360>
AnchorPoint: "top" 364 579 basechar 0
LayerCount: 2
Fore
SplineSet
286 375 m 1,0,-1
 141 14 l 2,1,2
 137 2 137 2 119.5 -3 c 128,-1,3
 102 -8 102 -8 49 -8 c 0,4,5
 35 -8 35 -8 35 4 c 0,6,7
 35 24 35 24 41 69.5 c 128,-1,8
 47 115 47 115 55 115 c 2,9,-1
 111 115 l 2,10,11
 131 115 131 115 140.5 120.5 c 128,-1,12
 150 126 150 126 156 141 c 2,13,-1
 303 513 l 1,14,-1
 422 513 l 1,15,-1
 624 26 l 2,16,17
 628 14 628 14 628 11 c 0,18,19
 628 0 628 0 610 0 c 2,20,-1
 562 0 l 2,21,22
 544 0 544 0 537 5 c 128,-1,23
 530 10 530 10 525 24 c 2,24,-1
 388 360 l 1,25,-1
 388 -205 l 1,26,-1
 286 -205 l 1,27,-1
 286 375 l 1,0,-1
EndSplineSet
Validated: 19457
EndChar

StartChar: oslash
Encoding: 248 248 261
Width: 552
VWidth: 0
Flags: W
HStem: -14 21G<254 304.5> 502 20G<244.5 292>
VStem: 55 103<226.948 342.071> 386 108<166.227 290.636>
LayerCount: 2
Fore
SplineSet
383 628 m 1,0,-1
 436 628 l 1,1,-1
 373 463 l 1,2,3
 427 417 427 417 460.5 357.5 c 128,-1,4
 494 298 494 298 494 254 c 0,5,6
 494 216 494 216 472.5 167.5 c 128,-1,7
 451 119 451 119 396.5 65.5 c 128,-1,8
 342 12 342 12 267 -14 c 1,9,10
 241 -3 241 -3 203 24 c 1,11,-1
 160 -89 l 1,12,-1
 106 -89 l 1,13,-1
 163 57 l 1,14,15
 114 103 114 103 84.5 158 c 128,-1,16
 55 213 55 213 55 254 c 0,17,18
 55 292 55 292 76.5 340.5 c 128,-1,19
 98 389 98 389 152.5 442.5 c 128,-1,20
 207 496 207 496 282 522 c 1,21,22
 302 514 302 514 332 495 c 1,23,-1
 383 628 l 1,0,-1
315 49 m 1,24,25
 358 81 358 81 372 112 c 128,-1,26
 386 143 386 143 386 196 c 0,27,28
 386 271 386 271 329 348 c 1,29,-1
 246 135 l 1,30,31
 251 129 251 129 263 116.5 c 128,-1,32
 275 104 275 104 280.5 97.5 c 128,-1,33
 286 91 286 91 294 81.5 c 128,-1,34
 302 72 302 72 307 64 c 128,-1,35
 312 56 312 56 315 49 c 1,24,25
210 179 m 1,36,-1
 292 392 l 1,37,38
 247 445 247 445 237 463 c 1,39,40
 190 432 190 432 174 401 c 128,-1,41
 158 370 158 370 158 317 c 0,42,43
 158 249 158 249 210 179 c 1,36,-1
EndSplineSet
Validated: 19457
Ligature2: "'ccmp' Glyph Composition/Decomposition lookup 0-1" o uni0338
EndChar

StartChar: Oslash
Encoding: 216 216 262
Width: 633
VWidth: 0
Flags: W
HStem: -10 24<264.691 368.886> 0 21G<51 117.448> 697 20G<516.241 583> 703 25<264.152 369.438>
VStem: 51 128<204.163 532.109> 455 128<185.84 513.22>
LayerCount: 2
Fore
SplineSet
529 717 m 5,0,-1
 583 717 l 1,1,-1
 520 624 l 1,2,3
 583 527 583 527 583 358 c 128,-1,4
 583 189 583 189 517 89.5 c 128,-1,5
 451 -10 451 -10 317 -10 c 0,6,7
 209 -10 209 -10 143 58 c 1,8,-1
 104 0 l 1,9,-1
 51 0 l 1,10,-1
 114 94 l 1,11,12
 51 191 51 191 51 359 c 0,13,14
 51 528 51 528 117 628 c 128,-1,15
 183 728 183 728 317 728 c 0,16,17
 425 728 425 728 492 659 c 1,18,-1
 529 717 l 5,0,-1
317 703 m 0,19,20
 274 703 274 703 246 679.5 c 128,-1,21
 218 656 218 656 204 607.5 c 128,-1,22
 190 559 190 559 184.5 501 c 128,-1,23
 179 443 179 443 179 358 c 0,24,25
 179 256 179 256 185 202 c 1,26,-1
 438 580 l 1,27,28
 424 641 424 641 395 672 c 128,-1,29
 366 703 366 703 317 703 c 0,19,20
449 515 m 1,30,-1
 197 137 l 1,31,32
 211 75 211 75 239.5 44.5 c 128,-1,33
 268 14 268 14 317 14 c 0,34,35
 359 14 359 14 387 37.5 c 128,-1,36
 415 61 415 61 429.5 109.5 c 128,-1,37
 444 158 444 158 449.5 216 c 128,-1,38
 455 274 455 274 455 359 c 0,39,40
 455 461 455 461 449 515 c 1,30,-1
EndSplineSet
Validated: 19457
Ligature2: "'ccmp' Glyph Composition/Decomposition lookup 0-1" O uni0338
EndChar

StartChar: germandbls
Encoding: 223 223 274
Width: 588
VWidth: 0
Flags: W
HStem: -189 110<91.9858 170.113> -163 26<271.683 365.975> 0 21G<84 186> 487 25<186 400>
VStem: 84 102<0 487 512 564.603> 419 102<-91.4413 73.3992>
LayerCount: 2
Fore
SplineSet
186 0 m 1,0,-1
 84 0 l 1,1,-1
 84 480 l 2,2,3
 84 507 84 507 97 542.5 c 128,-1,4
 110 578 110 578 135.5 617.5 c 128,-1,5
 161 657 161 657 207 693 c 128,-1,6
 253 729 253 729 310 749 c 1,7,8
 368 724 368 724 422 670 c 1,9,-1
 322 617 l 1,10,11
 273 675 273 675 265 689 c 1,12,13
 217 658 217 658 201.5 627.5 c 128,-1,14
 186 597 186 597 186 544 c 2,15,-1
 186 512 l 1,16,-1
 521 512 l 1,17,-1
 369 155 l 1,18,19
 426 149 426 149 473.5 105 c 128,-1,20
 521 61 521 61 521 -24 c 0,21,22
 521 -87 521 -87 461 -125 c 128,-1,23
 401 -163 401 -163 328 -163 c 0,24,25
 283 -163 283 -163 255 -150.5 c 128,-1,26
 227 -138 227 -138 208 -138 c 0,27,28
 199 -138 199 -138 173.5 -163.5 c 128,-1,29
 148 -189 148 -189 136 -189 c 0,30,31
 116 -189 116 -189 94 -171 c 128,-1,32
 72 -153 72 -153 72 -131 c 0,33,34
 72 -118 72 -118 95.5 -98.5 c 128,-1,35
 119 -79 119 -79 139 -79 c 0,36,37
 196 -79 196 -79 241 -108 c 128,-1,38
 286 -137 286 -137 334 -137 c 0,39,40
 356 -137 356 -137 387.5 -106 c 128,-1,41
 419 -75 419 -75 419 -22 c 0,42,43
 419 64 419 64 388 92.5 c 128,-1,44
 357 121 357 121 295 121 c 0,45,46
 277 121 277 121 267.5 132 c 128,-1,47
 258 143 258 143 258 152 c 0,48,49
 258 153 258 153 260 157 c 2,50,-1
 400 487 l 1,51,-1
 186 487 l 1,52,-1
 186 0 l 1,0,-1
EndSplineSet
Validated: 19457
EndChar

StartChar: cedilla
Encoding: 184 184 275
Width: 262
VWidth: 0
Flags: W
HStem: -188 20<41 97.5576>
VStem: 86 43<-51 22> 137 84<-151.458 -82.6194>
LayerCount: 2
Fore
SplineSet
90 22 m 25,0,-1
 132 22 l 1,1,-1
 129 -51 l 1,2,3
 172 -51 172 -51 196.5 -70.5 c 128,-1,4
 221 -90 221 -90 221 -117 c 0,5,6
 221 -188 221 -188 41 -188 c 1,7,-1
 41 -168 l 1,8,9
 80 -168 80 -168 108.5 -155 c 128,-1,10
 137 -142 137 -142 137 -119 c 0,11,12
 137 -103 137 -103 122 -88.5 c 128,-1,13
 107 -74 107 -74 86 -74 c 1,14,-1
 90 22 l 25,0,-1
EndSplineSet
Validated: 19457
EndChar

